<svg version="1.1" id="Layer_1" xmlns="http://www.w3.org/2000/svg" xmlns:xlink="http://www.w3.org/1999/xlink" x="0px" y="0px"
	 width="100%" viewBox="0 0 110 106" enable-background="new 0 0 110 106" xml:space="preserve">
<path fill="#596470" opacity="1.000000" stroke="none" 
	d="
M34.000000,107.000000 
	C23.016333,107.000000 12.032664,107.000000 1.024498,107.000000 
	C1.024498,71.735474 1.024498,36.470928 1.024498,1.103190 
	C37.543171,1.103190 74.086731,1.103190 111.000000,1.103190 
	C111.000000,16.018873 111.000000,31.040777 110.659927,46.434029 
	C106.097084,44.272583 106.229973,39.989460 105.976768,35.890388 
	C105.549225,28.969042 103.154182,23.388538 95.904404,20.688095 
	C95.486656,19.969835 95.197403,19.496254 94.873146,18.669529 
	C93.529915,17.272392 92.221695,16.228403 90.581467,15.117537 
	C89.189041,14.676502 88.128624,14.302342 86.878159,13.654930 
	C85.459419,12.920965 84.230721,12.460252 82.882500,11.678255 
	C78.197647,6.087903 69.901260,3.623597 64.134796,5.859868 
	C62.690910,6.419815 60.418060,6.653442 62.623566,9.353276 
	C62.850651,9.836104 62.948162,10.026048 62.919441,10.444357 
	C62.339802,10.921839 61.886395,11.170955 61.171700,11.182234 
	C60.280411,10.635689 59.650406,10.326981 58.698029,10.048481 
	C57.583549,10.388053 56.791443,10.697418 55.667320,10.996845 
	C54.892635,10.973433 54.449963,10.959958 53.613255,10.880819 
	C52.687801,10.790313 52.156384,10.765470 51.671280,10.733452 
	C51.717602,10.726277 51.719994,10.819992 51.723988,10.445671 
	C51.494286,9.366376 51.260590,8.661401 50.851624,7.662183 
	C48.117794,6.909647 45.559235,6.451354 42.628933,6.069359 
	C40.504868,6.430498 38.752537,6.715338 36.734501,6.889311 
	C33.990891,8.530778 31.512985,10.283111 29.018026,12.018037 
	C29.000969,12.000631 29.031450,12.038093 28.712896,12.078185 
	C27.582964,12.716139 26.771585,13.314000 25.600296,13.938556 
	C24.519535,14.001804 23.798687,14.038359 22.770744,14.141313 
	C21.660107,14.825150 20.856567,15.442588 20.038452,16.049219 
	C20.023880,16.038412 20.058294,16.072851 19.731218,16.160944 
	C18.279358,17.844246 17.154573,19.439455 15.878666,21.230526 
	C15.513288,21.678564 15.286864,21.919294 14.780870,22.343054 
	C12.025424,25.897890 8.139884,28.964819 7.359034,32.683643 
	C6.003178,39.140953 6.016145,45.883900 2.909055,52.417755 
	C3.627553,57.225887 4.361184,61.583744 5.087111,66.293503 
	C5.691997,67.783592 6.304587,68.921776 6.911919,70.375908 
	C6.910169,71.113159 6.913679,71.534454 6.725736,72.059021 
	C6.661089,72.782692 6.787895,73.403084 7.021947,74.370911 
	C8.681260,79.335045 11.051645,83.275513 15.105581,86.285255 
	C16.852280,87.582054 18.300905,89.797180 18.991179,91.889915 
	C20.330379,95.950043 23.046616,97.695663 27.205952,98.378647 
	C29.643135,100.410683 31.866846,102.203773 34.080048,104.372284 
	C34.046360,105.498482 34.023178,106.249237 34.000000,107.000000 
z"/>
<path fill="#596470" opacity="1.000000" stroke="none" 
	d="
M111.000000,61.000000 
	C111.000000,76.277687 111.000000,91.555367 111.000000,107.000000 
	C86.312691,107.000000 61.625004,107.000000 36.605606,106.772659 
	C36.508709,106.281174 36.743523,106.017021 37.254074,105.724731 
	C38.034496,105.484344 38.539177,105.272095 39.362274,105.066727 
	C40.105831,105.080765 40.530972,105.087921 41.374542,105.107407 
	C43.185894,105.109863 44.578815,105.099983 46.281235,105.233566 
	C48.678669,104.791656 50.735180,103.984718 52.863331,103.682907 
	C55.015797,103.377640 57.254307,103.409866 59.425598,103.611763 
	C60.647232,103.725349 61.809212,104.480476 63.355232,105.145798 
	C70.736382,106.758125 77.307678,106.627419 82.316299,99.895218 
	C87.453339,98.053185 91.408508,95.568192 93.492561,90.437485 
	C94.528931,87.886047 96.760307,85.772881 98.633820,83.620499 
	C100.990646,80.912849 105.618782,79.906525 105.220024,74.823044 
	C106.058929,73.449974 106.891052,72.298637 107.174011,71.025269 
	C107.912148,67.703491 108.409767,64.328255 109.336159,60.969433 
	C110.112679,60.976349 110.556335,60.988174 111.000000,61.000000 
z"/>
<path fill="#42515D" opacity="1.000000" stroke="none" 
	d="
M111.000000,60.555836 
	C110.556335,60.988174 110.112679,60.976349 109.326065,60.644714 
	C108.481201,59.209309 107.979301,58.093716 107.437241,56.570473 
	C106.870781,54.117252 106.344490,52.071682 105.750076,49.697121 
	C103.445992,46.777195 101.210037,44.186264 99.397026,41.672585 
	C100.762581,40.584274 102.720444,39.111092 102.476234,38.305134 
	C101.266258,34.311825 99.474884,30.494678 97.873322,26.229893 
	C97.249786,24.207151 96.641335,22.569962 96.032890,20.932774 
	C103.154182,23.388538 105.549225,28.969042 105.976768,35.890388 
	C106.229973,39.989460 106.097084,44.272583 110.659927,46.902687 
	C111.000000,48.388889 111.000000,49.777779 110.997101,51.709000 
	C110.976982,52.500126 110.978912,52.749683 111.000000,53.000000 
	C111.000000,55.370556 111.000000,57.741116 111.000000,60.555836 
z"/>
<path fill="#3B5664" opacity="1.000000" stroke="none" 
	d="
M36.978340,105.752869 
	C36.743523,106.017021 36.508709,106.281174 36.136948,106.772659 
	C35.555557,107.000000 35.111111,107.000000 34.333336,107.000000 
	C34.023178,106.249237 34.046360,105.498482 34.375751,104.419212 
	C35.447418,104.644760 36.212879,105.198814 36.978340,105.752869 
z"/>
<path fill="#596470" opacity="1.000000" stroke="none" 
	d="
M111.000000,52.750000 
	C110.978912,52.749683 110.976982,52.500126 110.997101,52.125664 
	C111.000000,52.000000 111.000000,52.500000 111.000000,52.750000 
z"/>
<path fill="#BFCEDA" opacity="1.000000" stroke="none" 
	d="
M51.719994,10.819992 
	C51.719994,10.819992 51.717602,10.726277 51.461494,11.101660 
	C52.544754,15.317307 53.884121,19.157572 55.146759,23.414772 
	C55.049152,24.651171 55.183243,25.512928 54.973640,26.280880 
	C54.592144,27.678629 54.006611,29.020687 53.506210,30.385986 
	C52.734692,29.011862 51.569038,27.713837 51.285534,26.245485 
	C50.876896,24.129047 51.269791,21.768742 47.716621,21.834583 
	C46.967354,20.506216 46.502014,19.337124 46.252914,17.870752 
	C50.115990,14.629531 47.217628,13.175849 44.915787,12.562414 
	C40.554241,11.400074 37.330803,13.627050 34.551132,16.951513 
	C33.437447,18.283476 31.531614,18.953108 29.626892,19.979467 
	C24.405556,21.344782 21.639866,24.758684 19.615673,29.232250 
	C17.869839,30.143808 15.724168,30.838305 15.269649,32.128548 
	C14.268949,34.969234 14.121995,38.110680 13.493479,41.263748 
	C13.376531,41.768661 13.392713,42.139198 13.408895,42.509739 
	C13.943061,42.117813 14.477228,41.725883 15.303884,41.192200 
	C16.371569,40.690681 17.146767,40.330917 18.213680,40.122997 
	C19.041424,40.945126 19.577454,41.615406 19.940323,42.561672 
	C17.188896,44.583561 14.610628,46.329456 11.870453,47.841072 
	C11.168027,47.078804 10.627509,46.550827 10.156570,45.649406 
	C10.271903,43.677528 10.481948,42.063755 10.334369,40.483379 
	C9.760077,34.333450 11.472046,29.157764 16.783226,25.165895 
	C19.536875,20.605291 22.908718,17.464952 27.985352,16.003519 
	C29.948065,15.438503 31.499235,13.443909 33.554180,11.931120 
	C39.632881,7.894986 45.631214,8.500241 51.719994,10.819992 
z"/>
<path fill="#BFCEDB" opacity="1.000000" stroke="none" 
	d="
M97.888420,26.615442 
	C99.474884,30.494678 101.266258,34.311825 102.476234,38.305134 
	C102.720444,39.111092 100.762581,40.584274 99.441269,41.697266 
	C99.062561,41.644695 99.058380,41.559433 99.202682,41.126007 
	C98.557930,37.796432 97.768875,34.900291 96.923225,31.659180 
	C95.021713,29.501476 93.176796,27.688742 91.244751,25.630856 
	C90.861107,25.220507 90.564598,25.055313 90.227203,24.520393 
	C88.927307,22.976734 87.859657,21.266533 86.371254,20.735374 
	C82.761452,19.447159 78.955826,18.707682 75.437469,17.489067 
	C75.348366,16.234180 75.234367,14.489942 74.723000,14.364410 
	C71.873192,13.664825 68.779945,12.583834 66.049576,13.103217 
	C62.267887,13.822583 61.556965,17.447811 61.338280,21.080093 
	C61.079498,21.472137 61.010044,21.728008 60.709450,22.084593 
	C59.644615,22.370930 58.870323,22.572681 58.054657,22.362545 
	C57.416046,17.876345 58.400860,14.315784 61.432987,11.420071 
	C61.886395,11.170955 62.339802,10.921839 63.209503,10.344847 
	C64.139267,9.702427 64.652740,9.387883 65.599739,9.071998 
	C69.346489,9.410728 72.659721,9.750800 76.153351,10.310455 
	C76.835381,10.783837 77.336998,11.037636 77.966904,11.497897 
	C78.475471,12.007231 78.855743,12.310101 79.233475,12.631804 
	C79.230934,12.650636 79.268822,12.653392 79.492874,12.945463 
	C81.068718,14.183403 82.313652,15.689721 83.792046,15.971591 
	C88.502251,16.869637 91.972092,19.202244 94.501228,23.250923 
	C95.322083,24.564964 96.742340,25.504568 97.888420,26.615442 
z"/>
<path fill="#354855" opacity="1.000000" stroke="none" 
	d="
M26.992476,98.139709 
	C23.046616,97.695663 20.330379,95.950043 18.991179,91.889915 
	C18.300905,89.797180 16.852280,87.582054 15.105581,86.285255 
	C11.051645,83.275513 8.681260,79.335045 7.118451,74.176636 
	C7.044202,73.075211 6.980695,72.515480 6.917188,71.955757 
	C6.913679,71.534454 6.910169,71.113159 6.918964,70.022934 
	C6.319118,68.216537 5.706966,67.079071 5.094815,65.941605 
	C4.361184,61.583744 3.627553,57.225887 3.280123,52.425789 
	C4.159341,52.004566 4.652359,52.025578 5.165565,52.482697 
	C6.918355,60.661781 8.626660,68.410408 10.423859,76.138367 
	C10.590359,76.854301 11.321695,77.438889 11.937534,78.393951 
	C13.491589,80.076187 15.002145,81.360237 16.278065,82.845795 
	C17.644726,84.436996 18.790464,86.217949 20.058395,88.225456 
	C20.607658,89.365822 21.131147,90.196823 21.823448,91.278214 
	C22.567995,92.080444 23.143730,92.632271 23.850616,93.447144 
	C25.031872,94.545403 26.081974,95.380630 27.096050,96.696732 
	C27.037506,97.498322 27.014990,97.819016 26.992476,98.139709 
z"/>
<path fill="#414D59" opacity="1.000000" stroke="none" 
	d="
M5.145377,52.046593 
	C4.652359,52.025578 4.159341,52.004566 3.295255,51.975517 
	C6.016145,45.883900 6.003178,39.140953 7.359034,32.683643 
	C8.139884,28.964819 12.025424,25.897890 14.839767,22.685209 
	C15.599895,23.648504 16.033724,24.464119 16.467554,25.279734 
	C11.472046,29.157764 9.760077,34.333450 10.334369,40.483379 
	C10.481948,42.063755 10.271903,43.677528 9.877346,45.774902 
	C8.749869,47.195976 7.971197,48.118103 6.919447,49.207039 
	C6.146039,50.264759 5.645708,51.155674 5.145377,52.046593 
z"/>
<path fill="#3A4754" opacity="1.000000" stroke="none" 
	d="
M16.783226,25.165895 
	C16.033724,24.464119 15.599895,23.648504 15.107168,22.490734 
	C15.286864,21.919294 15.513288,21.678564 16.174292,21.091213 
	C17.766792,19.194977 18.912542,17.633913 20.058294,16.072851 
	C20.058294,16.072851 20.023880,16.038412 20.354080,15.995943 
	C21.482134,15.327288 22.279987,14.701101 23.077839,14.074914 
	C23.798687,14.038359 24.519535,14.001804 25.921871,13.907534 
	C27.412724,13.245909 28.222088,12.642001 29.031450,12.038094 
	C29.031450,12.038093 29.000969,12.000631 29.324371,11.946863 
	C30.430799,11.589782 31.213825,11.286469 32.195374,11.178507 
	C32.675232,11.616106 32.956562,11.858356 33.237896,12.100604 
	C31.499235,13.443909 29.948065,15.438503 27.985352,16.003519 
	C22.908718,17.464952 19.536875,20.605291 16.783226,25.165895 
z"/>
<path fill="#34414D" opacity="1.000000" stroke="none" 
	d="
M61.171700,11.182234 
	C58.400860,14.315784 57.416046,17.876345 58.025009,22.649851 
	C58.022732,23.541079 58.008724,23.733114 57.776901,23.985971 
	C56.780552,23.697140 56.002022,23.347488 55.223488,22.997837 
	C53.884121,19.157572 52.544754,15.317307 51.415176,11.108835 
	C52.156384,10.765470 52.687801,10.790313 53.696281,11.173200 
	C55.166153,13.894204 56.475487,13.839280 58.149654,11.786600 
	C58.530373,11.032216 58.775387,10.525245 59.020401,10.018272 
	C59.650406,10.326981 60.280411,10.635689 61.171700,11.182234 
z"/>
<path fill="#384450" opacity="1.000000" stroke="none" 
	d="
M97.873322,26.229889 
	C96.742340,25.504568 95.322083,24.564964 94.501228,23.250923 
	C91.972092,19.202244 88.502251,16.869637 83.792046,15.971591 
	C82.313652,15.689721 81.068718,14.183403 79.935226,12.770904 
	C80.452194,12.197993 80.750877,12.091712 81.285583,12.251446 
	C83.370461,12.987700 85.219337,13.457941 87.068207,13.928183 
	C88.128624,14.302342 89.189041,14.676502 90.660416,15.425284 
	C92.350296,16.874163 93.629227,17.948420 94.908157,19.022675 
	C95.197403,19.496254 95.486656,19.969835 95.904404,20.688095 
	C96.641335,22.569962 97.249786,24.207151 97.873322,26.229889 
z"/>
<path fill="#46525E" opacity="1.000000" stroke="none" 
	d="
M81.049568,11.985432 
	C80.750877,12.091712 80.452194,12.197993 79.711166,12.478832 
	C79.268822,12.653392 79.230934,12.650636 79.276596,12.386209 
	C78.827721,11.844998 78.333168,11.568215 77.838615,11.291432 
	C77.336998,11.037636 76.835381,10.783837 76.008102,9.973568 
	C72.211555,5.471600 68.072609,6.993935 63.745655,8.165101 
	C63.160191,8.580586 62.827091,8.820488 62.493992,9.060390 
	C60.418060,6.653442 62.690910,6.419815 64.134796,5.859868 
	C69.901260,3.623597 78.197647,6.087903 82.556778,11.677150 
	C81.916916,11.993363 81.483246,11.989398 81.049568,11.985432 
z"/>
<path fill="#3B4652" opacity="1.000000" stroke="none" 
	d="
M33.554180,11.931120 
	C32.956562,11.858356 32.675232,11.616106 32.456223,10.987826 
	C34.012436,9.401256 35.506325,8.200716 37.000210,7.000177 
	C38.752537,6.715338 40.504868,6.430498 42.955269,6.243058 
	C46.111191,6.879114 48.569042,7.417770 51.026894,7.956426 
	C51.260590,8.661401 51.494286,9.366376 51.723988,10.445671 
	C45.631214,8.500241 39.632881,7.894986 33.554180,11.931120 
z"/>
<path fill="#38505E" opacity="1.000000" stroke="none" 
	d="
M27.205952,98.378647 
	C27.014990,97.819016 27.037506,97.498322 27.484516,96.770233 
	C31.603319,98.616516 35.297630,100.870186 38.997356,103.446228 
	C39.016464,104.199013 39.030159,104.629433 39.043858,105.059845 
	C38.539177,105.272095 38.034496,105.484344 37.254078,105.724731 
	C36.212879,105.198814 35.447418,104.644760 34.386257,104.043777 
	C31.866846,102.203773 29.643135,100.410683 27.205952,98.378647 
z"/>
<path fill="#4E5864" opacity="1.000000" stroke="none" 
	d="
M36.734501,6.889311 
	C35.506325,8.200716 34.012436,9.401256 32.257702,10.792476 
	C31.213825,11.286469 30.430799,11.589782 29.341427,11.964269 
	C31.512985,10.283111 33.990891,8.530778 36.734501,6.889311 
z"/>
<path fill="#4C5762" opacity="1.000000" stroke="none" 
	d="
M50.851624,7.662183 
	C48.569042,7.417770 46.111191,6.879114 43.327003,6.166759 
	C45.559235,6.451354 48.117794,6.909647 50.851624,7.662183 
z"/>
<path fill="#42515D" opacity="1.000000" stroke="none" 
	d="
M94.873146,18.669529 
	C93.629227,17.948420 92.350296,16.874163 90.992424,15.492160 
	C92.221695,16.228403 93.529915,17.272392 94.873146,18.669529 
z"/>
<path fill="#42515D" opacity="1.000000" stroke="none" 
	d="
M81.285583,12.251446 
	C81.483246,11.989398 81.916916,11.993363 82.676315,11.998434 
	C84.230721,12.460252 85.459419,12.920965 86.878159,13.654930 
	C85.219337,13.457941 83.370461,12.987700 81.285583,12.251446 
z"/>
<path fill="#4E5864" opacity="1.000000" stroke="none" 
	d="
M19.731218,16.160944 
	C18.912542,17.633913 17.766792,19.194977 16.325415,20.895351 
	C17.154573,19.439455 18.279358,17.844246 19.731218,16.160944 
z"/>
<path fill="#3B4652" opacity="1.000000" stroke="none" 
	d="
M58.013954,12.034012 
	C56.475487,13.839280 55.166153,13.894204 54.090313,11.238863 
	C54.449963,10.959958 54.892635,10.973433 55.896309,11.165691 
	C56.976189,11.574321 57.495071,11.804166 58.013954,12.034012 
z"/>
<path fill="#485560" opacity="1.000000" stroke="none" 
	d="
M5.087111,66.293503 
	C5.706966,67.079071 6.319118,68.216537 6.924223,69.706985 
	C6.304587,68.921776 5.691997,67.783592 5.087111,66.293503 
z"/>
<path fill="#4E5864" opacity="1.000000" stroke="none" 
	d="
M28.712896,12.078186 
	C28.222088,12.642001 27.412724,13.245909 26.281784,13.880838 
	C26.771585,13.314000 27.582964,12.716139 28.712896,12.078186 
z"/>
<path fill="#4C5762" opacity="1.000000" stroke="none" 
	d="
M58.149654,11.786600 
	C57.495071,11.804166 56.976189,11.574321 56.228317,11.175629 
	C56.791443,10.697418 57.583549,10.388053 58.698029,10.048481 
	C58.775387,10.525245 58.530373,11.032216 58.149654,11.786600 
z"/>
<path fill="#4E5864" opacity="1.000000" stroke="none" 
	d="
M22.770744,14.141313 
	C22.279987,14.701101 21.482134,15.327288 20.368654,16.006750 
	C20.856567,15.442588 21.660107,14.825150 22.770744,14.141313 
z"/>
<path fill="#485560" opacity="1.000000" stroke="none" 
	d="
M6.725736,72.059021 
	C6.980695,72.515480 7.044202,73.075211 7.011205,73.829208 
	C6.787895,73.403084 6.661089,72.782692 6.725736,72.059021 
z"/>
<path fill="#34414D" opacity="1.000000" stroke="none" 
	d="
M62.623566,9.353275 
	C62.827091,8.820488 63.160191,8.580586 63.931580,8.355256 
	C64.635315,8.604332 64.900764,8.838837 65.166214,9.073340 
	C64.652740,9.387883 64.139267,9.702427 63.335739,10.116482 
	C62.948162,10.026048 62.850651,9.836104 62.623566,9.353275 
z"/>
<path fill="#345564" opacity="1.000000" stroke="none" 
	d="
M104.962997,74.989174 
	C105.618782,79.906525 100.990646,80.912849 98.633820,83.620499 
	C96.760307,85.772881 94.528931,87.886047 93.492561,90.437485 
	C91.408508,95.568192 87.453339,98.053185 82.044449,99.768021 
	C80.936394,99.128166 80.445183,98.519722 80.082108,97.661110 
	C80.869469,97.083069 81.528687,96.755203 82.535767,96.392738 
	C83.941422,95.945343 84.999229,95.532555 86.363579,94.970764 
	C88.652557,91.705963 90.582329,88.554672 92.645386,85.493195 
	C93.388329,84.390717 94.269653,83.114769 95.400223,82.586250 
	C100.379227,80.258728 103.203690,76.635109 103.398148,71.141098 
	C104.066620,72.507088 104.514809,73.748131 104.962997,74.989174 
z"/>
<path fill="#3B5664" opacity="1.000000" stroke="none" 
	d="
M62.998062,104.946579 
	C61.809212,104.480476 60.647232,103.725349 59.425598,103.611763 
	C57.254307,103.409866 55.015797,103.377640 52.863331,103.682907 
	C50.735180,103.984718 48.678669,104.791656 46.286392,104.920746 
	C45.983845,104.049294 45.985645,103.634102 46.328934,103.097748 
	C49.523346,100.642776 52.376266,98.308968 55.448528,95.967880 
	C55.667866,95.960594 56.106689,95.969879 56.408203,96.105583 
	C58.805656,98.499092 60.901600,100.756897 62.995232,103.337036 
	C62.994633,104.088440 62.996349,104.517509 62.998062,104.946579 
z"/>
<path fill="#415B69" opacity="1.000000" stroke="none" 
	d="
M63.355232,105.145798 
	C62.996349,104.517509 62.994633,104.088440 63.445076,103.292587 
	C68.506424,102.944962 73.357979,104.061462 77.348923,99.912254 
	C78.151237,99.231613 78.674110,98.655113 79.386124,98.036270 
	C79.575249,97.993927 79.953964,97.911285 79.953964,97.911285 
	C80.445183,98.519722 80.936394,99.128166 81.699463,99.863800 
	C77.307678,106.627419 70.736382,106.758125 63.355232,105.145798 
z"/>
<path fill="#435866" opacity="1.000000" stroke="none" 
	d="
M105.220016,74.823044 
	C104.514809,73.748131 104.066620,72.507088 103.344543,70.720276 
	C102.853516,69.082115 102.636368,67.989723 102.496567,66.571075 
	C103.321335,65.151436 104.068756,64.058044 105.034729,62.748314 
	C105.560760,61.784439 105.868248,61.036911 106.403137,60.009102 
	C106.912819,58.811920 107.195107,57.895020 107.477402,56.978119 
	C107.979301,58.093716 108.481201,59.209309 108.993210,60.649620 
	C108.409767,64.328255 107.912148,67.703491 107.174011,71.025269 
	C106.891052,72.298637 106.058929,73.449974 105.220016,74.823044 
z"/>
<path fill="#38505E" opacity="1.000000" stroke="none" 
	d="
M45.987442,103.218910 
	C45.985645,103.634102 45.983845,104.049294 45.976891,104.777298 
	C44.578815,105.099983 43.185894,105.109863 41.388046,104.822273 
	C40.992458,104.146706 41.001797,103.768616 41.425987,103.370987 
	C43.223038,103.307274 44.605240,103.263092 45.987442,103.218910 
z"/>
<path fill="#3B5664" opacity="1.000000" stroke="none" 
	d="
M41.011139,103.390518 
	C41.001797,103.768616 40.992458,104.146706 40.969620,104.809937 
	C40.530972,105.087921 40.105831,105.080765 39.362274,105.066727 
	C39.030159,104.629433 39.016464,104.199013 39.340694,103.426857 
	C40.122791,103.186913 40.566967,103.288719 41.011139,103.390518 
z"/>
<path fill="#B2C9D4" opacity="1.000000" stroke="none" 
	d="
M99.058380,41.559433 
	C99.058380,41.559433 99.062561,41.644695 99.018326,41.620010 
	C101.210037,44.186264 103.445992,46.777195 105.442497,49.751621 
	C104.441788,50.764870 103.680527,51.394623 102.617737,51.965332 
	C101.547081,51.610088 100.777962,51.313885 100.014671,50.809509 
	C100.020508,50.601330 100.043007,50.185417 100.107330,49.812305 
	C98.010468,47.711239 95.849274,45.983288 93.483917,43.983238 
	C92.214012,41.295162 91.148277,38.879185 90.356415,36.538094 
	C91.442009,36.163124 92.253723,35.713272 93.227669,35.263000 
	C93.389893,35.262585 93.680115,35.117546 93.716202,35.512520 
	C93.953140,39.263386 95.402718,41.446957 99.058380,41.559433 
z"/>
<path fill="#A7CFDD" opacity="1.000000" stroke="none" 
	d="
M102.919266,52.024376 
	C103.680527,51.394623 104.441788,50.764870 105.510628,50.080612 
	C106.344490,52.071682 106.870781,54.117252 107.437241,56.570473 
	C107.195107,57.895020 106.912819,58.811920 106.235153,59.762867 
	C105.072968,59.199955 104.306152,58.602997 103.411774,57.655659 
	C103.177422,56.570782 103.070648,55.836292 103.040695,54.848244 
	C103.051422,53.737919 102.985344,52.881149 102.919266,52.024376 
z"/>
<path fill="#BBD3E0" opacity="1.000000" stroke="none" 
	d="
M46.036671,18.168032 
	C46.502014,19.337124 46.967354,20.506216 47.597710,22.183184 
	C43.983994,26.176325 45.134747,30.686296 45.142189,35.371727 
	C44.700809,37.800457 44.326958,39.830109 43.583817,41.901802 
	C34.594284,45.405312 33.145229,47.521633 32.652279,57.011154 
	C31.572433,57.388424 30.794128,57.684017 29.932102,57.572857 
	C28.664928,56.440815 27.514254,55.160553 26.292233,55.088383 
	C21.544094,54.807964 16.773291,54.911339 12.002550,54.509918 
	C12.009633,53.424042 12.025087,52.700127 12.493580,51.865711 
	C18.442726,51.755207 23.938837,51.755207 29.524643,51.755207 
	C29.741312,48.701595 29.902460,46.430473 30.418022,44.123428 
	C32.534801,43.104900 34.297165,42.122292 36.424419,41.114685 
	C39.678284,40.448608 41.607700,39.099545 40.834732,35.328690 
	C40.861614,33.431953 40.816917,31.910320 40.842552,30.012333 
	C40.313812,27.631346 39.948498,25.516140 39.064125,23.646452 
	C37.506287,20.352980 37.842575,19.410183 41.190796,19.354864 
	C41.489613,20.660994 41.866589,21.617405 42.243565,22.573814 
	C42.896832,22.296453 44.135303,21.916813 44.107628,21.758453 
	C43.938034,20.788046 43.481712,19.867750 43.173996,18.638325 
	C44.163628,18.286602 45.100151,18.227318 46.036671,18.168032 
z"/>
<path fill="#44525E" opacity="1.000000" stroke="none" 
	d="
M19.982975,29.285429 
	C21.639866,24.758684 24.405556,21.344782 29.812641,20.275925 
	C32.125824,21.331976 33.893803,22.146826 36.197594,23.208626 
	C34.050735,23.906979 32.531734,24.401096 30.690195,24.968452 
	C29.928072,25.060324 29.488485,25.078957 28.810844,25.045776 
	C28.069921,25.548536 27.567053,26.103107 27.026304,26.976456 
	C26.372263,32.913185 27.425129,34.066387 32.836304,34.177845 
	C29.831179,36.320076 26.962471,38.134258 23.831261,39.962128 
	C23.218824,39.991863 22.868889,40.007915 22.577972,39.676624 
	C22.606750,38.868790 22.576511,38.408295 22.429325,37.594070 
	C21.255243,36.843517 20.198111,36.446701 18.821266,35.986443 
	C13.300441,32.439445 20.170881,31.650105 19.982975,29.285429 
z"/>
<path fill="#364654" opacity="1.000000" stroke="none" 
	d="
M31.012732,24.895212 
	C32.531734,24.401096 34.050735,23.906979 36.197594,23.208626 
	C33.893803,22.146826 32.125824,21.331976 30.172096,20.220669 
	C31.531614,18.953108 33.437447,18.283476 34.551132,16.951513 
	C37.330803,13.627050 40.554241,11.400074 44.915787,12.562414 
	C47.217628,13.175849 50.115990,14.629531 46.252914,17.870752 
	C45.100151,18.227318 44.163628,18.286602 42.865353,18.646114 
	C42.092052,18.965942 41.680504,18.985544 41.268959,19.005146 
	C37.842575,19.410183 37.506287,20.352980 39.064125,23.646452 
	C39.948498,25.516140 40.313812,27.631346 40.526489,29.770813 
	C39.736435,29.561762 39.332779,29.217878 38.930717,28.700190 
	C38.932320,28.526382 38.929989,28.176100 38.757256,27.891872 
	C37.446537,27.810179 36.308548,28.012711 34.958832,27.945381 
	C33.502316,26.748749 32.257523,25.821981 31.012732,24.895212 
z"/>
<path fill="#46525D" opacity="1.000000" stroke="none" 
	d="
M45.209724,34.972641 
	C45.134747,30.686296 43.983994,26.176325 47.881638,22.342457 
	C51.269791,21.768742 50.876896,24.129047 51.285534,26.245485 
	C51.569038,27.713837 52.734692,29.011862 53.506210,30.385986 
	C54.006611,29.020687 54.592144,27.678629 54.973640,26.280880 
	C55.183243,25.512928 55.049152,24.651171 55.146759,23.414772 
	C56.002022,23.347488 56.780552,23.697140 57.818779,24.344433 
	C58.720665,27.094179 59.362854,29.546286 59.732460,32.005070 
	C59.053890,32.364353 58.647903,32.716953 57.912937,33.138424 
	C56.387264,33.805607 55.190571,34.403915 53.712719,34.827026 
	C51.793816,33.614132 50.156071,32.576439 49.007290,31.848555 
	C47.450104,33.129578 46.329914,34.051109 45.209724,34.972641 
M48.523098,29.495564 
	C48.523098,29.495564 48.484028,29.509180 48.523098,29.495564 
z"/>
<path fill="#394855" opacity="1.000000" stroke="none" 
	d="
M22.518955,40.023968 
	C22.868889,40.007915 23.218824,39.991863 23.727444,40.299629 
	C22.339035,42.959557 20.791941,45.295666 19.123360,47.815220 
	C25.401609,50.733208 26.320778,45.165222 29.284115,43.176643 
	C29.657076,43.627632 29.860342,43.893490 30.063608,44.159351 
	C29.902460,46.430473 29.741312,48.701595 29.524643,51.755207 
	C23.938837,51.755207 18.442726,51.755207 12.556787,51.786293 
	C12.166957,51.817375 12.107974,51.622593 12.077291,51.318314 
	C11.987905,50.610748 11.929198,50.207470 11.889060,49.515083 
	C11.949206,48.842434 11.990784,48.458897 12.032362,48.075356 
	C14.610628,46.329456 17.188896,44.583561 20.245876,42.421284 
	C21.322712,41.344593 21.920834,40.684280 22.518955,40.023968 
z"/>
<path fill="#3C4B58" opacity="1.000000" stroke="none" 
	d="
M19.615673,29.232250 
	C20.170881,31.650105 13.300441,32.439445 18.729803,36.307274 
	C18.925585,37.129040 18.893114,37.566532 18.736633,38.247414 
	C18.382406,38.984249 18.152185,39.477699 17.921967,39.971149 
	C17.146767,40.330917 16.371569,40.690681 14.953007,41.172634 
	C14.081964,41.239677 13.854286,41.184528 13.626609,41.129375 
	C14.121995,38.110680 14.268949,34.969234 15.269649,32.128548 
	C15.724168,30.838305 17.869839,30.143808 19.615673,29.232250 
z"/>
<path fill="#B9CDD9" opacity="1.000000" stroke="none" 
	d="
M11.870454,47.841072 
	C11.990784,48.458897 11.949206,48.842434 11.596090,49.592556 
	C10.887863,50.034031 10.491174,50.108929 9.837297,49.999008 
	C8.784250,49.556206 7.988388,49.298218 7.192525,49.040234 
	C7.971197,48.118103 8.749869,47.195976 9.807766,46.148350 
	C10.627509,46.550827 11.168027,47.078804 11.870454,47.841072 
z"/>
<path fill="#B9CDD9" opacity="1.000000" stroke="none" 
	d="
M18.213680,40.122997 
	C18.152185,39.477699 18.382406,38.984249 19.196238,38.248695 
	C20.701992,37.987000 21.624132,37.967403 22.546274,37.947807 
	C22.576511,38.408295 22.606750,38.868790 22.577971,39.676624 
	C21.920834,40.684280 21.322712,41.344593 20.419037,42.145294 
	C19.577454,41.615406 19.041424,40.945126 18.213680,40.122997 
z"/>
<path fill="#B9CDD9" opacity="1.000000" stroke="none" 
	d="
M13.493479,41.263748 
	C13.854286,41.184528 14.081964,41.239677 14.660519,41.314392 
	C14.477228,41.725883 13.943061,42.117813 13.408895,42.509739 
	C13.392713,42.139198 13.376531,41.768661 13.493479,41.263748 
z"/>
<path fill="#3E4855" opacity="1.000000" stroke="none" 
	d="
M60.005043,31.998392 
	C59.362854,29.546286 58.720665,27.094179 58.036598,24.283611 
	C58.008724,23.733114 58.022732,23.541079 58.066387,23.061737 
	C58.870323,22.572681 59.644615,22.370930 60.779510,22.382061 
	C61.225677,24.250637 61.311245,25.906326 61.405876,27.737429 
	C63.277935,27.039650 64.628090,26.536404 66.155701,26.260450 
	C67.065613,27.341133 67.798080,28.194519 68.588081,29.410086 
	C68.605675,30.501318 68.565727,31.230368 68.207535,31.946922 
	C66.258644,32.621769 64.627991,33.309109 62.916428,34.352104 
	C62.557499,36.138752 62.279484,37.569748 61.865799,39.274437 
	C61.187038,40.399429 60.643955,41.250725 59.877785,42.061241 
	C59.654701,42.020458 59.203594,41.973320 59.183685,41.567966 
	C59.444199,38.107872 59.724621,35.053131 60.005043,31.998392 
z"/>
<path fill="#384A57" opacity="1.000000" stroke="none" 
	d="
M61.468197,20.927792 
	C61.556965,17.447811 62.267887,13.822583 66.049576,13.103217 
	C68.779945,12.583834 71.873192,13.664825 74.723000,14.364410 
	C75.234367,14.489942 75.348366,16.234180 75.318047,17.610088 
	C74.990257,17.989130 74.759865,18.239229 74.413986,18.185150 
	C73.374031,18.047886 72.679955,17.964703 71.901367,17.603104 
	C70.861038,17.474779 69.905235,17.624868 68.622841,17.868341 
	C66.966118,18.613110 65.635986,19.264496 63.954880,20.052723 
	C62.892010,20.435640 62.180103,20.681715 61.468197,20.927792 
z"/>
<path fill="#3D4B57" opacity="1.000000" stroke="none" 
	d="
M75.109680,17.868111 
	C78.955826,18.707682 82.761452,19.447159 86.371254,20.735374 
	C87.859657,21.266533 88.927307,22.976734 89.754868,24.547787 
	C87.764885,25.158819 86.206360,25.372728 84.628448,25.584702 
	C84.609077,25.582764 84.615807,25.544382 84.558479,25.230061 
	C83.334999,24.930788 82.168854,24.945835 80.695381,25.069267 
	C79.953911,25.194988 79.519768,25.212320 78.945145,24.935186 
	C77.372101,23.736942 75.939514,22.833166 74.556946,21.562111 
	C74.657928,20.209631 74.708893,19.224430 74.759865,18.239229 
	C74.759865,18.239229 74.990257,17.989130 75.109680,17.868111 
z"/>
<path fill="#434E5B" opacity="1.000000" stroke="none" 
	d="
M93.680115,35.117546 
	C93.680115,35.117546 93.389893,35.262585 93.166809,34.885498 
	C91.277946,33.320072 89.612160,32.131729 88.039795,30.606701 
	C89.199432,28.805346 90.265656,27.340675 91.331879,25.876005 
	C93.176796,27.688742 95.021713,29.501476 96.654587,31.841545 
	C95.521744,33.285099 94.600929,34.201324 93.680115,35.117546 
z"/>
<path fill="#31404D" opacity="1.000000" stroke="none" 
	d="
M93.716202,35.512524 
	C94.600929,34.201324 95.521744,33.285099 96.711182,32.186516 
	C97.768875,34.900291 98.557930,37.796432 99.202682,41.126007 
	C95.402718,41.446957 93.953140,39.263386 93.716202,35.512524 
z"/>
<path fill="#46525D" opacity="1.000000" stroke="none" 
	d="
M61.338280,21.080093 
	C62.180103,20.681715 62.892010,20.435640 64.255798,20.222036 
	C65.314186,21.730318 65.720688,23.206127 66.088409,25.019569 
	C66.025826,25.582521 66.002037,25.807838 65.978241,26.033154 
	C64.628090,26.536404 63.277935,27.039650 61.405876,27.737429 
	C61.311245,25.906326 61.225677,24.250637 61.070053,22.297478 
	C61.010044,21.728008 61.079498,21.472137 61.338280,21.080093 
z"/>
<path fill="#384450" opacity="1.000000" stroke="none" 
	d="
M65.599739,9.071999 
	C64.900764,8.838837 64.635315,8.604332 64.183945,8.179672 
	C68.072609,6.993935 72.211555,5.471600 75.827698,9.753984 
	C72.659721,9.750800 69.346489,9.410728 65.599739,9.071999 
z"/>
<path fill="#344450" opacity="1.000000" stroke="none" 
	d="
M91.244751,25.630852 
	C90.265656,27.340675 89.199432,28.805346 87.799210,30.622383 
	C87.465195,30.974747 86.983200,31.008118 86.882111,30.688522 
	C86.069946,28.774834 85.358887,27.180737 84.647827,25.586639 
	C86.206360,25.372728 87.764885,25.158819 89.795753,24.917513 
	C90.564598,25.055313 90.861107,25.220507 91.244751,25.630852 
z"/>
<path fill="#384450" opacity="1.000000" stroke="none" 
	d="
M77.966904,11.497896 
	C78.333168,11.568215 78.827721,11.844998 79.279144,12.367376 
	C78.855743,12.310101 78.475471,12.007231 77.966904,11.497896 
z"/>
<path fill="#A9D7E3" opacity="1.000000" stroke="none" 
	d="
M30.015823,57.979614 
	C30.794128,57.684017 31.572433,57.388424 32.829887,57.219131 
	C34.159370,57.146996 35.009708,56.948551 35.897217,57.165901 
	C35.941250,58.972149 35.948109,60.362606 35.708855,61.651424 
	C34.974281,61.430782 34.485825,61.311775 33.738625,61.216473 
	C33.410343,61.719067 33.340801,62.197960 33.196259,62.793015 
	C33.064110,63.191715 33.106247,63.454418 33.301025,63.898975 
	C33.354385,64.100670 33.758312,63.996017 33.492783,64.268707 
	C33.257065,69.874229 33.286877,75.207062 33.171707,80.867958 
	C32.668846,82.083153 32.310974,82.970284 31.525570,83.912247 
	C28.593111,83.967087 26.088188,83.967087 23.583265,83.967087 
	C23.519241,84.375099 23.455215,84.783112 23.391191,85.191124 
	C24.586424,85.787170 25.781654,86.383217 27.014652,87.253296 
	C27.101358,87.705116 27.150301,87.882912 27.105671,88.445351 
	C27.027649,89.876930 27.043198,90.923866 26.713715,92.058884 
	C25.485611,92.492683 24.602539,92.838394 23.719465,93.184105 
	C23.143730,92.632271 22.567995,92.080444 21.760300,90.985542 
	C21.029770,89.600342 20.531199,88.758217 20.032627,87.916084 
	C18.790464,86.217949 17.644726,84.436996 16.278065,82.845795 
	C15.002145,81.360237 13.491589,80.076187 12.139498,78.131531 
	C12.489243,76.968979 12.783796,76.378342 13.385742,75.948090 
	C17.347841,78.868301 20.581354,82.916817 26.402094,80.217682 
	C29.599243,81.684845 29.746370,79.656815 29.745481,77.804840 
	C29.742489,71.570930 29.635141,65.337090 29.701221,58.830887 
	C29.895094,58.365574 29.955458,58.172596 30.015823,57.979614 
z"/>
<path fill="#8DC6D4" opacity="1.000000" stroke="none" 
	d="
M23.850616,93.447144 
	C24.602539,92.838394 25.485611,92.492683 27.065720,92.140762 
	C32.436546,94.713112 37.110336,97.291664 42.668266,100.357994 
	C42.421585,96.722542 42.295452,94.863632 42.617966,92.995125 
	C44.261806,92.928131 45.457001,92.870743 46.732208,93.131668 
	C47.547485,94.591362 48.282749,95.732735 49.361687,96.777702 
	C51.453106,96.165390 53.200844,95.649490 54.999680,95.350334 
	C55.050781,95.567085 55.229195,95.975166 55.229195,95.975159 
	C52.376266,98.308968 49.523346,100.642776 46.328934,103.097748 
	C44.605240,103.263092 43.223038,103.307274 41.425987,103.370987 
	C40.566967,103.288719 40.122791,103.186913 39.335281,103.104492 
	C35.297630,100.870186 31.603319,98.616516 27.520542,96.289345 
	C26.081974,95.380630 25.031872,94.545403 23.850616,93.447144 
z"/>
<path fill="#AFCFDB" opacity="1.000000" stroke="none" 
	d="
M13.078350,75.787712 
	C12.783796,76.378342 12.489243,76.968979 11.992725,77.822037 
	C11.321695,77.438889 10.590359,76.854301 10.423859,76.138367 
	C8.626660,68.410408 6.918355,60.661781 5.165565,52.482697 
	C5.645708,51.155674 6.146039,50.264759 6.919448,49.207039 
	C7.988388,49.298218 8.784250,49.556206 9.866678,50.313187 
	C10.804821,51.082317 11.456398,51.352455 12.107974,51.622593 
	C12.107974,51.622593 12.166957,51.817375 12.103750,51.896797 
	C12.025087,52.700127 12.009633,53.424042 11.613707,54.567707 
	C6.174609,56.773056 10.029080,59.103874 11.002329,61.570267 
	C13.957142,62.934494 16.702978,64.196259 19.582232,64.944893 
	C21.546000,65.455490 24.159342,64.559883 23.647322,68.057938 
	C22.846878,68.220703 22.391788,68.323303 21.516056,68.339218 
	C18.179081,68.765289 14.082447,66.087097 12.843848,71.073158 
	C12.480696,72.535042 12.976322,74.210266 13.078350,75.787712 
z"/>
<path fill="#38505E" opacity="1.000000" stroke="none" 
	d="
M20.058399,88.225456 
	C20.531199,88.758217 21.029770,89.600342 21.591488,90.735153 
	C21.131147,90.196823 20.607658,89.365822 20.058399,88.225456 
z"/>
<path fill="#8EC4D1" opacity="1.000000" stroke="none" 
	d="
M102.419220,66.897324 
	C102.636368,67.989723 102.853516,69.082115 103.124268,70.595337 
	C103.203690,76.635109 100.379227,80.258728 95.400223,82.586250 
	C94.269653,83.114769 93.388329,84.390717 92.645386,85.493195 
	C90.582329,88.554672 88.652557,91.705963 86.162811,94.742760 
	C85.095001,94.079453 84.534515,93.495155 84.137512,92.665306 
	C84.911919,91.659637 85.522850,90.899521 86.123428,90.121384 
	C86.113083,90.103363 86.099525,90.139069 86.409592,89.956177 
	C87.558800,87.816086 88.397942,85.858879 89.522072,83.236954 
	C86.587143,83.236954 84.809380,83.236954 82.710564,83.250168 
	C81.595390,83.512070 80.801270,83.760773 79.904007,83.724846 
	C79.470428,82.935692 79.139992,82.431160 78.878006,81.683624 
	C79.025345,81.291977 79.104248,81.143318 79.435623,80.816399 
	C80.288719,80.071121 80.889343,79.504097 81.510895,78.936363 
	C81.531815,78.935654 81.525276,78.976997 81.762192,79.064484 
	C82.486702,79.094322 82.974297,79.036667 83.537460,78.932602 
	C83.613045,78.886177 83.778488,78.950195 84.192078,79.053116 
	C88.851639,80.470558 92.966049,81.060562 96.435005,76.991776 
	C96.880737,76.804604 97.023895,76.592995 97.412369,76.110138 
	C98.162567,73.302170 98.556259,70.690231 99.211975,67.916611 
	C100.455742,67.469063 101.437477,67.183189 102.419220,66.897324 
z"/>
<path fill="#8EC4D1" opacity="1.000000" stroke="none" 
	d="
M80.082108,97.661110 
	C79.953964,97.911285 79.575249,97.993927 78.868782,97.942047 
	C77.474281,97.755295 76.786247,97.620422 76.286606,97.185333 
	C77.974464,95.890396 79.473930,94.895676 81.125305,94.216660 
	C81.580780,95.164017 81.884346,95.795685 82.187912,96.427345 
	C81.528687,96.755203 80.869469,97.083069 80.082108,97.661110 
z"/>
<path fill="#8DC6D1" opacity="1.000000" stroke="none" 
	d="
M82.535767,96.392738 
	C81.884346,95.795685 81.580780,95.164017 81.394180,94.043823 
	C82.332115,93.340477 83.153069,93.125671 83.974030,92.910858 
	C84.534515,93.495155 85.095001,94.079453 85.856262,94.891754 
	C84.999229,95.532555 83.941422,95.945343 82.535767,96.392738 
z"/>
<path fill="#94D0DE" opacity="1.000000" stroke="none" 
	d="
M77.069489,100.016403 
	C73.357979,104.061462 68.506424,102.944962 63.447392,102.970245 
	C60.901600,100.756897 58.805656,98.499092 56.485718,95.770660 
	C56.548283,94.214920 56.834850,93.129807 57.432167,91.822639 
	C57.883671,90.080170 58.024429,88.559753 58.433575,86.922913 
	C59.454327,86.240059 60.206696,85.673637 60.990829,85.537117 
	C61.272045,90.035782 59.860535,94.706787 65.168205,97.079056 
	C65.581718,97.097809 65.848114,97.032387 66.114510,96.966965 
	C65.818634,96.652618 65.522751,96.338280 65.285294,95.611282 
	C65.593376,90.805290 65.843056,86.411957 66.411240,81.940628 
	C67.784683,81.578094 68.839615,81.293556 69.961121,81.424301 
	C70.075241,83.241730 70.122795,84.643867 70.106064,86.463554 
	C69.694839,89.295197 69.110924,91.703064 69.047226,94.124611 
	C68.882553,100.384979 68.974220,100.387390 75.123047,98.795959 
	C75.930367,99.356110 76.499924,99.686256 77.069489,100.016403 
z"/>
<path fill="#364A56" opacity="1.000000" stroke="none" 
	d="
M57.121418,92.044693 
	C56.834850,93.129807 56.548283,94.214920 56.184204,95.634956 
	C56.106689,95.969879 55.667866,95.960594 55.448532,95.967880 
	C55.229195,95.975166 55.050781,95.567085 54.978554,95.067993 
	C52.598770,92.869949 53.978058,88.403709 49.960724,87.654427 
	C49.950504,86.882675 49.944214,86.441650 49.951645,85.581726 
	C50.606495,81.743408 51.247623,78.323990 51.898018,74.469154 
	C52.232643,70.624962 52.557995,67.216179 53.045013,63.539078 
	C53.802151,63.093445 54.397629,62.916130 55.294350,62.974991 
	C55.450394,65.468323 55.305191,67.725479 54.998421,70.347054 
	C53.922558,75.063301 53.008266,79.415131 51.939518,84.502136 
	C53.409149,83.773247 54.192513,83.384720 55.231613,83.121490 
	C55.998383,83.499847 56.509418,83.752914 57.043613,84.330261 
	C57.066673,85.087898 57.066574,85.521233 57.004711,86.077438 
	C56.859352,86.472359 56.893368,86.731277 57.034443,86.959946 
	C57.023895,86.942825 57.064194,86.943886 57.021263,87.281021 
	C57.026024,89.093666 57.073723,90.569176 57.121418,92.044693 
z"/>
<path fill="#8DC6D1" opacity="1.000000" stroke="none" 
	d="
M77.348923,99.912254 
	C76.499924,99.686256 75.930367,99.356110 75.223404,98.614891 
	C75.423409,97.964394 75.760811,97.724968 76.098213,97.485550 
	C76.786247,97.620422 77.474281,97.755295 78.679657,97.984398 
	C78.674110,98.655113 78.151237,99.231613 77.348923,99.912254 
z"/>
<path fill="#A7CFDD" opacity="1.000000" stroke="none" 
	d="
M102.496567,66.571075 
	C101.437477,67.183189 100.455742,67.469063 98.780693,67.912628 
	C96.072380,68.118546 94.057381,68.166771 91.734749,68.110764 
	C90.913147,67.672974 90.399170,67.339424 89.961670,66.733345 
	C90.061096,66.085487 90.084030,65.710152 90.527924,65.261215 
	C95.489090,65.194633 99.856148,64.748291 102.993645,60.909733 
	C103.711128,61.767487 104.263657,62.366070 104.816177,62.964657 
	C104.068756,64.058044 103.321335,65.151436 102.496567,66.571075 
z"/>
<path fill="#AED2DF" opacity="1.000000" stroke="none" 
	d="
M105.034729,62.748310 
	C104.263657,62.366070 103.711128,61.767487 103.061913,60.574142 
	C103.156601,59.321606 103.347969,58.663822 103.539345,58.006042 
	C104.306152,58.602997 105.072968,59.199955 106.007751,60.043148 
	C105.868248,61.036911 105.560760,61.784439 105.034729,62.748310 
z"/>
<path fill="#4D5762" opacity="1.000000" stroke="none" 
	d="
M86.983200,31.008118 
	C86.983200,31.008118 87.465195,30.974747 87.705780,30.959066 
	C89.612160,32.131729 91.277946,33.320072 93.004585,34.885918 
	C92.253723,35.713272 91.442009,36.163124 90.210106,36.885780 
	C89.469055,38.107407 89.148186,39.056229 88.554016,39.810169 
	C87.460106,37.602840 86.639488,35.590389 85.939888,33.319340 
	C86.368332,32.376534 86.675766,31.692324 86.983200,31.008118 
z"/>
<path fill="#374752" opacity="1.000000" stroke="none" 
	d="
M93.688080,44.255337 
	C95.849274,45.983288 98.010468,47.711239 99.754181,49.838844 
	C98.224060,50.534458 97.111420,50.830425 95.631172,51.062981 
	C94.521553,50.937508 93.779526,50.875454 93.102310,50.493336 
	C93.105591,48.455379 93.044060,46.737484 93.159348,44.828918 
	C93.453468,44.510612 93.570778,44.382973 93.688080,44.255337 
z"/>
<path fill="#B5CCD9" opacity="1.000000" stroke="none" 
	d="
M95.998772,51.126396 
	C97.111420,50.830425 98.224060,50.534458 99.689857,50.211952 
	C100.043007,50.185417 100.020508,50.601330 100.039047,51.137192 
	C100.377914,52.713406 100.698227,53.753761 100.677811,54.869450 
	C98.755608,54.895596 97.174141,54.846409 95.602531,54.427372 
	C95.741188,53.080482 95.869980,52.103439 95.998772,51.126396 
z"/>
<path fill="#374752" opacity="1.000000" stroke="none" 
	d="
M88.827316,40.005047 
	C89.148186,39.056229 89.469055,38.107407 89.936234,36.810898 
	C91.148277,38.879185 92.214012,41.295162 93.483917,43.983238 
	C93.570778,44.382973 93.453468,44.510612 92.831512,44.824459 
	C91.889465,45.004032 91.452057,44.997395 90.835037,44.701149 
	C90.046043,42.942707 89.436676,41.473877 88.827316,40.005047 
z"/>
<path fill="#AED2DF" opacity="1.000000" stroke="none" 
	d="
M101.018547,54.794113 
	C100.698227,53.753761 100.377914,52.713406 100.033218,51.345367 
	C100.777962,51.313885 101.547081,51.610088 102.617737,51.965336 
	C102.985344,52.881149 103.051422,53.737919 102.719116,54.778435 
	C101.886673,54.906155 101.452614,54.850132 101.018547,54.794113 
z"/>
<path fill="#364A58" opacity="1.000000" stroke="none" 
	d="
M100.677811,54.869450 
	C101.452614,54.850132 101.886673,54.906155 102.642311,55.031990 
	C103.070648,55.836292 103.177422,56.570782 103.411774,57.655659 
	C103.347969,58.663822 103.156601,59.321606 102.896957,60.314976 
	C99.856148,64.748291 95.489090,65.194633 90.615562,64.904724 
	C93.314476,62.690483 96.346725,60.759136 100.050819,58.399860 
	C97.717079,57.240444 96.317184,56.544975 94.986389,55.653763 
	C95.212700,55.230049 95.377945,55.008057 95.561005,54.798637 
	C95.570770,54.805237 95.592667,54.797218 95.592667,54.797218 
	C97.174141,54.846409 98.755608,54.895596 100.677811,54.869450 
z"/>
<path fill="#525C69" opacity="1.000000" stroke="none" 
	d="
M45.142189,35.371727 
	C46.329914,34.051109 47.450104,33.129578 49.007290,31.848555 
	C50.156071,32.576439 51.793816,33.614132 53.680798,35.195534 
	C51.346855,40.505363 48.393177,45.114727 46.290577,50.084187 
	C44.400948,54.550285 41.983139,55.468845 37.769455,52.851685 
	C35.549751,50.939766 34.974239,49.612022 37.723850,47.782322 
	C40.073521,46.218761 41.896923,43.864357 43.953106,41.859756 
	C44.326958,39.830109 44.700809,37.800457 45.142189,35.371727 
z"/>
<path fill="#455B68" opacity="1.000000" stroke="none" 
	d="
M10.850203,61.249142 
	C10.029080,59.103874 6.174609,56.773056 11.622080,54.929672 
	C16.773291,54.911339 21.544094,54.807964 26.292233,55.088383 
	C27.514254,55.160553 28.664928,56.440815 29.932102,57.572857 
	C29.955458,58.172596 29.895094,58.365574 29.426146,58.919769 
	C28.111423,59.603348 27.205284,59.925713 26.066490,59.917683 
	C21.796644,55.783905 17.460505,55.949451 13.617289,60.086037 
	C12.469916,60.503883 11.660059,60.876514 10.850203,61.249142 
z"/>
<path fill="#3A4F5E" opacity="1.000000" stroke="none" 
	d="
M43.583817,41.901802 
	C41.896923,43.864357 40.073521,46.218761 37.723850,47.782322 
	C34.974239,49.612022 35.549751,50.939766 37.773514,53.157150 
	C38.001167,54.302193 38.004772,54.917122 37.880882,55.558098 
	C37.753384,55.584152 37.578873,55.777069 37.166672,55.745758 
	C36.464577,56.127205 36.174683,56.539959 35.928963,56.895912 
	C35.973145,56.839111 35.860043,56.750111 35.860043,56.750111 
	C35.009708,56.948551 34.159370,57.146996 33.131428,57.137459 
	C33.145229,47.521633 34.594284,45.405312 43.583817,41.901802 
z"/>
<path fill="#364551" opacity="1.000000" stroke="none" 
	d="
M30.418022,44.123428 
	C29.860342,43.893490 29.657076,43.627632 29.454342,42.890415 
	C31.293018,41.606590 33.131161,40.794121 35.159500,40.166542 
	C35.586311,40.614189 35.822918,40.876938 36.059528,41.139687 
	C34.297165,42.122292 32.534801,43.104900 30.418022,44.123428 
z"/>
<path fill="#364654" opacity="1.000000" stroke="none" 
	d="
M36.424419,41.114689 
	C35.822918,40.876938 35.586311,40.614189 35.315788,39.987495 
	C35.499859,39.393055 35.731369,39.177071 36.265217,38.863068 
	C37.352898,37.835365 38.151760,36.920189 39.403809,35.930008 
	C40.159050,35.804600 40.461105,35.754192 40.763157,35.703785 
	C41.607700,39.099545 39.678284,40.448608 36.424419,41.114689 
z"/>
<path fill="#264653" opacity="1.000000" stroke="none" 
	d="
M41.190796,19.354864 
	C41.680504,18.985544 42.092052,18.965942 42.812241,18.938553 
	C43.481712,19.867750 43.938034,20.788046 44.107628,21.758453 
	C44.135303,21.916813 42.896832,22.296453 42.243565,22.573814 
	C41.866589,21.617405 41.489613,20.660994 41.190796,19.354864 
z"/>
<path fill="#364551" opacity="1.000000" stroke="none" 
	d="
M40.834732,35.328690 
	C40.461105,35.754192 40.159050,35.804600 39.400658,35.599068 
	C38.935310,34.902035 38.926300,34.460941 38.899380,33.654041 
	C38.588715,31.856337 38.295963,30.424438 38.001453,28.996193 
	C37.999695,28.999847 37.992851,29.004282 38.227516,28.976006 
	C38.462177,28.947731 38.929119,28.873997 38.929119,28.873997 
	C39.332779,29.217878 39.736435,29.561762 40.456154,30.147165 
	C40.816917,31.910320 40.861614,33.431953 40.834732,35.328690 
z"/>
<path fill="#54616D" opacity="1.000000" stroke="none" 
	d="
M35.976402,38.975586 
	C35.731369,39.177071 35.499859,39.393055 35.125591,39.802597 
	C33.131161,40.794121 31.293018,41.606590 29.284649,42.705288 
	C26.320778,45.165222 25.401609,50.733208 19.123360,47.815220 
	C20.791941,45.295666 22.339035,42.959557 23.989946,40.285942 
	C26.962471,38.134258 29.831179,36.320076 32.934383,33.974640 
	C33.368671,33.202423 33.620918,33.046093 34.097385,33.146164 
	C34.485836,33.558365 34.701164,33.799992 35.005417,34.393051 
	C35.389259,36.154049 35.682831,37.564816 35.976402,38.975586 
z"/>
<path fill="#A7C2D0" opacity="1.000000" stroke="none" 
	d="
M33.925617,32.974392 
	C33.620918,33.046093 33.368671,33.202423 33.070801,33.646591 
	C27.425129,34.066387 26.372263,32.913185 27.304525,26.819565 
	C28.096716,25.928459 28.572807,25.513023 29.048897,25.097588 
	C29.488485,25.078957 29.928072,25.060324 30.690195,24.968452 
	C32.257523,25.821981 33.502316,26.748749 34.941223,28.215965 
	C35.166897,29.480143 35.198456,30.203875 35.077545,31.117323 
	C34.591923,31.862825 34.258770,32.418610 33.925617,32.974392 
z"/>
<path fill="#BFCEDA" opacity="1.000000" stroke="none" 
	d="
M22.429325,37.594070 
	C21.624132,37.967403 20.701992,37.987000 19.320248,38.005310 
	C18.893114,37.566532 18.925585,37.129040 19.049519,36.370716 
	C20.198111,36.446701 21.255243,36.843517 22.429325,37.594070 
z"/>
<path fill="#364654" opacity="1.000000" stroke="none" 
	d="
M28.810844,25.045774 
	C28.572807,25.513023 28.096716,25.928459 27.342405,26.500788 
	C27.567053,26.103107 28.069921,25.548536 28.810844,25.045774 
z"/>
<path fill="#364551" opacity="1.000000" stroke="none" 
	d="
M35.230015,30.927605 
	C35.198456,30.203875 35.166897,29.480143 35.152946,28.485828 
	C36.308548,28.012711 37.446537,27.810179 38.589897,28.013672 
	C38.380123,28.599777 38.179317,28.794638 37.992851,29.004282 
	C37.992851,29.004282 37.999695,28.999847 37.742905,29.216534 
	C36.734085,29.931349 35.982048,30.429478 35.230015,30.927605 
z"/>
<path fill="#44525E" opacity="1.000000" stroke="none" 
	d="
M38.227516,28.976006 
	C38.179317,28.794638 38.380123,28.599777 38.762627,28.297897 
	C38.929989,28.176100 38.932320,28.526382 38.930717,28.700190 
	C38.929119,28.873997 38.462177,28.947731 38.227516,28.976006 
z"/>
<path fill="#3B4953" opacity="1.000000" stroke="none" 
	d="
M38.008381,55.532047 
	C38.004772,54.917122 38.001167,54.302193 37.993504,53.381798 
	C41.983139,55.468845 44.400948,54.550285 46.290577,50.084187 
	C48.393177,45.114727 51.346855,40.505363 53.961956,35.370735 
	C55.190571,34.403915 56.387264,33.805607 57.856903,33.507011 
	C56.130920,37.872356 54.131996,41.937992 52.008209,46.340897 
	C49.299122,51.818672 46.714901,56.959187 44.113735,62.133404 
	C46.064247,62.913723 47.526295,63.498627 48.882637,64.346840 
	C48.213886,65.085098 47.650833,65.560043 46.728500,66.013130 
	C45.247364,65.664886 44.125504,65.338509 42.905792,64.751488 
	C42.168953,63.319584 41.529961,62.148319 40.794529,60.625751 
	C39.801521,58.693649 38.904949,57.112850 38.008381,55.532047 
z"/>
<path fill="#C1D1DD" opacity="1.000000" stroke="none" 
	d="
M52.133072,46.003628 
	C54.131996,41.937992 56.130920,37.872356 58.185883,33.438141 
	C58.647903,32.716953 59.053890,32.364353 59.732460,32.005070 
	C59.724621,35.053131 59.444199,38.107872 59.072483,41.919472 
	C58.707539,43.803345 58.433880,44.930355 57.729256,46.045044 
	C55.576553,46.023022 53.854813,46.013325 52.133072,46.003628 
z"/>
<path fill="#525C69" opacity="1.000000" stroke="none" 
	d="
M48.503563,29.502373 
	C48.484028,29.509180 48.523098,29.495564 48.503563,29.502373 
z"/>
<path fill="#54616D" opacity="1.000000" stroke="none" 
	d="
M12.077291,51.318314 
	C11.456398,51.352455 10.804821,51.082317 10.123863,50.498001 
	C10.491174,50.108929 10.887863,50.034031 11.577522,49.881660 
	C11.929198,50.207470 11.987905,50.610748 12.077291,51.318314 
z"/>
<path fill="#B5CCD9" opacity="1.000000" stroke="none" 
	d="
M66.127190,24.681934 
	C65.720688,23.206127 65.314186,21.730318 64.606766,20.085196 
	C65.635986,19.264496 66.966118,18.613110 68.836823,17.947338 
	C69.377396,17.932955 69.725548,18.227711 69.725548,18.227711 
	C69.725548,18.227711 69.628258,18.673380 69.637733,18.917763 
	C69.549416,19.720873 69.451630,20.279600 69.353844,20.838329 
	C69.584488,20.835985 69.815132,20.833641 70.045776,20.831299 
	C69.903755,20.100122 69.761742,19.368948 69.956352,18.719225 
	C70.857277,18.494289 71.421577,18.187904 71.985878,17.881519 
	C72.679955,17.964703 73.374031,18.047886 74.413986,18.185150 
	C74.708893,19.224430 74.657928,20.209631 74.379837,21.761745 
	C74.020317,22.845425 73.887909,23.362194 73.559845,23.972771 
	C73.116577,24.243805 72.960587,24.481222 72.564743,25.064308 
	C72.367554,29.962610 72.501831,34.575439 72.890411,39.445549 
	C74.093056,39.753937 75.041374,39.805038 76.257950,40.075661 
	C78.886963,42.595673 82.319588,44.507450 83.331299,47.297188 
	C84.537277,50.622574 86.309784,51.046638 89.006065,51.469948 
	C89.001984,52.814404 89.003197,53.792206 88.590500,54.840073 
	C86.785164,54.843121 85.393738,54.776108 83.928436,54.405396 
	C81.953865,53.737885 80.053169,53.374069 78.223572,52.640656 
	C79.798439,49.367714 79.074699,47.420135 76.029900,46.019516 
	C73.804779,44.995945 71.805931,43.480492 69.578995,41.980621 
	C69.282593,41.502323 69.093956,41.241798 68.882339,40.543369 
	C68.761131,37.380722 68.643456,34.670071 68.525780,31.959419 
	C68.565727,31.230368 68.605675,30.501318 68.692558,29.031944 
	C67.868729,27.088392 66.997963,25.885164 66.127190,24.681934 
z"/>
<path fill="#58606E" opacity="1.000000" stroke="none" 
	d="
M60.100868,42.102024 
	C60.643955,41.250725 61.187038,40.399429 62.200356,39.349815 
	C63.776508,39.439056 64.882423,39.726612 66.002151,40.257530 
	C66.015953,40.500889 66.042915,40.987648 65.905518,41.237160 
	C66.845039,42.679054 67.921951,43.871433 69.224098,45.289268 
	C70.957939,46.679138 72.466545,47.843540 73.982086,49.382225 
	C73.995140,50.505329 74.001274,51.254154 73.831329,52.159866 
	C73.425323,52.531673 73.206909,52.757717 72.627235,53.000252 
	C70.836342,53.304462 69.418205,53.603306 67.632103,53.821953 
	C65.527260,53.473900 63.790394,53.206039 62.025360,52.533215 
	C61.365086,48.786175 60.732979,45.444099 60.100868,42.102024 
z"/>
<path fill="#46525D" opacity="1.000000" stroke="none" 
	d="
M66.042915,40.987648 
	C66.042915,40.987648 66.015953,40.500889 65.925461,39.902908 
	C64.889091,37.535435 63.943218,35.765945 62.997341,33.996452 
	C64.627991,33.309109 66.258644,32.621769 68.207535,31.946922 
	C68.643456,34.670071 68.761131,37.380722 68.567993,40.546650 
	C67.837997,41.003994 67.418839,41.006058 66.760498,41.002232 
	C66.521324,40.996338 66.042915,40.987648 66.042915,40.987648 
z"/>
<path fill="#4D5864" opacity="1.000000" stroke="none" 
	d="
M59.877785,42.061241 
	C60.732979,45.444099 61.365086,48.786175 61.629478,52.549751 
	C60.210228,52.983784 59.158688,52.996315 58.064289,52.575485 
	C58.067692,50.113869 58.113956,48.085617 58.160221,46.057365 
	C58.433880,44.930355 58.707539,43.803345 59.092392,42.324829 
	C59.203594,41.973320 59.654701,42.020458 59.877785,42.061241 
z"/>
<path fill="#4D5864" opacity="1.000000" stroke="none" 
	d="
M62.916428,34.352104 
	C63.943218,35.765945 64.889091,37.535435 65.911652,39.659546 
	C64.882423,39.726612 63.776508,39.439056 62.336029,39.076122 
	C62.279484,37.569748 62.557499,36.138752 62.916428,34.352104 
z"/>
<path fill="#475663" opacity="1.000000" stroke="none" 
	d="
M66.088409,25.019569 
	C66.997963,25.885164 67.868729,27.088392 68.635017,28.669764 
	C67.798080,28.194519 67.065613,27.341133 66.155701,26.260448 
	C66.002037,25.807838 66.025826,25.582521 66.088409,25.019569 
z"/>
<path fill="#4D6371" opacity="1.000000" stroke="none" 
	d="
M69.628258,18.673380 
	C69.628258,18.673380 69.725548,18.227711 69.725548,18.227711 
	C69.725548,18.227711 69.377396,17.932955 69.163406,17.853958 
	C69.905235,17.624868 70.861038,17.474779 71.901367,17.603104 
	C71.421577,18.187904 70.857277,18.494289 69.975784,18.734352 
	C69.658600,18.668028 69.628258,18.673380 69.628258,18.673380 
z"/>
<path fill="#A5C0CD" opacity="1.000000" stroke="none" 
	d="
M86.882111,30.688522 
	C86.675766,31.692324 86.368332,32.376534 85.665550,33.449417 
	C84.837440,34.261505 84.404694,34.684917 83.592087,35.081757 
	C76.427338,33.022652 75.488441,30.787132 79.085617,25.229654 
	C79.519768,25.212320 79.953911,25.194988 81.061035,25.103565 
	C82.694611,25.201111 83.655212,25.372746 84.615807,25.544382 
	C84.615807,25.544382 84.609077,25.582764 84.628448,25.584702 
	C85.358887,27.180737 86.069946,28.774834 86.882111,30.688522 
z"/>
<path fill="#445360" opacity="1.000000" stroke="none" 
	d="
M78.945145,24.935186 
	C75.488441,30.787132 76.427338,33.022652 83.396385,35.304626 
	C82.063942,35.721043 80.547356,35.888012 78.742798,35.890877 
	C76.969063,34.817184 75.483299,33.907593 73.971176,32.648705 
	C73.978485,30.210321 74.012154,28.121237 74.133331,25.813116 
	C74.065720,25.022375 73.910614,24.450668 73.755508,23.878962 
	C73.887909,23.362194 74.020317,22.845425 74.329826,22.129023 
	C75.939514,22.833166 77.372101,23.736942 78.945145,24.935186 
z"/>
<path fill="#344450" opacity="1.000000" stroke="none" 
	d="
M84.558479,25.230061 
	C83.655212,25.372746 82.694611,25.201111 81.368362,24.995178 
	C82.168854,24.945835 83.334999,24.930788 84.558479,25.230061 
z"/>
<path fill="#28414F" opacity="1.000000" stroke="none" 
	d="
M42.169315,93.004730 
	C42.295452,94.863632 42.421585,96.722542 42.668266,100.357994 
	C37.110336,97.291664 32.436546,94.713112 27.410751,92.052681 
	C27.043198,90.923866 27.027649,89.876930 27.397871,88.522568 
	C28.834572,88.063652 29.885502,87.912155 30.936432,87.760666 
	C30.664841,87.055916 30.393250,86.351173 30.121658,85.646423 
	C29.073400,86.090706 28.025145,86.534988 26.976887,86.979263 
	C25.781654,86.383217 24.586424,85.787170 23.391191,85.191124 
	C23.455215,84.783112 23.519241,84.375099 23.583265,83.967087 
	C26.088188,83.967087 28.593111,83.967087 31.875532,84.120132 
	C32.767879,92.255348 35.446655,92.601868 41.965401,91.431564 
	C42.050453,92.167389 42.109882,92.586060 42.169315,93.004730 
z"/>
<path fill="#8DBDC9" opacity="1.000000" stroke="none" 
	d="
M41.939781,91.114403 
	C35.446655,92.601868 32.767879,92.255348 32.303066,84.065292 
	C32.310974,82.970284 32.668846,82.083153 33.458405,80.916809 
	C34.263622,80.737038 34.637154,80.836479 35.083622,81.029991 
	C35.156559,81.124062 35.387432,81.065979 35.540581,81.387772 
	C37.683720,83.847374 39.227200,87.411087 43.123188,84.275719 
	C42.837814,86.749237 42.388794,88.931824 41.939781,91.114403 
z"/>
<path fill="#38505F" opacity="1.000000" stroke="none" 
	d="
M13.385742,75.948090 
	C12.976322,74.210266 12.480696,72.535042 12.843848,71.073158 
	C14.082447,66.087097 18.179081,68.765289 21.529474,68.610092 
	C21.994181,69.327805 22.024828,69.687965 21.643719,70.045074 
	C19.608578,70.721367 17.985193,71.400711 16.361807,72.080048 
	C17.228960,73.399063 18.096113,74.718086 19.219599,76.218979 
	C21.316719,76.607391 23.157503,76.813919 25.061874,77.344955 
	C25.431625,78.494720 25.737793,79.319969 26.043961,80.145226 
	C20.581354,82.916817 17.347841,78.868301 13.385742,75.948090 
z"/>
<path fill="#3F5260" opacity="1.000000" stroke="none" 
	d="
M35.387432,81.065979 
	C35.387432,81.065979 35.156559,81.124062 35.080566,80.564827 
	C34.589153,74.669067 34.173733,69.332542 33.758312,63.996017 
	C33.758312,63.996017 33.354385,64.100670 33.771858,63.952225 
	C35.778477,63.326813 37.367626,62.849846 39.209396,62.209320 
	C39.938339,61.689522 40.414654,61.333286 40.890968,60.977051 
	C41.529961,62.148319 42.168953,63.319584 42.577339,64.811554 
	C41.619862,65.876411 40.892990,66.620575 40.107700,67.272934 
	C40.049282,67.181137 40.233086,67.064621 39.931873,67.220802 
	C39.110649,68.086227 38.590637,68.795471 38.091667,69.646210 
	C38.112705,69.787689 37.935535,70.012299 37.649727,70.191849 
	C33.172890,74.995682 40.791489,77.095863 39.698074,81.440933 
	C38.210972,81.311584 36.799202,81.188782 35.387432,81.065979 
z"/>
<path fill="#253948" opacity="1.000000" stroke="none" 
	d="
M26.402094,80.217682 
	C25.737793,79.319969 25.431625,78.494720 25.055595,77.321365 
	C24.985733,76.973267 24.958193,76.933319 25.245537,76.739822 
	C26.258787,74.348877 26.984695,72.151436 27.733074,69.746140 
	C27.755545,69.538292 27.787167,69.121376 27.821465,68.724648 
	C27.629108,66.549675 27.402454,64.771431 27.060268,62.723152 
	C26.729540,61.718105 26.514343,60.983089 26.299145,60.248077 
	C27.205284,59.925713 28.111423,59.603348 29.292637,59.192101 
	C29.635141,65.337090 29.742489,71.570930 29.745481,77.804840 
	C29.746370,79.656815 29.599243,81.684845 26.402094,80.217682 
z"/>
<path fill="#334955" opacity="1.000000" stroke="none" 
	d="
M33.492783,64.268707 
	C34.173733,69.332542 34.589153,74.669067 35.007629,80.470757 
	C34.637154,80.836479 34.263622,80.737038 33.603394,80.588745 
	C33.286877,75.207062 33.257065,69.874229 33.492783,64.268707 
z"/>
<path fill="#97BCC8" opacity="1.000000" stroke="none" 
	d="
M40.794529,60.625751 
	C40.414654,61.333286 39.938339,61.689522 38.817932,62.179810 
	C37.434216,62.126926 36.694588,61.939991 35.954964,61.753059 
	C35.948109,60.362606 35.941250,58.972149 35.897217,57.165901 
	C35.860043,56.750111 35.973145,56.839111 36.216690,56.707947 
	C36.833115,56.310215 37.205994,56.043644 37.578873,55.777069 
	C37.578873,55.777069 37.753384,55.584152 37.880882,55.558098 
	C38.904949,57.112850 39.801521,58.693649 40.794529,60.625751 
z"/>
<path fill="#475462" opacity="1.000000" stroke="none" 
	d="
M27.014652,87.253296 
	C28.025145,86.534988 29.073400,86.090706 30.121658,85.646423 
	C30.393250,86.351173 30.664841,87.055916 30.936432,87.760666 
	C29.885502,87.912155 28.834572,88.063652 27.491444,88.137924 
	C27.150301,87.882912 27.101358,87.705116 27.014652,87.253296 
z"/>
<path fill="#334955" opacity="1.000000" stroke="none" 
	d="
M35.708855,61.651421 
	C36.694588,61.939991 37.434216,62.126926 38.565308,62.343369 
	C37.367626,62.849846 35.778477,63.326813 33.718498,63.750530 
	C33.106247,63.454418 33.064110,63.191715 33.387726,62.425713 
	C33.768578,61.692417 33.882973,61.442593 33.997364,61.192768 
	C34.485825,61.311775 34.974281,61.430782 35.708855,61.651421 
z"/>
<path fill="#3F5260" opacity="1.000000" stroke="none" 
	d="
M33.738625,61.216473 
	C33.882973,61.442593 33.768578,61.692417 33.462719,62.309547 
	C33.340801,62.197960 33.410343,61.719067 33.738625,61.216473 
z"/>
<path fill="#9AC7D3" opacity="1.000000" stroke="none" 
	d="
M37.935535,70.012299 
	C37.935535,70.012299 38.112705,69.787689 38.344486,69.433655 
	C39.128540,68.407951 39.680813,67.736282 40.233086,67.064621 
	C40.233086,67.064621 40.049282,67.181137 40.476372,67.226135 
	C42.912182,67.880066 44.920906,68.488991 46.938385,69.484360 
	C46.953617,70.900978 46.960098,71.931152 46.627602,73.099121 
	C45.855839,74.052505 44.999557,74.899849 45.057926,75.678635 
	C45.486572,81.397911 46.098217,87.103477 46.652195,92.813354 
	C45.457001,92.870743 44.261806,92.928131 42.617966,92.995125 
	C42.109882,92.586060 42.050453,92.167389 41.965401,91.431564 
	C42.388794,88.931824 42.837814,86.749237 43.175446,83.867523 
	C42.028458,80.634872 40.966221,78.111809 39.966202,75.564316 
	C39.246346,73.730515 38.609440,71.864143 37.935535,70.012299 
z"/>
<path fill="#364B58" opacity="1.000000" stroke="none" 
	d="
M49.964649,87.985146 
	C53.978058,88.403709 52.598770,92.869949 54.927452,94.851242 
	C53.200844,95.649490 51.453106,96.165390 49.311852,96.393089 
	C49.267105,93.398308 49.615879,90.691727 49.964649,87.985146 
z"/>
<path fill="#364F5F" opacity="1.000000" stroke="none" 
	d="
M49.960724,87.654427 
	C49.615879,90.691727 49.267105,93.398308 48.968170,96.489502 
	C48.282749,95.732735 47.547485,94.591362 46.732208,93.131668 
	C46.098217,87.103477 45.486572,81.397911 45.057926,75.678635 
	C44.999557,74.899849 45.855839,74.052505 46.765297,73.436066 
	C47.506248,75.064148 47.770531,76.493088 48.027672,78.352623 
	C48.659660,81.189026 49.298794,83.594818 49.937927,86.000618 
	C49.944214,86.441650 49.950504,86.882675 49.960724,87.654427 
z"/>
<path fill="#384955" opacity="1.000000" stroke="none" 
	d="
M27.175800,62.993183 
	C27.402454,64.771431 27.629108,66.549675 27.529869,68.572388 
	C26.133543,68.543816 25.063110,68.270790 23.992678,67.997765 
	C24.159342,64.559883 21.546000,65.455490 19.582232,64.944893 
	C16.702978,64.196259 13.957142,62.934494 11.002329,61.570267 
	C11.660059,60.876514 12.469916,60.503883 13.880808,60.349243 
	C18.713161,61.375877 22.944481,62.184532 27.175800,62.993183 
z"/>
<path fill="#4C5F6D" opacity="1.000000" stroke="none" 
	d="
M23.647322,68.057938 
	C25.063110,68.270790 26.133543,68.543816 27.495571,68.969116 
	C27.787167,69.121376 27.755545,69.538292 27.447901,69.795158 
	C26.424931,70.363594 25.709604,70.675163 24.665945,70.989632 
	C23.899830,70.996201 23.462051,70.999863 22.853542,70.853035 
	C22.461390,70.496201 22.252277,70.278061 22.055473,70.048119 
	C22.024828,69.687965 21.994181,69.327805 21.950117,68.696777 
	C22.391788,68.323303 22.846878,68.220703 23.647322,68.057938 
z"/>
<path fill="#2C4B59" opacity="1.000000" stroke="none" 
	d="
M76.286606,97.185333 
	C75.760811,97.724968 75.423409,97.964394 74.985641,98.384888 
	C68.974220,100.387390 68.882553,100.384979 69.047226,94.124611 
	C69.110924,91.703064 69.694839,89.295197 70.521790,86.459320 
	C71.832779,86.063866 72.663750,86.090179 73.376404,86.487686 
	C73.887611,92.004082 75.317787,92.459328 80.154579,89.262711 
	C82.255302,89.728256 84.194534,89.933823 86.133774,90.139397 
	C85.522850,90.899521 84.911919,91.659637 84.137512,92.665314 
	C83.153069,93.125671 82.332115,93.340477 81.242279,93.728119 
	C79.473930,94.895676 77.974464,95.890396 76.286606,97.185333 
z"/>
<path fill="#AED2DF" opacity="1.000000" stroke="none" 
	d="
M78.152481,53.010258 
	C80.053169,53.374069 81.953865,53.737885 83.622231,54.576450 
	C83.236687,55.694862 83.083473,56.338516 82.797813,57.233906 
	C82.668030,61.634037 82.670685,65.782433 82.536880,70.120331 
	C82.470566,70.896149 82.540710,71.482460 82.645897,72.463638 
	C82.912666,74.587746 83.144394,76.316971 83.482712,78.269531 
	C83.589317,78.492851 83.778488,78.950195 83.778488,78.950195 
	C83.778488,78.950195 83.613045,78.886177 83.053375,78.853775 
	C82.170898,78.873260 81.848083,78.925133 81.525276,78.976997 
	C81.525276,78.976997 81.531815,78.935654 81.344482,78.693100 
	C80.615334,78.244736 80.073532,78.038933 79.470680,77.380043 
	C79.253082,71.644371 79.096519,66.361778 79.209900,60.912949 
	C81.434647,58.129852 81.293762,56.675747 77.510468,56.861130 
	C76.660652,56.902767 75.771683,56.145660 75.133133,55.499405 
	C76.294510,54.498455 77.223495,53.754356 78.152481,53.010258 
z"/>
<path fill="#28414D" opacity="1.000000" stroke="none" 
	d="
M78.939964,61.079185 
	C79.096519,66.361778 79.253082,71.644371 79.346451,77.761612 
	C79.249893,79.395721 79.216522,80.195190 79.183151,80.994652 
	C79.104248,81.143318 79.025345,81.291977 78.608810,81.758148 
	C77.910858,82.131851 77.550560,82.188034 77.228119,81.853127 
	C77.508644,79.283478 77.751305,77.104927 78.029640,74.606094 
	C75.976135,75.184631 74.483047,75.605286 73.102058,75.689514 
	C73.460266,73.265160 73.706367,71.177246 74.100418,68.784149 
	C76.138145,66.676384 79.076546,65.298012 77.079216,61.613029 
	C77.801826,61.269894 78.370895,61.174538 78.939964,61.079185 
z"/>
<path fill="#85B1BE" opacity="1.000000" stroke="none" 
	d="
M77.190254,82.244217 
	C77.550560,82.188034 77.910858,82.131851 78.540359,82.001144 
	C79.139992,82.431160 79.470428,82.935692 79.771057,84.018677 
	C79.825203,86.065666 79.909149,87.534203 79.993095,89.002747 
	C75.317787,92.459328 73.887611,92.004082 73.521172,86.363899 
	C73.955772,85.665260 74.039360,85.430336 74.316925,84.989594 
	C75.466721,83.916328 76.334610,83.017601 77.172104,82.147537 
	C77.141708,82.176201 77.190254,82.244209 77.190254,82.244217 
z"/>
<path fill="#41525F" opacity="1.000000" stroke="none" 
	d="
M80.154579,89.262711 
	C79.909149,87.534203 79.825203,86.065666 79.874207,84.303299 
	C80.801270,83.760773 81.595390,83.512070 82.861862,83.453705 
	C84.255989,85.809044 85.177757,87.974052 86.099525,90.139069 
	C86.099525,90.139069 86.113083,90.103363 86.123428,90.121384 
	C84.194534,89.933823 82.255302,89.728256 80.154579,89.262711 
z"/>
<path fill="#445360" opacity="1.000000" stroke="none" 
	d="
M97.055855,76.306168 
	C97.023895,76.592995 96.880737,76.804604 96.043365,76.977867 
	C93.285088,77.057671 91.109825,77.100601 89.212189,76.926270 
	C92.141922,75.274185 95.686867,74.441315 94.336487,70.140869 
	C95.486404,72.248665 96.271133,74.277420 97.055855,76.306168 
z"/>
<path fill="#294452" opacity="1.000000" stroke="none" 
	d="
M88.934570,77.143539 
	C91.109825,77.100601 93.285088,77.057671 95.851990,77.028648 
	C92.966049,81.060562 88.851639,80.470558 84.192078,79.053116 
	C83.778488,78.950195 83.589317,78.492851 83.833054,78.210899 
	C84.723083,77.656303 85.369377,77.383659 86.271187,77.111069 
	C86.696922,77.104301 86.867134,77.097481 87.268005,77.097420 
	C87.498672,77.104172 87.960114,77.095367 88.203461,77.112747 
	C88.446815,77.130127 88.934570,77.143532 88.934570,77.143539 
z"/>
<path fill="#294452" opacity="1.000000" stroke="none" 
	d="
M97.412369,76.110138 
	C96.271133,74.277420 95.486404,72.248665 93.988113,70.135208 
	C92.807968,70.055855 92.341408,70.061218 91.903450,69.758018 
	C91.968834,69.037964 92.005600,68.626480 92.042374,68.214989 
	C94.057381,68.166771 96.072380,68.118546 98.518677,68.074310 
	C98.556259,70.690231 98.162567,73.302170 97.412369,76.110138 
z"/>
<path fill="#2C4B59" opacity="1.000000" stroke="none" 
	d="
M86.409592,89.956177 
	C85.177757,87.974052 84.255989,85.809044 83.182922,83.440491 
	C84.809380,83.236954 86.587143,83.236954 89.522072,83.236954 
	C88.397942,85.858879 87.558800,87.816086 86.409592,89.956177 
z"/>
<path fill="#85B1BE" opacity="1.000000" stroke="none" 
	d="
M79.435623,80.816399 
	C79.216522,80.195190 79.249893,79.395721 79.407494,78.214691 
	C80.073532,78.038933 80.615334,78.244736 81.323555,78.693810 
	C80.889343,79.504097 80.288719,80.071121 79.435623,80.816399 
z"/>
<path fill="#85B1BE" opacity="1.000000" stroke="none" 
	d="
M81.762192,79.064484 
	C81.848083,78.925133 82.170898,78.873260 82.977798,78.900200 
	C82.974297,79.036667 82.486702,79.094322 81.762192,79.064484 
z"/>
<path fill="#9CCAD8" opacity="1.000000" stroke="none" 
	d="
M73.952469,69.089325 
	C73.706367,71.177246 73.460266,73.265160 72.788513,75.846451 
	C71.540100,77.896217 70.717323,79.452614 69.894554,81.009010 
	C68.839615,81.293556 67.784683,81.578094 66.307495,81.619942 
	C65.806702,80.935837 65.728149,80.494438 65.771210,79.694252 
	C66.415878,76.928238 69.855644,74.907745 66.920898,71.697914 
	C66.997383,70.906860 67.013931,70.451965 67.291634,69.727051 
	C69.363815,68.980911 71.174843,68.504807 73.079735,68.258942 
	C73.372498,68.768036 73.632126,68.968079 73.952469,69.089325 
z"/>
<path fill="#233C49" opacity="1.000000" stroke="none" 
	d="
M65.649597,80.053032 
	C65.728149,80.494438 65.806702,80.935837 65.988998,81.697937 
	C65.843056,86.411957 65.593376,90.805290 65.219345,95.850769 
	C65.094986,96.502914 65.021088,96.994881 65.021088,96.994881 
	C59.860535,94.706787 61.272045,90.035782 61.186813,85.267876 
	C62.246376,83.051636 63.141720,81.534546 64.305389,80.030823 
	C64.932350,80.047142 65.290977,80.050087 65.649597,80.053032 
z"/>
<path fill="#44525E" opacity="1.000000" stroke="none" 
	d="
M69.961121,81.424301 
	C70.717323,79.452614 71.540100,77.896217 72.676422,76.182884 
	C74.483047,75.605286 75.976135,75.184631 78.029640,74.606094 
	C77.751305,77.104927 77.508644,79.283478 77.228119,81.853119 
	C77.190254,82.244209 77.141708,82.176201 76.832718,82.205048 
	C75.694153,83.210640 74.864586,84.187386 74.035019,85.164131 
	C74.039360,85.430336 73.955772,85.665260 73.639496,85.992706 
	C72.663750,86.090179 71.832779,86.063866 70.586082,86.041779 
	C70.122795,84.643867 70.075241,83.241730 69.961121,81.424301 
z"/>
<path fill="#4E5B69" opacity="1.000000" stroke="none" 
	d="
M64.037064,80.017448 
	C63.141720,81.534546 62.246376,83.051636 61.155048,84.837975 
	C60.206696,85.673637 59.454327,86.240059 58.158371,86.898056 
	C57.431255,86.974380 57.247723,86.959129 57.064194,86.943886 
	C57.064194,86.943886 57.023895,86.942825 57.045448,86.704391 
	C57.066830,86.295494 57.066654,86.125038 57.066475,85.954575 
	C57.066574,85.521233 57.066673,85.087898 57.075699,83.995193 
	C57.373474,81.547066 57.662331,79.758301 58.040325,77.693420 
	C58.462757,76.943771 58.796051,76.470253 59.477661,75.968796 
	C61.542923,74.626007 63.259869,73.311157 64.941071,72.395401 
	C64.615913,75.202156 64.326492,77.609802 64.037064,80.017448 
z"/>
<path fill="#364B58" opacity="1.000000" stroke="none" 
	d="
M57.021263,87.281021 
	C57.247723,86.959129 57.431255,86.974380 57.889984,87.014488 
	C58.024429,88.559753 57.883671,90.080170 57.432167,91.822639 
	C57.073723,90.569176 57.026024,89.093666 57.021263,87.281021 
z"/>
<path fill="#9CCAD8" opacity="1.000000" stroke="none" 
	d="
M65.168205,97.079056 
	C65.021088,96.994881 65.094986,96.502914 65.160934,96.263428 
	C65.522751,96.338280 65.818634,96.652618 66.114510,96.966965 
	C65.848114,97.032387 65.581718,97.097809 65.168205,97.079056 
z"/>
<path fill="#BED7E4" opacity="1.000000" stroke="none" 
	d="
M57.729256,46.045044 
	C58.113956,48.085617 58.067692,50.113869 57.874187,52.904701 
	C58.077797,54.377750 58.386765,55.674976 58.786297,55.703491 
	C61.384106,55.888931 64.001595,55.798691 67.091438,55.798691 
	C66.225861,58.227104 65.578209,60.044132 64.739029,61.923538 
	C64.547508,61.985920 64.153580,62.070282 63.901524,61.823257 
	C60.204056,57.794441 57.383415,58.664536 54.993103,62.738815 
	C54.397629,62.916130 53.802151,63.093445 52.655807,63.575417 
	C51.066074,63.947891 50.027206,64.015709 48.988338,64.083527 
	C47.526295,63.498627 46.064247,62.913723 44.113735,62.133404 
	C46.714901,56.959187 49.299122,51.818672 52.008209,46.340897 
	C53.854813,46.013325 55.576553,46.023022 57.729256,46.045044 
z"/>
<path fill="#B5D9E7" opacity="1.000000" stroke="none" 
	d="
M55.294350,62.974991 
	C57.383415,58.664536 60.204056,57.794441 63.841530,62.183960 
	C62.436699,65.897537 60.839809,69.003387 58.955746,71.944550 
	C57.499046,71.180779 56.329517,70.581711 55.159988,69.982635 
	C55.305191,67.725479 55.450394,65.468323 55.294350,62.974991 
z"/>
<path fill="#4E5865" opacity="1.000000" stroke="none" 
	d="
M48.882637,64.346832 
	C50.027206,64.015709 51.066074,63.947891 52.494144,63.843735 
	C52.557995,67.216179 52.232643,70.624962 51.612923,74.589630 
	C50.223976,76.071022 49.129395,76.996521 48.034813,77.922020 
	C47.770531,76.493088 47.506248,75.064148 47.104271,73.298271 
	C46.960098,71.931152 46.953617,70.900978 46.949989,69.101746 
	C46.997822,67.566795 47.042801,66.800888 47.087776,66.034988 
	C47.650833,65.560043 48.213886,65.085098 48.882637,64.346832 
z"/>
<path fill="#A9CEDA" opacity="1.000000" stroke="none" 
	d="
M54.998421,70.347054 
	C56.329517,70.581711 57.499046,71.180779 58.914497,72.334152 
	C59.150059,73.924545 59.139702,74.960640 59.129345,75.996727 
	C58.796051,76.470253 58.462757,76.943771 57.725182,77.819016 
	C56.539227,79.812561 55.757549,81.404373 54.975876,82.996193 
	C54.192513,83.384720 53.409149,83.773247 51.939518,84.502136 
	C53.008266,79.415131 53.922558,75.063301 54.998421,70.347054 
z"/>
<path fill="#424D5B" opacity="1.000000" stroke="none" 
	d="
M48.027672,78.352623 
	C49.129395,76.996521 50.223976,76.071022 51.603653,75.025040 
	C51.247623,78.323990 50.606495,81.743408 49.951649,85.581726 
	C49.298794,83.594818 48.659660,81.189026 48.027672,78.352623 
z"/>
<path fill="#364B58" opacity="1.000000" stroke="none" 
	d="
M55.231613,83.121490 
	C55.757549,81.404373 56.539227,79.812561 57.636040,78.095139 
	C57.662331,79.758301 57.373474,81.547066 57.052536,83.670898 
	C56.509418,83.752914 55.998383,83.499847 55.231613,83.121490 
z"/>
<path fill="#364B58" opacity="1.000000" stroke="none" 
	d="
M57.004711,86.077438 
	C57.066654,86.125038 57.066830,86.295494 57.056000,86.721504 
	C56.893368,86.731277 56.859352,86.472359 57.004711,86.077438 
z"/>
<path fill="#4F5B68" opacity="1.000000" stroke="none" 
	d="
M94.917297,55.849503 
	C96.317184,56.544975 97.717079,57.240444 100.050819,58.399860 
	C96.346725,60.759136 93.314476,62.690483 90.194595,64.978325 
	C90.084030,65.710152 90.061096,66.085487 89.650139,66.582123 
	C84.604561,64.907990 84.819229,60.979317 85.459167,57.033524 
	C88.286667,56.633705 90.690468,56.250317 93.398193,55.877796 
	C94.107185,55.875610 94.512238,55.862556 94.917297,55.849503 
z"/>
<path fill="#445360" opacity="1.000000" stroke="none" 
	d="
M85.035477,57.049950 
	C84.819229,60.979317 84.604561,64.907990 89.573654,66.854645 
	C90.399170,67.339424 90.913147,67.672974 91.734741,68.110764 
	C92.005600,68.626480 91.968834,69.037964 91.543930,69.710190 
	C87.807419,68.970772 85.721664,69.685104 85.993019,73.711700 
	C86.069061,74.840195 86.011780,75.977661 86.015663,77.111015 
	C85.369377,77.383659 84.723083,77.656303 83.726456,77.987579 
	C83.144394,76.316971 82.912666,74.587746 82.740494,72.113144 
	C82.757812,70.888802 82.715576,70.409813 82.673340,69.930832 
	C82.670685,65.782433 82.668030,61.634037 83.148514,57.243488 
	C84.099594,57.017544 84.567535,57.033745 85.035477,57.049950 
z"/>
<path fill="#525B68" opacity="1.000000" stroke="none" 
	d="
M79.030762,36.054981 
	C80.547356,35.888012 82.063942,35.721043 83.776237,35.331203 
	C84.404694,34.684917 84.837440,34.261505 85.544533,33.708015 
	C86.639488,35.590389 87.460106,37.602840 88.554016,39.810169 
	C89.436676,41.473877 90.046043,42.942707 90.651474,44.936226 
	C89.316986,47.548695 88.154076,47.611839 86.526138,45.553104 
	C84.871201,43.460213 82.679626,41.798779 80.937370,39.764828 
	C80.057426,38.737564 79.651192,37.304539 79.030762,36.054981 
z"/>
<path fill="#4C5763" opacity="1.000000" stroke="none" 
	d="
M78.742798,35.890877 
	C79.651192,37.304539 80.057426,38.737564 80.937370,39.764828 
	C82.679626,41.798779 84.871201,43.460213 86.526138,45.553104 
	C88.154076,47.611839 89.316986,47.548695 90.831093,45.225838 
	C91.452057,44.997395 91.889465,45.004032 92.654694,45.015129 
	C93.044060,46.737484 93.105591,48.455379 92.702438,50.556355 
	C91.162292,50.994053 90.086830,51.048672 89.011360,51.103291 
	C86.309784,51.046638 84.537277,50.622574 83.331299,47.297188 
	C82.319588,44.507450 78.886963,42.595673 76.131760,39.828552 
	C75.181862,38.902142 74.626404,38.442348 74.059334,37.567333 
	C74.030991,35.767406 74.014267,34.382702 73.997543,32.998001 
	C75.483299,33.907593 76.969063,34.817184 78.742798,35.890877 
z"/>
<path fill="#AED2DF" opacity="1.000000" stroke="none" 
	d="
M89.006065,51.469948 
	C90.086830,51.048672 91.162292,50.994053 92.637634,50.876415 
	C93.779526,50.875454 94.521553,50.937508 95.631172,51.062981 
	C95.869980,52.103439 95.741188,53.080482 95.602531,54.427372 
	C95.592667,54.797218 95.570770,54.805237 95.233749,54.743793 
	C94.257187,54.811218 93.617645,54.940086 92.580009,55.036446 
	C91.122742,54.925964 90.063576,54.847988 89.004410,54.770008 
	C89.003197,53.792206 89.001984,52.814404 89.006065,51.469948 
z"/>
<path fill="#B5CCD9" opacity="1.000000" stroke="none" 
	d="
M92.978111,55.068954 
	C93.617645,54.940086 94.257187,54.811218 95.223976,54.737198 
	C95.377945,55.008057 95.212700,55.230049 94.986389,55.653763 
	C94.512238,55.862556 94.107185,55.875610 93.355110,55.680290 
	C93.008095,55.471920 92.978111,55.068951 92.978111,55.068954 
z"/>
<path fill="#505A67" opacity="1.000000" stroke="none" 
	d="
M27.060268,62.723152 
	C22.944481,62.184532 18.713161,61.375877 14.218322,60.304020 
	C17.460505,55.949451 21.796644,55.783905 26.066490,59.917683 
	C26.514343,60.983089 26.729540,61.718105 27.060268,62.723152 
z"/>
<path fill="#A9D7E3" opacity="1.000000" stroke="none" 
	d="
M37.166676,55.745758 
	C37.205994,56.043644 36.833115,56.310215 36.172508,56.764751 
	C36.174683,56.539959 36.464577,56.127205 37.166676,55.745758 
z"/>
<path fill="#475561" opacity="1.000000" stroke="none" 
	d="
M36.265221,38.863068 
	C35.682831,37.564816 35.389259,36.154049 35.409412,34.381500 
	C36.787853,34.019768 37.852573,34.019806 38.917290,34.019848 
	C38.926300,34.460941 38.935310,34.902035 38.947472,35.674068 
	C38.151760,36.920189 37.352898,37.835365 36.265221,38.863068 
z"/>
<path fill="#44525E" opacity="1.000000" stroke="none" 
	d="
M38.899380,33.654041 
	C37.852573,34.019806 36.787853,34.019768 35.319141,34.031273 
	C34.701164,33.799992 34.485836,33.558365 34.097385,33.146164 
	C34.258770,32.418610 34.591923,31.862825 35.077545,31.117323 
	C35.982048,30.429478 36.734085,29.931349 37.744667,29.212881 
	C38.295963,30.424438 38.588715,31.856337 38.899380,33.654041 
z"/>
<path fill="#334955" opacity="1.000000" stroke="none" 
	d="
M46.728500,66.013130 
	C47.042801,66.800888 46.997822,67.566795 46.941238,68.715302 
	C44.920906,68.488991 42.912182,67.880066 40.534790,67.317940 
	C40.892990,66.620575 41.619862,65.876411 42.675186,65.072189 
	C44.125504,65.338509 45.247364,65.664886 46.728500,66.013130 
z"/>
<path fill="#475663" opacity="1.000000" stroke="none" 
	d="
M78.223572,52.640656 
	C77.223495,53.754356 76.294510,54.498455 74.904655,55.525803 
	C74.443787,55.809048 73.985405,55.770237 73.896645,55.528786 
	C73.538399,54.852291 73.268913,54.417244 72.999939,53.735367 
	C73.000458,53.488541 73.000000,52.994884 73.000000,52.994884 
	C73.206909,52.757717 73.425323,52.531673 74.073326,52.033531 
	C74.319321,50.836189 74.147240,49.922066 73.975159,49.007946 
	C72.466545,47.843540 70.957939,46.679138 69.213730,44.955505 
	C68.957069,43.952946 68.935997,43.509613 69.117264,42.849834 
	C69.448471,42.483692 69.577347,42.333996 69.706215,42.184299 
	C71.805931,43.480492 73.804779,44.995945 76.029900,46.019516 
	C79.074699,47.420135 79.798439,49.367714 78.223572,52.640656 
z"/>
<path fill="#3C4C58" opacity="1.000000" stroke="none" 
	d="
M73.971176,32.648705 
	C74.014267,34.382702 74.030991,35.767406 73.827240,37.777550 
	C73.283211,38.664749 72.959656,38.926506 72.636108,39.188267 
	C72.501831,34.575439 72.367554,29.962610 72.746468,25.281811 
	C73.521713,25.486609 73.783775,25.759380 74.045830,26.032150 
	C74.012154,28.121237 73.978485,30.210321 73.971176,32.648705 
z"/>
<path fill="#364A58" opacity="1.000000" stroke="none" 
	d="
M92.580009,55.036446 
	C92.978111,55.068951 93.008095,55.471920 93.051178,55.669426 
	C90.690468,56.250317 88.286667,56.633705 85.459167,57.033524 
	C84.567535,57.033745 84.099594,57.017544 83.280952,56.991756 
	C83.083473,56.338516 83.236687,55.694862 83.696114,54.880150 
	C85.393738,54.776108 86.785164,54.843121 88.590500,54.840073 
	C90.063576,54.847988 91.122742,54.925964 92.580009,55.036446 
z"/>
<path fill="#445360" opacity="1.000000" stroke="none" 
	d="
M72.890419,39.445549 
	C72.959656,38.926506 73.283211,38.664749 73.838852,38.192772 
	C74.626404,38.442348 75.181862,38.902142 75.863510,39.609039 
	C75.041374,39.805038 74.093056,39.753937 72.890419,39.445549 
z"/>
<path fill="#475663" opacity="1.000000" stroke="none" 
	d="
M66.999672,41.008125 
	C67.418839,41.006058 67.837997,41.003994 68.571510,40.998646 
	C69.093956,41.241798 69.282593,41.502323 69.578995,41.980621 
	C69.577347,42.333996 69.448471,42.483692 68.864708,42.709663 
	C67.939766,42.193333 67.469719,41.600731 66.999672,41.008125 
z"/>
<path fill="#4D6371" opacity="1.000000" stroke="none" 
	d="
M69.639160,18.652901 
	C69.761742,19.368948 69.903755,20.100122 70.045776,20.831299 
	C69.815132,20.833641 69.584488,20.835985 69.353844,20.838329 
	C69.451630,20.279600 69.549416,19.720873 69.637733,18.917763 
	C69.628258,18.673380 69.658600,18.668028 69.639160,18.652901 
z"/>
<path fill="#3D4B57" opacity="1.000000" stroke="none" 
	d="
M74.133331,25.813116 
	C73.783775,25.759380 73.521713,25.486609 73.077942,24.996334 
	C72.960587,24.481222 73.116577,24.243805 73.559845,23.972771 
	C73.910614,24.450668 74.065720,25.022375 74.133331,25.813116 
z"/>
<path fill="#41515E" opacity="1.000000" stroke="none" 
	d="
M72.999428,53.982197 
	C73.268913,54.417244 73.538399,54.852291 73.600433,55.784992 
	C72.336029,59.557175 72.616333,61.984802 76.925674,61.860817 
	C79.076546,65.298012 76.138145,66.676384 74.100418,68.784149 
	C73.632126,68.968079 73.372498,68.768036 72.977943,67.970856 
	C72.183784,66.632683 71.585289,65.812859 70.967239,64.639175 
	C70.202087,60.344101 68.397186,60.550755 65.823723,62.839691 
	C65.399712,62.389896 65.165131,62.125530 64.930550,61.861160 
	C65.578209,60.044132 66.225861,58.227104 67.091438,55.798691 
	C64.001595,55.798691 61.384106,55.888931 58.786297,55.703491 
	C58.386765,55.674976 58.077797,54.377750 57.917049,53.338062 
	C59.158688,52.996315 60.210228,52.983784 61.657646,52.954712 
	C63.790394,53.206039 65.527260,53.473900 67.808632,54.058994 
	C69.901901,54.244884 71.450661,54.113541 72.999428,53.982197 
z"/>
<path fill="#4D5864" opacity="1.000000" stroke="none" 
	d="
M66.760498,41.002232 
	C67.469719,41.600731 67.939766,42.193333 68.662369,42.926109 
	C68.935997,43.509613 68.957069,43.952946 68.988503,44.730042 
	C67.921951,43.871433 66.845039,42.679054 65.905518,41.237160 
	C66.042915,40.987648 66.521324,40.996338 66.760498,41.002232 
z"/>
<path fill="#4C5663" opacity="1.000000" stroke="none" 
	d="
M72.999939,53.735367 
	C71.450661,54.113541 69.901901,54.244884 68.176605,54.139191 
	C69.418205,53.603306 70.836342,53.304462 72.627235,53.000252 
	C73.000000,52.994884 73.000458,53.488541 72.999939,53.735367 
z"/>
<path fill="#4C5663" opacity="1.000000" stroke="none" 
	d="
M73.982086,49.382225 
	C74.147240,49.922066 74.319321,50.836189 74.249405,51.876644 
	C74.001274,51.254154 73.995140,50.505329 73.982086,49.382225 
z"/>
<path fill="#334955" opacity="1.000000" stroke="none" 
	d="
M37.649727,70.191849 
	C38.609440,71.864143 39.246346,73.730515 39.966202,75.564316 
	C40.966221,78.111809 42.028458,80.634872 43.011803,83.576584 
	C39.227200,87.411087 37.683720,83.847374 35.540581,81.387772 
	C36.799202,81.188782 38.210972,81.311584 39.698074,81.440933 
	C40.791489,77.095863 33.172890,74.995682 37.649727,70.191849 
z"/>
<path fill="#565F6A" opacity="1.000000" stroke="none" 
	d="
M23.024271,71.003532 
	C23.462051,70.999863 23.899830,70.996201 24.740660,71.304794 
	C25.081871,73.389137 25.020031,75.161232 24.958193,76.933319 
	C24.958193,76.933319 24.985733,76.973267 24.992012,76.996857 
	C23.157503,76.813919 21.316719,76.607391 19.172493,75.898407 
	C17.832405,71.640877 21.402811,72.244049 23.024271,71.003532 
z"/>
<path fill="#4B5964" opacity="1.000000" stroke="none" 
	d="
M22.853542,70.853035 
	C21.402811,72.244049 17.832405,71.640877 18.916161,75.716530 
	C18.096113,74.718086 17.228960,73.399063 16.361807,72.080048 
	C17.985193,71.400711 19.608578,70.721367 21.643719,70.045074 
	C22.252277,70.278061 22.461390,70.496201 22.853542,70.853035 
z"/>
<path fill="#334955" opacity="1.000000" stroke="none" 
	d="
M39.931873,67.220802 
	C39.680813,67.736282 39.128540,68.407951 38.323448,69.292168 
	C38.590637,68.795471 39.110649,68.086227 39.931873,67.220802 
z"/>
<path fill="#4B5964" opacity="1.000000" stroke="none" 
	d="
M25.245537,76.739822 
	C25.020031,75.161232 25.081871,73.389137 25.068995,71.301888 
	C25.709604,70.675163 26.424931,70.363594 27.425430,70.003006 
	C26.984695,72.151436 26.258787,74.348877 25.245537,76.739822 
z"/>
<path fill="#A2D0DC" opacity="1.000000" stroke="none" 
	d="
M77.079216,61.613029 
	C72.616333,61.984802 72.336029,59.557175 73.689194,56.026443 
	C73.985405,55.770237 74.443787,55.809048 74.672264,55.782654 
	C75.771683,56.145660 76.660652,56.902767 77.510468,56.861130 
	C81.293762,56.675747 81.434647,58.129852 79.209900,60.912949 
	C78.370895,61.174538 77.801826,61.269894 77.079216,61.613029 
z"/>
<path fill="#85B1BE" opacity="1.000000" stroke="none" 
	d="
M82.536880,70.120331 
	C82.715576,70.409813 82.757812,70.888802 82.705452,71.718277 
	C82.540710,71.482460 82.470566,70.896149 82.536880,70.120331 
z"/>
<path fill="#28414D" opacity="1.000000" stroke="none" 
	d="
M74.316925,84.989594 
	C74.864586,84.187386 75.694153,83.210640 76.863113,82.176384 
	C76.334610,83.017601 75.466721,83.916328 74.316925,84.989594 
z"/>
<path fill="#545E69" opacity="1.000000" stroke="none" 
	d="
M86.271187,77.111069 
	C86.011780,75.977661 86.069061,74.840195 85.993019,73.711700 
	C85.721664,69.685104 87.807419,68.970772 91.515320,70.018753 
	C92.341408,70.061218 92.807968,70.055855 93.622917,70.056168 
	C95.686867,74.441315 92.141922,75.274185 89.212189,76.926270 
	C88.934570,77.143532 88.446815,77.130127 88.096191,77.043152 
	C87.487923,76.871033 87.251846,76.915863 87.037338,77.090668 
	C86.867134,77.097481 86.696922,77.104301 86.271187,77.111069 
z"/>
<path fill="#445360" opacity="1.000000" stroke="none" 
	d="
M87.268005,77.097420 
	C87.251846,76.915863 87.487923,76.871033 87.852837,77.025772 
	C87.960114,77.095367 87.498672,77.104172 87.268005,77.097420 
z"/>
<path fill="#465868" opacity="1.000000" stroke="none" 
	d="
M64.739029,61.923538 
	C65.165131,62.125530 65.399712,62.389896 65.906647,63.129082 
	C66.766174,64.388496 67.353355,65.173103 67.793678,66.207375 
	C67.441376,67.637054 67.235931,68.817070 67.030479,69.997078 
	C67.013931,70.451965 66.997383,70.906860 66.607468,71.676758 
	C65.815002,71.993286 65.395905,71.994797 64.976814,71.996307 
	C63.259869,73.311157 61.542923,74.626007 59.477661,75.968796 
	C59.139702,74.960640 59.150059,73.924545 59.201668,72.498848 
	C60.839809,69.003387 62.436699,65.897537 64.093582,62.430984 
	C64.153580,62.070282 64.547508,61.985920 64.739029,61.923538 
z"/>
<path fill="#334E5B" opacity="1.000000" stroke="none" 
	d="
M64.941071,72.395409 
	C65.395905,71.994797 65.815002,71.993286 66.547531,72.012924 
	C69.855644,74.907745 66.415878,76.928238 65.771217,79.694252 
	C65.290977,80.050087 64.932350,80.047142 64.305389,80.030823 
	C64.326492,77.609802 64.615913,75.202156 64.941071,72.395409 
z"/>
<path fill="#334E5B" opacity="1.000000" stroke="none" 
	d="
M67.291634,69.727051 
	C67.235931,68.817070 67.441376,67.637054 68.076927,66.051735 
	C69.333611,65.428619 70.160202,65.210823 70.986786,64.993027 
	C71.585289,65.812859 72.183784,66.632683 72.884079,67.740608 
	C71.174843,68.504807 69.363815,68.980911 67.291634,69.727051 
z"/>
<path fill="#505A67" opacity="1.000000" stroke="none" 
	d="
M70.967239,64.639175 
	C70.160202,65.210823 69.333611,65.428619 68.223778,65.802063 
	C67.353355,65.173103 66.766174,64.388496 66.096077,63.314507 
	C68.397186,60.550755 70.202087,60.344101 70.967239,64.639175 
z"/>
</svg>