<svg version="1.1" id="Layer_1" xmlns="http://www.w3.org/2000/svg" xmlns:xlink="http://www.w3.org/1999/xlink" x="0px" y="0px"
	 width="100%" viewBox="0 0 104 104" enable-background="new 0 0 104 104" xml:space="preserve">
<path fill="#080D0F" opacity="1.000000" stroke="none" 
	d="
M105.000000,59.000000 
	C105.000000,74.254906 105.000000,89.509811 105.000000,105.000000 
	C91.980049,105.000000 78.958687,105.000000 65.406326,104.626099 
	C67.275040,103.005066 69.674728,101.757927 72.332550,100.412277 
	C72.753738,100.228081 72.916779,100.142380 73.419617,99.940826 
	C73.932930,99.660133 74.106453,99.495293 74.467209,99.268333 
	C74.982132,98.988800 75.309830,98.771393 76.005173,98.624146 
	C78.792969,96.996033 81.213127,95.297760 83.795746,93.382324 
	C84.166397,92.871483 84.374588,92.577820 84.904617,92.478996 
	C91.746201,89.882698 93.875046,83.548088 97.016678,78.021927 
	C97.000511,77.999992 97.044884,78.031715 97.362602,78.008865 
	C98.158653,76.637329 98.636993,75.288643 99.185547,73.576103 
	C100.245857,70.423508 102.803207,67.635834 99.289459,64.508957 
	C101.211578,62.449314 103.105789,60.724655 105.000000,59.000000 
z"/>
<path fill="#000000" opacity="1.000000" stroke="none" 
	d="
M61.000000,1.000000 
	C75.590767,1.000000 90.181526,1.000000 105.000000,1.000000 
	C105.000000,14.353366 105.000000,27.708025 104.622635,41.532837 
	C102.999535,39.663876 101.753799,37.324760 100.446335,34.636543 
	C98.843384,26.440359 92.593178,21.757618 87.972855,15.588531 
	C81.459229,11.261796 75.051064,7.224909 68.547287,3.348448 
	C67.655968,2.817196 66.288788,3.084350 65.026611,2.760597 
	C64.710777,2.227469 64.425636,2.085064 63.689919,2.045056 
	C62.581802,1.928308 61.839622,1.878628 61.065262,1.622630 
	C61.033081,1.416312 61.000000,1.000000 61.000000,1.000000 
z"/>
<path fill="#000000" opacity="1.000000" stroke="none" 
	d="
M40.000000,105.000000 
	C27.071510,105.000000 14.143023,105.000000 1.000000,105.000000 
	C1.000000,91.646538 1.000000,78.291924 1.401438,64.463135 
	C2.511805,66.575531 2.699994,69.474060 4.027472,71.690125 
	C7.983749,78.294662 12.288340,84.700623 16.708498,91.007812 
	C17.491892,92.125648 19.484217,92.396240 21.197750,93.187286 
	C22.274267,93.945656 23.071320,94.574814 23.874445,95.534088 
	C25.486282,96.432816 27.092049,97.001411 28.838295,97.495102 
	C28.978775,97.420189 28.943613,97.103714 29.200161,97.286560 
	C30.586599,98.392769 31.716490,99.316116 32.929310,100.588440 
	C35.341492,102.291611 37.670746,103.645805 40.000000,105.000000 
z"/>
<path fill="#000000" opacity="1.000000" stroke="none" 
	d="
M1.000000,42.000000 
	C1.000000,28.404911 1.000000,14.809820 1.000000,1.000000 
	C15.020164,1.000000 29.041424,1.000000 43.514946,1.209447 
	C43.967205,1.418895 43.906326,1.834637 43.534302,1.869968 
	C42.420132,1.982511 41.677994,2.059724 40.695854,2.179322 
	C40.177418,2.412758 39.982624,2.667721 39.486397,2.983298 
	C38.002808,3.247575 36.788193,3.299803 35.825314,3.818941 
	C30.907560,6.470365 25.646027,8.719481 21.295523,12.120785 
	C17.037720,15.449614 13.731480,19.995562 9.706158,24.168350 
	C7.256191,29.503841 5.148159,34.695839 2.918541,39.835087 
	C2.553758,40.675911 1.653026,41.284225 1.000000,42.000000 
z"/>
<path fill="#3A4E5C" opacity="1.000000" stroke="none" 
	d="
M20.918283,93.058075 
	C19.484217,92.396240 17.491892,92.125648 16.708498,91.007812 
	C12.288340,84.700623 7.983749,78.294662 4.027472,71.690125 
	C2.699994,69.474060 2.511805,66.575531 1.401438,63.994473 
	C1.000000,61.299988 1.000000,58.599972 1.303647,55.457626 
	C1.957446,55.217434 2.307598,55.419575 2.616947,55.963005 
	C3.918707,58.602695 5.261271,60.901096 6.682681,63.576889 
	C5.331274,73.697044 7.280433,77.341675 15.960810,81.478607 
	C17.659149,85.266144 19.319981,88.660484 21.007290,92.308258 
	C20.995272,92.727150 20.956778,92.892616 20.918283,93.058075 
z"/>
<path fill="#3C5967" opacity="1.000000" stroke="none" 
	d="
M40.399994,105.000000 
	C37.670746,103.645805 35.341492,102.291611 33.348881,100.531921 
	C39.686119,101.892883 45.772800,102.303741 49.871220,96.810905 
	C52.573147,93.189697 54.403847,94.304413 57.037468,96.603241 
	C61.222843,101.923820 66.604584,101.399727 72.074417,100.510788 
	C69.674728,101.757927 67.275040,103.005066 64.937668,104.626099 
	C63.933331,105.000000 62.866661,105.000000 61.245647,104.702171 
	C58.839428,102.133858 56.987556,99.863373 55.198494,97.669899 
	C50.682789,100.625702 47.341393,102.812851 44.000000,105.000000 
	C42.933331,105.000000 41.866661,105.000000 40.399994,105.000000 
z"/>
<path fill="#A1CCD9" opacity="1.000000" stroke="none" 
	d="
M105.000000,58.539360 
	C103.105789,60.724655 101.211578,62.449314 99.012756,64.670769 
	C98.131180,65.784897 97.554237,66.402237 96.617294,66.832764 
	C93.846748,66.451141 91.436188,66.256332 88.754333,65.842590 
	C89.000511,64.582062 89.517982,63.540478 90.419403,62.582672 
	C98.660233,62.470032 101.525711,58.938786 99.001740,52.181923 
	C98.926720,51.080437 98.862328,50.347172 98.749573,49.368694 
	C98.677696,48.791065 98.666656,48.458233 99.291260,47.985649 
	C100.691872,47.489437 101.469322,47.132565 102.554077,46.898155 
	C103.574257,47.013744 104.287125,47.006874 105.000000,47.000000 
	C105.000000,50.692909 105.000000,54.385818 105.000000,58.539360 
z"/>
<path fill="#3B4B57" opacity="1.000000" stroke="none" 
	d="
M105.000000,46.583336 
	C104.287125,47.006874 103.574257,47.013744 102.445168,46.616554 
	C99.360626,43.796856 96.691956,41.381592 94.024078,38.965466 
	C92.024002,37.154133 90.024940,35.341682 88.168472,33.256344 
	C88.532784,31.664547 88.754051,30.346140 89.001663,28.619476 
	C89.079544,27.668097 89.131088,27.124969 89.544464,26.684292 
	C97.134911,27.671755 94.248634,36.132748 99.075111,39.627533 
	C99.684723,37.652748 100.096390,36.319195 100.508057,34.985641 
	C101.753799,37.324760 102.999535,39.663876 104.622635,42.001495 
	C105.000000,43.388889 105.000000,44.777779 105.000000,46.583336 
z"/>
<path fill="#44505C" opacity="1.000000" stroke="none" 
	d="
M1.000000,42.454109 
	C1.653026,41.284225 2.553758,40.675911 2.918541,39.835087 
	C5.148159,34.695839 7.256191,29.503841 9.917543,24.363110 
	C10.571264,24.526638 10.712189,24.656483 10.687810,25.101452 
	C7.468204,30.133282 5.669079,34.977539 8.271217,40.610504 
	C8.576610,41.271603 7.362420,42.634670 6.543288,43.840359 
	C5.087524,46.206345 3.941147,48.404289 2.604114,50.839115 
	C1.942306,51.383999 1.471154,51.692001 1.000001,52.000000 
	C1.000000,48.969406 1.000000,45.938812 1.000000,42.454109 
z"/>
<path fill="#57616D" opacity="1.000000" stroke="none" 
	d="
M43.906326,1.834637 
	C43.906326,1.834637 43.967205,1.418895 43.983604,1.209447 
	C49.354931,1.000000 54.709858,1.000000 60.532394,1.000000 
	C61.000000,1.000000 61.033081,1.416312 60.966709,1.965884 
	C54.421143,8.978379 50.331936,8.814556 43.906326,1.834637 
z"/>
<path fill="#54616D" opacity="1.000000" stroke="none" 
	d="
M44.467606,105.000000 
	C47.341393,102.812851 50.682789,100.625702 55.198494,97.669899 
	C56.987556,99.863373 58.839428,102.133858 60.845650,104.702171 
	C55.645069,105.000000 50.290142,105.000000 44.467606,105.000000 
z"/>
<path fill="#AACBD7" opacity="1.000000" stroke="none" 
	d="
M1.000001,52.375000 
	C1.471154,51.692001 1.942306,51.383999 2.658480,51.339485 
	C2.821585,52.942554 2.739668,54.282131 2.657750,55.621712 
	C2.307598,55.419575 1.957446,55.217434 1.303647,55.007648 
	C1.000000,54.250000 1.000000,53.500000 1.000001,52.375000 
z"/>
<path fill="#96D1DD" opacity="1.000000" stroke="none" 
	d="
M96.977287,67.019569 
	C97.554237,66.402237 98.131180,65.784897 98.984833,65.005753 
	C102.803207,67.635834 100.245857,70.423508 99.058060,73.884720 
	C98.255196,75.715355 97.650040,76.873535 97.044884,78.031715 
	C97.044884,78.031715 97.000511,77.999992 96.667694,78.093460 
	C93.915031,79.909897 91.010025,81.238388 89.203629,83.460106 
	C87.150902,85.984795 86.080307,89.308037 84.582779,92.284149 
	C84.374588,92.577820 84.166397,92.871483 83.538162,93.315308 
	C82.775963,93.558540 82.433815,93.651627 82.132973,93.399010 
	C82.348419,91.911446 82.522560,90.769577 82.869438,89.389458 
	C83.529922,88.323875 84.017662,87.496536 84.615929,86.561508 
	C84.726448,86.453819 84.542007,86.206383 84.721268,85.978233 
	C84.892372,85.175713 84.884209,84.601334 84.953430,83.789856 
	C85.030815,83.552757 85.149956,83.068367 85.427483,82.868500 
	C84.436630,82.433327 83.168259,82.198021 81.574387,81.992363 
	C80.500191,82.681053 79.751488,83.340103 78.885696,83.692039 
	C77.804611,82.244331 76.840614,81.103729 75.970734,79.631546 
	C76.219276,78.867188 76.373688,78.434425 76.875366,77.998512 
	C78.144470,77.978790 79.066315,77.962212 80.443192,77.920410 
	C82.694405,77.881104 84.490860,77.882355 86.286728,77.850250 
	C93.548210,77.720474 96.766273,74.455536 96.977287,67.019569 
z"/>
<path fill="#91CEDC" opacity="1.000000" stroke="none" 
	d="
M72.332550,100.412277 
	C66.604584,101.399727 61.222843,101.923820 57.117680,96.270874 
	C57.419609,95.062271 57.781189,94.496620 58.448467,94.002655 
	C59.720638,94.781609 60.687111,95.488869 61.796589,96.394409 
	C62.216042,96.391113 62.492493,96.189552 62.845558,95.596817 
	C62.968636,94.144249 63.015099,93.082855 63.343563,91.869171 
	C63.415691,90.811569 63.205818,89.906258 62.981503,88.741516 
	C63.027035,88.319572 63.087002,88.157059 63.422188,88.072800 
	C64.419304,88.763474 65.141197,89.375877 65.927628,90.407875 
	C66.000488,92.319504 65.644310,93.951965 66.145905,95.253983 
	C66.477814,96.115555 68.040192,96.503090 69.398529,97.046120 
	C71.732155,95.555122 73.718956,94.120865 75.959167,92.943108 
	C76.456848,94.104996 76.701118,95.010376 76.844398,96.197388 
	C76.374786,97.170670 76.006157,97.862328 75.637527,98.553986 
	C75.309830,98.771393 74.982132,98.988800 74.252876,99.139938 
	C73.594154,99.401337 73.336990,99.729004 73.079826,100.056671 
	C72.916779,100.142380 72.753738,100.228081 72.332550,100.412277 
z"/>
<path fill="#3C5967" opacity="1.000000" stroke="none" 
	d="
M84.904617,92.478996 
	C86.080307,89.308037 87.150902,85.984795 89.203629,83.460106 
	C91.010025,81.238388 93.915031,79.909897 96.683861,78.115395 
	C93.875046,83.548088 91.746201,89.882698 84.904617,92.478996 
z"/>
<path fill="#3C5967" opacity="1.000000" stroke="none" 
	d="
M76.005173,98.624146 
	C76.006157,97.862328 76.374786,97.170670 77.154594,96.033096 
	C79.074409,94.973022 80.583038,94.358864 82.091667,93.744705 
	C82.433815,93.651627 82.775963,93.558540 83.375702,93.532471 
	C81.213127,95.297760 78.792969,96.996033 76.005173,98.624146 
z"/>
<path fill="#3C5967" opacity="1.000000" stroke="none" 
	d="
M97.362602,78.008865 
	C97.650040,76.873535 98.255196,75.715355 98.987839,74.248566 
	C98.636993,75.288643 98.158653,76.637329 97.362602,78.008865 
z"/>
<path fill="#3C5967" opacity="1.000000" stroke="none" 
	d="
M73.419617,99.940826 
	C73.336990,99.729004 73.594154,99.401337 74.065643,99.202065 
	C74.106453,99.495293 73.932930,99.660133 73.419617,99.940826 
z"/>
<path fill="#B4C3D0" opacity="1.000000" stroke="none" 
	d="
M100.446335,34.636543 
	C100.096390,36.319195 99.684723,37.652748 99.075111,39.627533 
	C94.248634,36.132748 97.134911,27.671755 89.533859,26.323130 
	C88.716339,21.478439 86.116402,18.974791 82.040321,17.874273 
	C80.126259,17.357487 78.149681,17.072222 76.101898,16.360458 
	C73.527298,11.865082 70.056099,9.364625 65.017181,9.996953 
	C59.785408,10.653481 58.915771,14.833644 58.141159,19.001400 
	C58.081509,19.322350 57.930214,19.626263 57.461250,19.980751 
	C56.384899,20.132250 55.668816,20.241095 54.555443,20.003246 
	C53.416176,19.698151 52.674202,19.739748 51.920242,19.496071 
	C51.926239,18.640259 51.944221,18.069727 52.290695,17.874409 
	C53.893204,15.792704 55.167225,13.335786 56.717327,10.711797 
	C61.539616,5.314975 69.896492,4.421710 74.808128,9.625331 
	C78.628510,13.672832 83.358925,14.441526 88.048134,15.929041 
	C92.593178,21.757618 98.843384,26.440359 100.446335,34.636543 
z"/>
<path fill="#44505C" opacity="1.000000" stroke="none" 
	d="
M87.972855,15.588531 
	C83.358925,14.441526 78.628510,13.672832 74.808128,9.625331 
	C69.896492,4.421710 61.539616,5.314975 56.270706,10.725531 
	C53.534534,10.534283 51.521061,10.162230 49.207184,9.696310 
	C45.866955,8.550369 42.473988,6.062315 39.851513,6.707256 
	C30.890965,8.910911 23.110949,13.884997 15.938148,19.666277 
	C14.076770,21.166548 12.539340,23.068745 10.853113,24.786327 
	C10.712189,24.656483 10.571264,24.526638 10.218954,24.202034 
	C13.731480,19.995562 17.037720,15.449614 21.295523,12.120785 
	C25.646027,8.719481 30.907560,6.470365 35.825314,3.818941 
	C36.788193,3.299803 38.002808,3.247575 39.682610,2.864982 
	C40.530338,2.592154 40.754322,2.387812 40.935852,2.136938 
	C41.677994,2.059724 42.420132,1.982511 43.534302,1.869968 
	C50.331936,8.814556 54.421143,8.978379 60.998894,2.172201 
	C61.839622,1.878628 62.581802,1.928308 63.842110,2.222763 
	C64.602219,2.667206 64.862778,2.838645 65.141922,2.981853 
	C66.288788,3.084350 67.655968,2.817196 68.547287,3.348448 
	C75.051064,7.224909 81.459229,11.261796 87.972855,15.588531 
z"/>
<path fill="#57616D" opacity="1.000000" stroke="none" 
	d="
M65.026611,2.760597 
	C64.862778,2.838645 64.602219,2.667206 64.208054,2.289831 
	C64.425636,2.085064 64.710777,2.227469 65.026611,2.760597 
z"/>
<path fill="#98CEDA" opacity="1.000000" stroke="none" 
	d="
M58.142769,93.930969 
	C57.781189,94.496620 57.419609,95.062271 56.977814,95.960289 
	C54.403847,94.304413 52.573147,93.189697 49.871220,96.810905 
	C45.772800,102.303741 39.686119,101.892883 33.265953,100.182938 
	C31.716490,99.316116 30.586599,98.392769 29.261599,96.948143 
	C28.371088,95.978615 27.675686,95.530357 26.592518,94.950272 
	C25.425959,94.946953 24.647167,95.075462 23.868374,95.203964 
	C23.071320,94.574814 22.274267,93.945656 21.197750,93.187286 
	C20.956778,92.892616 20.995272,92.727150 21.011839,91.904236 
	C21.319263,89.193817 21.648613,87.140869 22.280968,85.167664 
	C23.964788,87.213326 25.094490,89.441490 26.796909,91.071510 
	C28.505228,92.707191 30.726887,93.850388 32.830067,95.017509 
	C34.863430,96.145889 37.032505,97.029724 39.706585,98.286293 
	C39.706585,94.144402 39.706585,91.055779 39.776306,87.544647 
	C39.825432,85.410858 39.804829,83.699577 39.853386,81.606888 
	C39.620926,79.572075 39.319302,77.918663 38.791069,76.137802 
	C38.398922,75.960197 38.233383,75.910042 37.976997,75.636345 
	C37.687759,75.135017 37.419598,74.972076 36.956665,74.641388 
	C36.159588,73.587616 35.487511,72.816429 34.854340,71.775276 
	C34.790947,70.973396 34.688648,70.441483 34.640259,69.596848 
	C34.663204,69.074852 34.632240,68.865570 34.712807,68.533829 
	C34.899246,68.191124 34.887554,67.975586 35.002632,67.487137 
	C36.597866,66.508034 38.529076,64.882591 39.241886,65.306396 
	C40.539516,66.077904 41.758308,68.014755 41.880383,69.554909 
	C42.460316,76.871635 42.673573,84.217957 42.983215,91.555183 
	C43.055305,93.263420 42.993866,94.977295 42.993866,96.688568 
	C43.433933,96.834404 43.873997,96.980240 44.314064,97.126076 
	C45.233616,96.135216 46.153172,95.144356 47.366112,94.001465 
	C49.400116,92.985359 51.140739,92.121292 52.881359,91.257225 
	C53.184654,91.650940 53.487946,92.044655 53.791237,92.438370 
	C54.233154,89.971962 54.675072,87.505562 55.492226,84.956772 
	C56.804596,84.514534 57.741726,84.154678 58.517860,84.237885 
	C58.285496,87.764290 58.214134,90.847633 58.142769,93.930969 
z"/>
<path fill="#3A4E5C" opacity="1.000000" stroke="none" 
	d="
M23.874445,95.534088 
	C24.647167,95.075462 25.425959,94.946953 26.712631,95.312141 
	C27.712944,96.393890 28.205378,96.981956 28.697813,97.570015 
	C27.092049,97.001411 25.486282,96.432816 23.874445,95.534088 
z"/>
<path fill="#3C5967" opacity="1.000000" stroke="none" 
	d="
M28.838293,97.495102 
	C28.205378,96.981956 27.712944,96.393890 27.100397,95.443962 
	C27.675686,95.530357 28.371088,95.978615 29.005051,96.765289 
	C28.943613,97.103714 28.978775,97.420189 28.838293,97.495102 
z"/>
<path fill="#57616D" opacity="1.000000" stroke="none" 
	d="
M40.695854,2.179322 
	C40.754322,2.387812 40.530338,2.592154 40.067696,2.868281 
	C39.982624,2.667721 40.177418,2.412758 40.695854,2.179322 
z"/>
<path fill="#B7D0DD" opacity="1.000000" stroke="none" 
	d="
M2.616947,55.963005 
	C2.739668,54.282131 2.821585,52.942554 2.849136,51.102604 
	C3.941147,48.404289 5.087524,46.206345 6.695073,44.175133 
	C7.453585,45.270321 7.750926,46.198776 7.922710,47.406025 
	C9.567680,51.285507 12.553034,48.809155 15.427468,49.215137 
	C18.589523,49.161980 21.305145,49.014591 24.261923,49.041401 
	C27.984690,49.147987 26.464750,46.668640 26.627254,44.672012 
	C28.281126,43.000427 29.660122,41.220852 31.475138,40.312679 
	C38.917358,36.588840 40.820618,26.121746 35.065414,19.614342 
	C36.386845,14.250531 37.913326,13.647018 42.949486,16.504726 
	C43.274651,17.925024 43.566597,18.993292 43.734482,20.400940 
	C42.810204,22.597557 41.513512,24.402708 41.312084,26.322762 
	C40.879265,30.448456 41.010872,34.633366 40.618576,38.947723 
	C38.884186,40.084480 37.442638,41.067543 35.679260,42.093575 
	C34.717056,42.717308 34.076687,43.298073 33.315269,43.836761 
	C33.194229,43.794682 33.008774,43.971577 32.723820,44.012314 
	C32.229679,44.358948 32.020493,44.664845 31.870197,44.935463 
	C31.929089,44.900188 31.854561,44.784882 31.601665,44.895470 
	C30.920996,45.346767 30.493219,45.687477 29.692564,46.207306 
	C27.801929,51.666073 29.223482,55.106297 34.920158,55.997395 
	C32.109089,56.507416 29.538788,56.740513 26.885796,56.561642 
	C25.953632,55.020348 25.149096,52.956104 24.247433,52.912766 
	C18.202396,52.622234 12.136693,52.761692 4.387216,52.761692 
	C6.612472,56.586220 8.105536,59.152340 9.221414,61.897453 
	C8.097429,62.450802 7.350633,62.825150 6.603836,63.199497 
	C5.261271,60.901096 3.918707,58.602695 2.616947,55.963005 
z"/>
<path fill="#9CCEDA" opacity="1.000000" stroke="none" 
	d="
M21.977962,85.087914 
	C21.648613,87.140869 21.319263,89.193817 20.985363,91.650795 
	C19.319981,88.660484 17.659149,85.266144 16.106522,81.196167 
	C16.498777,79.951500 16.782833,79.382469 17.503090,78.868492 
	C20.952229,77.936737 25.447428,81.546371 27.346243,76.004448 
	C28.410032,76.018456 29.118988,76.032417 29.918331,76.152740 
	C30.059940,76.491913 30.201523,76.580353 30.302197,76.800438 
	C31.207422,78.228981 32.243919,79.381493 33.359627,80.854095 
	C34.247280,81.467010 35.055714,81.759850 35.972412,82.415237 
	C36.294041,84.495972 36.507408,86.214172 36.446625,88.116493 
	C34.795784,87.551880 33.419090,86.803131 32.328968,86.087006 
	C33.033699,85.993645 33.451855,85.867668 33.870014,85.741692 
	C33.240326,85.568184 32.610638,85.394669 31.649590,84.975464 
	C28.857756,78.583138 24.431231,83.634224 20.203819,81.527153 
	C21.274061,83.675163 21.626011,84.381538 21.977962,85.087914 
z"/>
<path fill="#AACBD7" opacity="1.000000" stroke="none" 
	d="
M17.066887,78.813446 
	C16.782833,79.382469 16.498777,79.951500 16.069014,80.802963 
	C7.280433,77.341675 5.331274,73.697044 6.682682,63.576889 
	C7.350633,62.825150 8.097429,62.450802 9.583071,62.005005 
	C13.800575,62.410522 17.279234,62.887486 20.803909,63.689407 
	C20.872662,64.669075 20.895395,65.323776 20.468431,65.994980 
	C17.018230,66.125748 14.017727,66.240021 10.708688,66.501266 
	C10.313969,68.410492 10.227783,70.172752 10.155517,72.290787 
	C11.730263,74.172379 13.291092,75.698204 15.077231,77.323990 
	C15.302542,77.423950 15.782791,77.516464 15.782791,77.516464 
	C15.782791,77.516464 16.270943,77.486801 16.428528,77.694031 
	C16.746372,78.205322 16.906630,78.509384 17.066887,78.813446 
z"/>
<path fill="#B2CBD8" opacity="1.000000" stroke="none" 
	d="
M98.797943,49.613907 
	C98.862328,50.347172 98.926720,51.080437 98.670715,52.281021 
	C97.900108,52.840607 97.449890,52.932869 96.538635,52.938446 
	C90.682457,52.886494 85.287300,52.921223 79.504440,52.968510 
	C78.341454,53.002460 77.566185,53.023849 76.493393,52.776451 
	C76.808044,47.498615 75.390938,43.830723 70.273415,41.737476 
	C68.419731,40.979248 67.209206,38.648628 65.742523,36.579292 
	C65.701004,33.077980 65.622177,30.032862 65.628189,26.598373 
	C65.437706,24.808901 65.515869,23.191044 64.814903,22.053141 
	C63.262901,19.533724 61.494328,17.051548 64.932770,14.943960 
	C68.426514,12.802480 70.414368,15.055150 71.769440,18.390041 
	C71.293678,20.090103 70.900772,21.446079 70.155106,22.806030 
	C69.578629,23.877594 69.354904,24.945183 69.074677,26.382854 
	C69.066322,27.497458 69.114479,28.241980 69.094238,29.412903 
	C69.645020,32.241447 70.264206,34.643597 70.971848,37.385738 
	C73.460335,39.469982 75.860359,41.214233 78.785408,43.340057 
	C79.506927,50.531338 79.504921,50.497753 87.923897,49.995655 
	C91.543289,49.779800 95.172951,49.735920 98.797943,49.613907 
z"/>
<path fill="#475966" opacity="1.000000" stroke="none" 
	d="
M98.749573,49.368694 
	C95.172951,49.735920 91.543289,49.779800 87.923897,49.995655 
	C79.504921,50.497753 79.506927,50.531338 78.785408,43.340057 
	C75.860359,41.214233 73.460335,39.469982 71.326706,37.373764 
	C72.066368,37.004128 72.539642,36.986458 73.355354,37.125000 
	C78.028572,38.254158 82.505577,38.795036 83.794914,44.430794 
	C83.975014,45.218014 87.298012,45.286201 88.502678,45.544804 
	C87.984543,41.317326 87.593742,38.128746 87.299500,35.278900 
	C91.153412,39.786755 94.910744,43.955872 98.668083,48.124992 
	C98.666656,48.458233 98.677696,48.791065 98.749573,49.368694 
z"/>
<path fill="#445563" opacity="1.000000" stroke="none" 
	d="
M79.892151,52.955948 
	C85.287300,52.921223 90.682457,52.886494 96.417053,53.186073 
	C96.505730,54.011719 96.254967,54.503056 95.540489,54.998001 
	C91.943405,55.019909 88.775650,54.776733 85.693176,55.182076 
	C84.416733,55.349926 82.660973,56.715195 82.324127,57.882458 
	C81.955757,59.158970 82.976044,60.836220 83.391090,62.338810 
	C84.702156,61.961922 86.030830,61.635967 87.318336,61.190926 
	C88.235825,60.873783 89.097946,60.396469 89.988472,60.304264 
	C90.006592,61.244896 90.021019,61.871891 90.035446,62.498890 
	C89.517982,63.540478 89.000511,64.582062 88.743462,66.168900 
	C88.993713,67.149376 88.983543,67.584610 88.614380,67.997559 
	C86.747215,67.538429 85.239044,67.101593 82.712151,66.369690 
	C83.243690,69.196678 83.074089,71.761719 84.257935,73.250648 
	C84.934746,74.101891 88.220352,73.805344 89.572990,72.896683 
	C90.635681,72.182800 90.535988,69.738579 91.321548,68.088791 
	C92.419701,68.861534 93.773460,69.606377 93.776009,70.355812 
	C93.791557,74.931656 90.085533,75.337616 86.842453,75.848541 
	C83.846138,76.320595 81.096268,75.998100 80.985291,71.831810 
	C80.924461,69.548302 80.475830,67.275139 80.126083,64.659904 
	C80.094299,63.865570 80.138489,63.408634 80.352524,62.694832 
	C80.374092,61.301697 80.225822,60.165424 79.969925,58.606071 
	C79.872253,56.440643 79.882202,54.698296 79.892151,52.955948 
z"/>
<path fill="#325260" opacity="1.000000" stroke="none" 
	d="
M80.202072,64.997307 
	C80.475830,67.275139 80.924461,69.548302 80.985291,71.831810 
	C81.096268,75.998100 83.846138,76.320595 86.842453,75.848541 
	C90.085533,75.337616 93.791557,74.931656 93.776009,70.355812 
	C93.773460,69.606377 92.419701,68.861534 90.992439,68.078079 
	C89.854080,68.034340 89.413734,68.027092 88.973381,68.019836 
	C88.983543,67.584610 88.993713,67.149376 89.014755,66.387833 
	C91.436188,66.256332 93.846748,66.451141 96.617294,66.832764 
	C96.766273,74.455536 93.548210,77.720474 86.286728,77.850250 
	C84.490860,77.882355 82.694405,77.881104 80.357590,77.469254 
	C79.945335,73.027992 80.073700,69.012650 80.202072,64.997307 
z"/>
<path fill="#ADC3CE" opacity="1.000000" stroke="none" 
	d="
M99.291260,47.985649 
	C94.910744,43.955872 91.153412,39.786755 87.422455,35.111801 
	C87.641029,34.247215 87.833229,33.888474 88.025429,33.529732 
	C90.024940,35.341682 92.024002,37.154133 94.024078,38.965466 
	C96.691956,41.381592 99.360626,43.796856 102.137863,46.494091 
	C101.469322,47.132565 100.691872,47.489437 99.291260,47.985649 
z"/>
<path fill="#344C58" opacity="1.000000" stroke="none" 
	d="
M96.004196,54.994392 
	C96.254967,54.503056 96.505730,54.011719 96.878082,53.272758 
	C97.449890,52.932869 97.900108,52.840607 98.681351,52.649246 
	C101.525711,58.938786 98.660233,62.470032 90.419403,62.582672 
	C90.021019,61.871891 90.006592,61.244896 90.377075,60.300369 
	C94.103241,59.994961 96.625748,59.146679 96.004196,54.994392 
z"/>
<path fill="#41505C" opacity="1.000000" stroke="none" 
	d="
M70.507866,22.802057 
	C70.900772,21.446079 71.293678,20.090103 72.166206,18.377783 
	C73.831032,17.574972 75.016235,17.128504 76.201439,16.682037 
	C78.149681,17.072222 80.126259,17.357487 82.040321,17.874273 
	C86.116402,18.974791 88.716339,21.478439 89.172028,26.220684 
	C89.131088,27.124969 89.079544,27.668097 88.625351,28.621063 
	C87.320663,29.319620 85.967308,29.328985 85.588234,29.941401 
	C82.644363,34.697475 78.469040,34.295292 73.854370,32.690254 
	C72.190956,31.252480 70.676796,30.119492 69.162636,28.986504 
	C69.114479,28.241980 69.066322,27.497458 69.393433,26.438871 
	C70.941826,25.761786 72.114944,25.398762 73.288063,25.035736 
	C72.361328,24.291178 71.434601,23.546618 70.507866,22.802057 
M82.733521,30.304878 
	C84.598099,27.541636 83.898308,24.970364 81.315178,23.490469 
	C80.154221,22.825350 77.162209,23.239374 76.580208,24.160984 
	C75.631775,25.662840 75.219025,28.343676 75.947960,29.876640 
	C77.192291,32.493496 79.744659,32.844082 82.733521,30.304878 
z"/>
<path fill="#4F5864" opacity="1.000000" stroke="none" 
	d="
M74.003632,32.995041 
	C78.469040,34.295292 82.644363,34.697475 85.588234,29.941401 
	C85.967308,29.328985 87.320663,29.319620 88.599007,29.029316 
	C88.754051,30.346140 88.532784,31.664547 88.168472,33.256344 
	C87.833229,33.888474 87.641029,34.247215 87.325882,34.773064 
	C87.593742,38.128746 87.984543,41.317326 88.502678,45.544804 
	C87.298012,45.286201 83.975014,45.218014 83.794914,44.430794 
	C82.505577,38.795036 78.028572,38.254158 73.300339,36.814716 
	C73.269791,35.230492 73.636711,34.112766 74.003632,32.995041 
z"/>
<path fill="#BACAD6" opacity="1.000000" stroke="none" 
	d="
M8.048265,47.127235 
	C7.750926,46.198776 7.453585,45.270321 7.004460,44.007088 
	C7.362420,42.634670 8.576610,41.271603 8.271217,40.610504 
	C5.669079,34.977539 7.468204,30.133282 10.687810,25.101452 
	C12.539340,23.068745 14.076770,21.166548 15.938148,19.666277 
	C23.110949,13.884997 30.890965,8.910911 39.851513,6.707256 
	C42.473988,6.062315 45.866955,8.550369 49.335281,10.090211 
	C50.496593,12.885050 51.229401,15.192122 51.962204,17.499193 
	C51.944221,18.069727 51.926239,18.640259 51.990234,19.858931 
	C52.128056,20.995083 52.183899,21.483097 52.161819,22.379858 
	C51.516590,24.919115 53.624832,28.904156 48.474155,27.513910 
	C48.266331,26.086149 48.123432,25.047235 48.064079,23.612701 
	C48.097675,22.144472 48.047722,21.071863 48.062344,19.593708 
	C48.647442,15.043157 46.481609,12.490715 42.767418,10.434269 
	C37.621613,8.960397 34.143425,10.911345 31.328381,14.741580 
	C30.507666,15.858269 29.229410,16.638687 27.849081,17.441586 
	C23.034750,17.513206 19.472496,19.025766 18.205090,24.196617 
	C17.883047,25.277905 17.692827,26.079887 17.248312,26.847263 
	C16.661411,26.886938 16.328808,26.961224 15.624477,26.984436 
	C9.016645,29.733521 11.579158,35.730194 9.590864,40.073574 
	C10.021311,40.308460 10.451758,40.543350 10.882205,40.778236 
	C12.906714,38.444641 14.931224,36.111050 17.991543,32.583504 
	C18.255207,35.153294 18.877689,36.784073 18.431171,38.032509 
	C17.915651,39.473873 16.457623,40.578140 15.072155,41.753979 
	C12.506395,43.495193 10.277330,45.311214 8.048265,47.127235 
z"/>
<path fill="#A1CBD7" opacity="1.000000" stroke="none" 
	d="
M80.126091,64.659904 
	C80.073700,69.012650 79.945335,73.027992 79.902557,77.494484 
	C79.066315,77.962212 78.144470,77.978790 76.848038,77.531097 
	C76.473457,71.189285 76.473457,65.311729 76.473457,58.996353 
	C74.514854,59.419544 73.292160,59.683731 72.000626,59.789848 
	C71.931786,59.631775 71.768539,59.327988 71.964340,59.009705 
	C72.773521,57.124813 73.386902,55.558205 74.324982,53.992783 
	C75.363419,53.677731 76.077164,53.361485 76.790909,53.045235 
	C77.566185,53.023849 78.341454,53.002460 79.504440,52.968510 
	C79.882202,54.698296 79.872253,56.440643 79.910629,58.996506 
	C80.033531,60.857250 80.108109,61.904476 80.182678,62.951702 
	C80.138489,63.408634 80.094299,63.865570 80.126091,64.659904 
z"/>
<path fill="#2F4957" opacity="1.000000" stroke="none" 
	d="
M75.705765,92.686607 
	C73.718956,94.120865 71.732155,95.555122 69.262405,96.721161 
	C69.316353,93.663437 69.853241,90.873947 70.636604,88.341942 
	C74.605087,90.099899 77.293831,88.576569 79.002777,83.999153 
	C79.751488,83.340103 80.500191,82.681053 81.913300,82.055374 
	C83.435120,82.415291 84.292534,82.741829 85.149956,83.068367 
	C85.149956,83.068367 85.030815,83.552757 84.787186,84.031036 
	C84.543045,85.075012 84.542519,85.640694 84.542007,86.206383 
	C84.542007,86.206383 84.726448,86.453819 84.240723,86.428558 
	C82.833443,87.551682 81.911896,88.700073 80.675446,89.982605 
	C78.808945,90.973366 77.257355,91.829987 75.705765,92.686607 
z"/>
<path fill="#2F4452" opacity="1.000000" stroke="none" 
	d="
M72.069473,59.947918 
	C73.292160,59.683731 74.514854,59.419544 76.473457,58.996353 
	C76.473457,65.311729 76.473457,71.189285 76.500778,77.534256 
	C76.373688,78.434425 76.219276,78.867188 75.686203,79.681412 
	C74.931656,80.121078 74.555771,80.179276 74.200500,79.847473 
	C74.460564,77.345131 74.700005,75.232780 75.016685,72.439056 
	C73.416336,73.241516 72.713303,73.594040 72.009750,73.608749 
	C71.993729,72.820923 71.978226,72.370903 71.952820,71.533897 
	C71.303543,69.379051 70.664177,67.611198 70.017067,65.532181 
	C69.994011,64.805679 69.978699,64.390343 70.327431,63.971611 
	C71.845917,63.779549 73.000351,63.590881 73.768875,63.465282 
	C73.086533,62.053005 72.578003,61.000462 72.069473,59.947918 
z"/>
<path fill="#81ABB9" opacity="1.000000" stroke="none" 
	d="
M74.179878,80.237473 
	C74.555771,80.179276 74.931656,80.121078 75.592079,80.013008 
	C76.840614,81.103729 77.804611,82.244331 78.885696,83.692039 
	C77.293831,88.576569 74.605087,90.099899 70.585625,88.022957 
	C70.345566,86.334351 70.402962,85.222206 70.644928,83.949165 
	C71.238098,83.276413 71.646706,82.764565 72.367172,82.147041 
	C73.168060,81.393051 73.657082,80.744736 74.131989,80.137085 
	C74.117874,80.177750 74.179878,80.237473 74.179878,80.237473 
z"/>
<path fill="#78ADBA" opacity="1.000000" stroke="none" 
	d="
M75.959167,92.943108 
	C77.257355,91.829987 78.808945,90.973366 80.964684,90.006966 
	C81.944786,89.807358 82.320740,89.717529 82.696701,89.627708 
	C82.522560,90.769577 82.348419,91.911446 82.132973,93.399017 
	C80.583038,94.358864 79.074409,94.973022 77.255577,95.751472 
	C76.701118,95.010376 76.456848,94.104996 75.959167,92.943108 
z"/>
<path fill="#2D4C58" opacity="1.000000" stroke="none" 
	d="
M82.869438,89.389458 
	C82.320740,89.717529 81.944786,89.807358 81.279587,89.872826 
	C81.911896,88.700073 82.833443,87.551682 84.130203,86.536247 
	C84.017662,87.496536 83.529922,88.323875 82.869438,89.389458 
z"/>
<path fill="#2D4C58" opacity="1.000000" stroke="none" 
	d="
M85.427483,82.868500 
	C84.292534,82.741829 83.435120,82.415291 82.238785,82.025742 
	C83.168259,82.198021 84.436630,82.433327 85.427483,82.868500 
z"/>
<path fill="#2D4C58" opacity="1.000000" stroke="none" 
	d="
M84.721268,85.978233 
	C84.542519,85.640694 84.543045,85.075012 84.709808,84.268143 
	C84.884209,84.601334 84.892372,85.175713 84.721268,85.978233 
z"/>
<path fill="#A0D0DD" opacity="1.000000" stroke="none" 
	d="
M70.024811,65.843353 
	C70.664177,67.611198 71.303543,69.379051 71.670731,71.734573 
	C66.782135,74.498642 65.307205,78.181541 65.918594,83.101006 
	C66.199280,85.359581 65.899597,87.690285 65.863098,89.988281 
	C65.141197,89.375877 64.419304,88.763474 63.371643,87.621689 
	C62.930908,84.073013 62.815937,81.053711 62.818146,77.680305 
	C63.248981,74.899803 63.562637,72.473419 63.943615,69.708290 
	C64.353119,68.282631 64.695297,67.195717 65.450577,66.055374 
	C67.250725,65.949089 68.637764,65.896217 70.024811,65.843353 
z"/>
<path fill="#2E4C5B" opacity="1.000000" stroke="none" 
	d="
M65.927628,90.407875 
	C65.899597,87.690285 66.199280,85.359581 65.918594,83.101006 
	C65.307205,78.181541 66.782135,74.498642 71.680634,72.121567 
	C71.978226,72.370903 71.993729,72.820923 71.772232,73.870041 
	C67.414360,78.722618 67.124908,81.318840 70.460358,84.110069 
	C70.402962,85.222206 70.345566,86.334351 70.339149,87.765472 
	C69.853241,90.873947 69.316353,93.663437 68.915588,96.777893 
	C68.040192,96.503090 66.477814,96.115555 66.145905,95.253983 
	C65.644310,93.951965 66.000488,92.319504 65.927628,90.407875 
z"/>
<path fill="#23414E" opacity="1.000000" stroke="none" 
	d="
M62.700966,78.034416 
	C62.815937,81.053711 62.930908,84.073013 63.096428,87.543427 
	C63.087002,88.157059 63.027035,88.319572 62.781197,88.957428 
	C62.750744,90.295670 62.906155,91.158569 63.061562,92.021461 
	C63.015099,93.082855 62.968636,94.144249 62.563908,95.633614 
	C62.021622,96.106438 61.837601,96.151283 61.653587,96.196136 
	C60.687111,95.488869 59.720638,94.781609 58.448467,94.002655 
	C58.214134,90.847633 58.285496,87.764290 58.727814,84.033371 
	C59.398285,82.259216 59.697807,81.132645 60.202549,79.803436 
	C60.616676,79.069847 60.825584,78.538887 61.312241,78.014984 
	C61.960316,78.026169 62.330639,78.030289 62.700966,78.034416 
z"/>
<path fill="#304E5C" opacity="1.000000" stroke="none" 
	d="
M63.343563,91.869171 
	C62.906155,91.158569 62.750744,90.295670 62.795639,89.216858 
	C63.205818,89.906258 63.415691,90.811569 63.343563,91.869171 
z"/>
<path fill="#304E5C" opacity="1.000000" stroke="none" 
	d="
M61.796585,96.394409 
	C61.837601,96.151283 62.021622,96.106438 62.487289,96.024788 
	C62.492493,96.189552 62.216042,96.391113 61.796585,96.394409 
z"/>
<path fill="#434F5B" opacity="1.000000" stroke="none" 
	d="
M48.539082,27.902760 
	C53.624832,28.904156 51.516590,24.919115 52.454002,22.362856 
	C53.533649,21.408051 54.243191,20.878994 54.952736,20.349937 
	C55.668816,20.241095 56.384899,20.132250 57.811504,19.940952 
	C59.765446,20.635502 61.227871,21.206705 62.198696,22.239857 
	C63.511284,23.636707 64.446327,25.388330 65.543350,26.987741 
	C65.622177,30.032862 65.701004,33.077980 65.600906,36.718971 
	C65.249794,37.519062 65.108833,37.742939 64.678986,37.891769 
	C63.306049,36.323147 62.253220,34.849228 61.169052,33.331436 
	C60.316467,33.516125 59.244312,33.748379 58.125366,33.608009 
	C57.994930,32.266445 57.911282,31.297503 57.785229,29.837368 
	C56.695217,30.498158 55.933270,30.960068 54.980034,31.214676 
	C53.526962,31.671385 52.265182,32.335396 50.755116,32.785702 
	C49.330482,31.058136 48.154137,29.544273 47.367424,27.990076 
	C48.017735,27.934080 48.278408,27.918421 48.539082,27.902760 
z"/>
<path fill="#3A4B58" opacity="1.000000" stroke="none" 
	d="
M65.628189,26.598373 
	C64.446327,25.388330 63.511284,23.636707 62.198696,22.239857 
	C61.227871,21.206705 59.765446,20.635502 58.171776,19.898296 
	C57.930214,19.626263 58.081509,19.322350 58.141159,19.001400 
	C58.915771,14.833644 59.785408,10.653481 65.017181,9.996953 
	C70.056099,9.364625 73.527298,11.865082 76.101898,16.360458 
	C75.016235,17.128504 73.831032,17.574972 72.249062,18.033699 
	C70.414368,15.055150 68.426514,12.802480 64.932770,14.943960 
	C61.494328,17.051548 63.262901,19.533724 64.814903,22.053141 
	C65.515869,23.191044 65.437706,24.808901 65.628189,26.598373 
z"/>
<path fill="#32404C" opacity="1.000000" stroke="none" 
	d="
M52.290695,17.874409 
	C51.229401,15.192122 50.496593,12.885050 49.635689,10.184077 
	C51.521061,10.162230 53.534534,10.534283 55.994629,10.892602 
	C55.167225,13.335786 53.893204,15.792704 52.290695,17.874409 
z"/>
<path fill="#32404C" opacity="1.000000" stroke="none" 
	d="
M54.555443,20.003246 
	C54.243191,20.878994 53.533649,21.408051 52.531925,21.954109 
	C52.183899,21.483097 52.128056,20.995083 52.002220,20.144207 
	C52.674202,19.739748 53.416176,19.698151 54.555443,20.003246 
z"/>
<path fill="#39505F" opacity="1.000000" stroke="none" 
	d="
M47.072723,94.153496 
	C46.153172,95.144356 45.233616,96.135216 44.314064,97.126076 
	C43.873997,96.980240 43.433933,96.834404 42.993866,96.688568 
	C42.993866,94.977295 43.055305,93.263420 42.983215,91.555183 
	C42.673573,84.217957 42.460316,76.871635 41.880383,69.554909 
	C41.758308,68.014755 40.539516,66.077904 39.241886,65.306396 
	C38.529076,64.882591 36.597866,66.508034 34.802963,67.289032 
	C34.254807,67.238983 34.119690,67.109398 34.066254,66.637238 
	C36.798367,64.513458 39.448799,62.732235 42.540924,60.899666 
	C45.657990,60.908733 48.333359,60.969147 51.139084,61.208439 
	C51.455784,61.619526 51.673290,61.817478 52.010632,62.308681 
	C52.136055,63.080292 52.172817,63.524395 51.844345,63.967422 
	C50.992336,63.978127 50.505562,63.989906 49.684624,63.858025 
	C48.058441,64.017632 45.699024,64.193954 45.645432,64.644516 
	C45.260994,67.876740 45.295547,71.166229 45.395813,74.431427 
	C45.402271,74.641785 47.064259,74.801292 47.936203,75.394600 
	C47.788715,79.263580 45.017082,82.999069 48.968189,86.409142 
	C48.324421,89.243843 47.698574,91.698669 47.072723,94.153496 
z"/>
<path fill="#2F4A57" opacity="1.000000" stroke="none" 
	d="
M22.280970,85.167664 
	C21.626011,84.381538 21.274061,83.675163 20.203819,81.527153 
	C24.431231,83.634224 28.857756,78.583138 31.656883,85.184364 
	C31.995541,85.638954 32.042393,86.054390 32.042397,86.054390 
	C33.419090,86.803131 34.795784,87.551880 36.820770,88.104904 
	C38.214905,87.928505 38.960747,87.947830 39.706585,87.967148 
	C39.706585,91.055779 39.706585,94.144402 39.706585,98.286293 
	C37.032505,97.029724 34.863430,96.145889 32.830067,95.017509 
	C30.726887,93.850388 28.505228,92.707191 26.796909,91.071510 
	C25.094490,89.441490 23.964788,87.213326 22.280970,85.167664 
z"/>
<path fill="#344754" opacity="1.000000" stroke="none" 
	d="
M47.366112,94.001465 
	C47.698574,91.698669 48.324421,89.243843 48.971283,86.085068 
	C48.989334,84.949707 48.986366,84.518295 49.286583,84.017410 
	C50.077362,83.346107 50.564964,82.744278 51.188797,81.825211 
	C52.100704,80.075600 52.876377,78.643227 53.751457,77.614334 
	C54.232826,79.345383 54.614788,80.672951 54.805458,82.224350 
	C54.781773,83.311836 54.949379,84.175499 55.116985,85.039154 
	C54.675072,87.505562 54.233154,89.971962 53.791237,92.438370 
	C53.487946,92.044655 53.184654,91.650940 52.881359,91.257225 
	C51.140739,92.121292 49.400116,92.985359 47.366112,94.001465 
z"/>
<path fill="#39505F" opacity="1.000000" stroke="none" 
	d="
M30.433468,76.524414 
	C30.201523,76.580353 30.059940,76.491913 29.984573,75.747269 
	C29.905998,74.147476 29.851570,73.059509 29.863333,71.528702 
	C29.895149,68.398186 29.860775,65.710495 29.909241,62.647110 
	C30.059057,61.506187 30.126032,60.740955 30.349255,59.838367 
	C30.702065,59.502209 30.866110,59.279457 31.296732,59.062115 
	C32.060452,59.466557 32.525074,59.841648 33.157501,60.394444 
	C34.241978,62.636330 29.411526,65.291817 33.984570,66.979805 
	C34.119690,67.109398 34.254807,67.238983 34.589592,67.566666 
	C34.887554,67.975586 34.899246,68.191124 34.555908,68.682510 
	C34.220108,69.071724 34.066456,69.239639 34.100742,69.299019 
	C34.229366,69.521736 34.419361,69.709015 34.586353,69.909576 
	C34.688648,70.441483 34.790947,70.973396 34.687622,71.912704 
	C34.273785,72.523117 34.102707,72.753670 33.659718,73.120193 
	C33.237198,74.819016 33.123718,76.409416 32.655357,77.890808 
	C31.678135,77.362671 31.055801,76.943542 30.433468,76.524414 
z"/>
<path fill="#213947" opacity="1.000000" stroke="none" 
	d="
M39.776306,87.544647 
	C38.960747,87.947830 38.214905,87.928505 37.094921,87.920776 
	C36.507408,86.214172 36.294041,84.495972 36.250793,82.245338 
	C36.944763,80.809097 37.468609,79.905289 38.244545,78.998238 
	C38.664600,78.995430 38.832565,78.995872 39.004829,79.313675 
	C39.267494,80.416779 39.525860,81.202538 39.784225,81.988289 
	C39.804829,83.699577 39.825432,85.410858 39.776306,87.544647 
z"/>
<path fill="#425664" opacity="1.000000" stroke="none" 
	d="
M55.492226,84.956772 
	C54.949379,84.175499 54.781773,83.311836 55.109715,82.076637 
	C57.069283,81.138748 58.533302,80.572403 59.997330,80.006065 
	C59.697807,81.132645 59.398285,82.259216 58.888809,83.590302 
	C57.741726,84.154678 56.804596,84.514534 55.492226,84.956772 
z"/>
<path fill="#314651" opacity="1.000000" stroke="none" 
	d="
M33.968758,73.011772 
	C34.102707,72.753670 34.273785,72.523117 34.648712,72.182678 
	C35.487511,72.816429 36.159588,73.587616 36.927765,74.668594 
	C37.023865,74.978394 36.967972,75.034760 36.633812,75.011208 
	C35.522686,74.329033 34.745720,73.670403 33.968758,73.011772 
z"/>
<path fill="#2F4A57" opacity="1.000000" stroke="none" 
	d="
M39.853386,81.606888 
	C39.525860,81.202538 39.267494,80.416779 39.001747,78.980759 
	C38.991611,77.886368 38.988865,77.442238 38.994423,76.814919 
	C39.002731,76.631721 39.017681,76.265244 39.017677,76.265244 
	C39.319302,77.918663 39.620926,79.572075 39.853386,81.606888 
z"/>
<path fill="#314651" opacity="1.000000" stroke="none" 
	d="
M37.052765,74.951187 
	C37.419598,74.972076 37.687759,75.135017 37.955109,75.921631 
	C38.016556,76.620667 38.009048,76.810883 37.797737,76.801392 
	C37.385281,76.079369 37.176624,75.557060 36.967972,75.034760 
	C36.967972,75.034760 37.023865,74.978394 37.052765,74.951187 
z"/>
<path fill="#314651" opacity="1.000000" stroke="none" 
	d="
M34.640259,69.596848 
	C34.419361,69.709015 34.229366,69.521736 34.100742,69.299019 
	C34.066456,69.239639 34.220108,69.071724 34.444374,68.804962 
	C34.632240,68.865570 34.663204,69.074852 34.640259,69.596848 
z"/>
<path fill="#434F5D" opacity="1.000000" stroke="none" 
	d="
M38.001537,77.001106 
	C38.009048,76.810883 38.016556,76.620667 38.045952,76.145164 
	C38.233383,75.910042 38.398922,75.960197 38.791069,76.137802 
	C39.017681,76.265244 39.002731,76.631721 38.751495,76.815170 
	C38.500256,76.998619 38.014206,77.019272 38.010384,77.014099 
	C38.006565,77.008926 38.001537,77.001106 38.001537,77.001106 
z"/>
<path fill="#3D4B57" opacity="1.000000" stroke="none" 
	d="
M18.336914,23.917315 
	C19.472496,19.025766 23.034750,17.513206 27.843407,17.831608 
	C29.344082,23.416279 32.766109,19.226116 34.992996,20.000689 
	C40.820618,26.121746 38.917358,36.588840 31.475138,40.312679 
	C29.660122,41.220852 28.281126,43.000427 26.342770,44.780582 
	C25.329512,46.410282 24.675138,47.638741 24.020767,48.867203 
	C21.305145,49.014591 18.589523,49.161980 15.483481,48.913452 
	C15.403941,48.000790 15.714823,47.484047 16.401890,46.966080 
	C18.543381,46.000103 20.308687,45.035351 22.412670,43.973381 
	C23.530405,42.278614 24.309465,40.681068 25.450127,39.003189 
	C28.223356,37.625877 30.634989,36.328896 33.380836,34.945862 
	C34.338646,33.886032 34.962238,32.912251 35.585831,31.938471 
	C34.243706,31.264355 32.901577,30.590237 31.671524,29.523672 
	C31.916199,23.023632 29.720737,21.568695 23.615685,24.025517 
	C21.537296,23.982967 19.937105,23.950140 18.336914,23.917315 
z"/>
<path fill="#445967" opacity="1.000000" stroke="none" 
	d="
M20.757893,63.364449 
	C17.279234,62.887486 13.800575,62.410522 9.960258,61.826008 
	C8.105536,59.152340 6.612472,56.586220 4.387216,52.761692 
	C12.136693,52.761692 18.202396,52.622234 24.247433,52.912766 
	C25.149096,52.956104 25.953632,55.020348 26.744495,56.597019 
	C26.685892,57.044365 26.394699,57.047497 26.106197,57.204647 
	C24.900219,57.930992 23.982740,58.500187 22.974430,58.690201 
	C20.290245,54.026562 14.578210,53.561298 11.167387,58.060207 
	C14.621385,59.088898 17.801287,60.035954 20.958672,61.381180 
	C20.876734,62.307720 20.817312,62.836082 20.757893,63.364449 
z"/>
<path fill="#435563" opacity="1.000000" stroke="none" 
	d="
M34.066254,66.637238 
	C29.411526,65.291817 34.241978,62.636330 33.493629,60.259827 
	C34.995544,58.834221 37.738857,58.220844 35.160931,55.720470 
	C29.223482,55.106297 27.801929,51.666073 29.871672,46.391518 
	C30.746796,46.852909 31.069933,47.309216 31.854561,48.417198 
	C31.854561,46.630539 31.854561,45.707710 31.854561,44.784882 
	C31.854561,44.784882 31.929089,44.900188 32.096699,44.801003 
	C32.512463,44.458405 32.760620,44.214989 33.008774,43.971577 
	C33.008774,43.971577 33.194229,43.794682 33.730900,43.906029 
	C34.543503,44.066525 34.819435,44.115673 35.053413,44.504932 
	C35.008457,46.880077 35.005451,48.915112 35.009132,51.229275 
	C35.686230,51.999836 36.356636,52.491272 37.014000,52.993172 
	C37.000957,53.003635 37.005684,52.970707 37.075085,53.330894 
	C38.582920,55.790657 40.021355,57.890224 41.599312,60.243629 
	C41.858967,60.648647 41.979099,60.799831 42.099228,60.951012 
	C39.448799,62.732235 36.798367,64.513458 34.066254,66.637238 
M32.328869,52.691494 
	C32.199863,52.351654 32.070858,52.011814 31.941853,51.671974 
	C31.732166,51.846588 31.522480,52.021202 31.312794,52.195816 
	C31.550087,52.451477 31.787380,52.707138 32.328869,52.691494 
z"/>
<path fill="#455461" opacity="1.000000" stroke="none" 
	d="
M35.065414,19.614342 
	C32.766109,19.226116 29.344082,23.416279 28.155205,17.963264 
	C29.229410,16.638687 30.507666,15.858269 31.328381,14.741580 
	C34.143425,10.911345 37.621613,8.960397 42.742966,10.891088 
	C42.991627,13.107953 42.953949,14.630325 42.916267,16.152699 
	C37.913326,13.647018 36.386845,14.250531 35.065414,19.614342 
z"/>
<path fill="#434F5B" opacity="1.000000" stroke="none" 
	d="
M47.997772,19.999256 
	C48.047722,21.071863 48.097675,22.144472 47.849442,23.824228 
	C47.323917,24.984056 47.096573,25.536736 46.477280,26.082727 
	C42.468861,26.132328 43.342007,28.872709 42.982113,31.035854 
	C42.482136,34.040981 41.678082,36.995514 40.986206,39.676880 
	C40.949291,39.186047 40.930359,38.990040 40.911423,38.794033 
	C41.010872,34.633366 40.879265,30.448456 41.312084,26.322762 
	C41.513512,24.402708 42.810204,22.597557 44.148270,20.388199 
	C45.790005,20.023804 46.893887,20.011530 47.997772,19.999256 
z"/>
<path fill="#475663" opacity="1.000000" stroke="none" 
	d="
M16.025703,46.967300 
	C15.714823,47.484047 15.403941,48.000790 15.037047,48.819218 
	C12.553034,48.809155 9.567680,51.285507 7.922709,47.406025 
	C10.277330,45.311214 12.506395,43.495193 15.483989,41.809746 
	C16.506071,41.976936 16.779623,42.013557 16.974480,42.401337 
	C16.605757,44.157425 16.315729,45.562363 16.025703,46.967300 
z"/>
<path fill="#303E4B" opacity="1.000000" stroke="none" 
	d="
M48.062344,19.593708 
	C46.893887,20.011530 45.790005,20.023804 44.272331,20.048817 
	C43.566597,18.993292 43.274651,17.925024 42.949486,16.504726 
	C42.953949,14.630325 42.991627,13.107953 43.053764,11.128760 
	C46.481609,12.490715 48.647442,15.043157 48.062344,19.593708 
z"/>
<path fill="#A4CBD8" opacity="1.000000" stroke="none" 
	d="
M34.920158,55.997395 
	C37.738857,58.220844 34.995544,58.834221 33.325825,60.082123 
	C32.525074,59.841648 32.060452,59.466557 31.043732,59.079285 
	C30.392090,59.369980 30.292549,59.672852 30.193008,59.975727 
	C30.126032,60.740955 30.059057,61.506187 29.532600,62.643166 
	C28.320156,63.030926 27.567190,63.046928 26.713966,62.705059 
	C26.540705,60.580620 26.467701,58.814060 26.394699,57.047497 
	C26.394699,57.047497 26.685892,57.044365 26.827190,57.008987 
	C29.538788,56.740513 32.109089,56.507416 34.920158,55.997395 
z"/>
<path fill="#435563" opacity="1.000000" stroke="none" 
	d="
M40.618576,38.947723 
	C40.930359,38.990040 40.949291,39.186047 40.914864,40.017365 
	C39.615250,41.441448 38.368988,42.230217 36.912308,42.885979 
	C36.429863,42.557194 36.196262,42.323071 36.001091,42.050606 
	C37.442638,41.067543 38.884186,40.084480 40.618576,38.947723 
z"/>
<path fill="#475663" opacity="1.000000" stroke="none" 
	d="
M24.261921,49.041397 
	C24.675138,47.638741 25.329512,46.410282 26.268368,45.073257 
	C26.464750,46.668640 27.984690,49.147987 24.261921,49.041397 
z"/>
<path fill="#3B4953" opacity="1.000000" stroke="none" 
	d="
M31.601665,44.895470 
	C31.854561,45.707710 31.854561,46.630539 31.854561,48.417198 
	C31.069933,47.309216 30.746796,46.852909 30.244553,46.212395 
	C30.493219,45.687477 30.920996,45.346767 31.601665,44.895470 
z"/>
<path fill="#3B4953" opacity="1.000000" stroke="none" 
	d="
M35.679260,42.093575 
	C36.196262,42.323071 36.429863,42.557194 36.692505,43.085419 
	C36.153862,43.666851 35.624615,43.915840 35.095364,44.164825 
	C34.819435,44.115673 34.543503,44.066525 33.851944,43.948105 
	C34.076687,43.298073 34.717056,42.717308 35.679260,42.093575 
z"/>
<path fill="#3B4953" opacity="1.000000" stroke="none" 
	d="
M32.723820,44.012314 
	C32.760620,44.214989 32.512463,44.458405 32.037807,44.836277 
	C32.020493,44.664845 32.229679,44.358948 32.723820,44.012314 
z"/>
<path fill="#445967" opacity="1.000000" stroke="none" 
	d="
M17.503090,78.868492 
	C16.906630,78.509384 16.746372,78.205322 16.906839,77.585297 
	C20.338472,76.864288 23.449379,76.459229 26.666611,76.029129 
	C26.772938,76.004082 26.991407,76.004402 26.991407,76.004402 
	C25.447428,81.546371 20.952229,77.936737 17.503090,78.868492 
z"/>
<path fill="#344856" opacity="1.000000" stroke="none" 
	d="
M37.992455,79.001488 
	C37.468609,79.905289 36.944763,80.809097 36.142532,81.882797 
	C35.055714,81.759850 34.247280,81.467010 33.457245,80.665421 
	C33.645157,79.761581 33.814671,79.366486 34.360577,78.979813 
	C35.489231,78.989075 36.241489,78.989922 37.243420,78.993973 
	C37.493092,78.997185 37.992455,79.001488 37.992455,79.001488 
z"/>
<path fill="#A4CBD8" opacity="1.000000" stroke="none" 
	d="
M29.797142,71.971535 
	C29.851570,73.059509 29.905998,74.147476 29.894184,75.640915 
	C29.118988,76.032417 28.410032,76.018456 27.346243,76.004448 
	C26.991407,76.004402 26.772938,76.004082 26.694611,75.621597 
	C26.699818,74.156921 26.783356,73.074745 27.233265,71.997757 
	C28.332138,71.992485 29.064638,71.982010 29.797142,71.971535 
z"/>
<path fill="#3B5462" opacity="1.000000" stroke="none" 
	d="
M33.984180,78.971390 
	C33.814671,79.366486 33.645157,79.761581 33.378029,80.345345 
	C32.243919,79.381493 31.207422,78.228981 30.302197,76.800438 
	C31.055801,76.943542 31.678135,77.362671 32.841225,78.028152 
	C33.617508,78.476738 33.818241,78.709030 33.984180,78.971390 
z"/>
<path fill="#275C6D" opacity="1.000000" stroke="none" 
	d="
M32.328964,86.087006 
	C32.042393,86.054390 31.995541,85.638954 31.988247,85.430054 
	C32.610638,85.394669 33.240326,85.568184 33.870014,85.741692 
	C33.451855,85.867668 33.033699,85.993645 32.328964,86.087006 
z"/>
<path fill="#324351" opacity="1.000000" stroke="none" 
	d="
M26.866894,71.992561 
	C26.783356,73.074745 26.699818,74.156921 26.588284,75.646637 
	C23.449379,76.459229 20.338472,76.864288 16.749252,77.378067 
	C16.270943,77.486801 15.782791,77.516464 15.782791,77.516464 
	C15.782791,77.516464 15.302542,77.423950 15.225467,77.042015 
	C15.430458,76.092033 15.712524,75.523987 16.359648,74.979004 
	C18.492842,74.679832 20.260979,74.357605 22.302227,73.842728 
	C22.741510,71.752052 22.907682,69.854027 22.971153,67.658516 
	C22.218346,66.900185 21.568237,66.439331 20.918129,65.978485 
	C20.895395,65.323776 20.872662,64.669075 20.803909,63.689407 
	C20.817312,62.836082 20.876734,62.307720 21.260963,61.318924 
	C22.078934,60.262127 22.572098,59.665756 23.065262,59.069386 
	C23.982740,58.500187 24.900219,57.930992 26.106197,57.204647 
	C26.467701,58.814060 26.540705,60.580620 26.621761,63.143227 
	C26.708839,66.623695 26.787867,69.308128 26.866894,71.992561 
z"/>
<path fill="#445967" opacity="1.000000" stroke="none" 
	d="
M20.468433,65.994980 
	C21.568237,66.439331 22.218346,66.900185 22.697107,67.674469 
	C22.343508,67.996483 22.161253,68.005058 21.610817,68.015556 
	C20.506290,68.023651 19.769945,68.029831 18.648163,68.027100 
	C17.103065,68.065689 15.943406,68.113197 14.783747,68.160706 
	C14.853781,68.773781 14.923816,69.386848 14.992369,70.333107 
	C14.993070,71.110535 14.995252,71.554787 14.846365,72.196945 
	C15.130474,72.931046 15.565652,73.467232 16.000978,74.241562 
	C16.001127,74.479698 15.994589,74.955940 15.994589,74.955940 
	C15.712524,75.523987 15.430458,76.092033 15.000156,76.942055 
	C13.291092,75.698204 11.730263,74.172379 10.349560,71.994720 
	C10.692198,69.680031 10.854711,68.017166 11.017223,66.354294 
	C14.017727,66.240021 17.018230,66.125748 20.468433,65.994980 
z"/>
<path fill="#455C6B" opacity="1.000000" stroke="none" 
	d="
M10.708689,66.501266 
	C10.854711,68.017166 10.692198,69.680031 10.335642,71.638954 
	C10.227783,70.172752 10.313969,68.410492 10.708689,66.501266 
z"/>
<path fill="#475763" opacity="1.000000" stroke="none" 
	d="
M64.999084,37.986469 
	C65.108833,37.742939 65.249794,37.519062 65.563599,37.175163 
	C67.209206,38.648628 68.419731,40.979248 70.273415,41.737476 
	C75.390938,43.830723 76.808044,47.498615 76.493393,52.776451 
	C76.077164,53.361485 75.363419,53.677731 74.058266,53.801949 
	C69.005188,54.560005 68.669891,55.688911 71.768539,59.327988 
	C71.768539,59.327988 71.931786,59.631775 72.000626,59.789848 
	C72.578003,61.000462 73.086533,62.053005 73.768875,63.465282 
	C73.000351,63.590881 71.845917,63.779549 70.074921,63.855663 
	C68.964775,63.480061 68.471191,63.217010 67.974686,62.584061 
	C67.210861,61.234112 66.449959,60.254059 65.689056,59.274006 
	C64.791641,60.849846 63.894222,62.425686 62.658867,63.893158 
	C61.783676,63.338413 61.246418,62.892036 60.741669,62.144325 
	C60.882355,61.247795 60.990543,60.652599 61.356056,59.814621 
	C62.412472,57.830193 63.211559,56.088547 64.165512,54.009384 
	C60.392876,53.775261 57.303661,53.583546 53.878830,53.371006 
	C54.018494,51.000481 54.133774,49.043793 54.426376,46.818565 
	C54.697067,45.704830 54.790440,44.859634 54.968658,43.773411 
	C55.055767,43.362045 55.058025,43.191711 55.239410,42.743603 
	C55.915085,41.298412 56.411629,40.130997 57.193420,38.973831 
	C57.668850,38.990585 57.859028,38.997078 58.039810,39.419743 
	C58.021175,41.223557 58.011948,42.611202 57.763107,44.237049 
	C55.867058,46.896904 55.223522,49.043835 59.453987,49.988949 
	C61.922470,50.004486 63.955364,50.018032 66.085213,50.324131 
	C67.456573,50.417114 68.730972,50.217541 70.207962,49.757355 
	C71.351585,44.369141 66.471748,44.211506 64.018768,41.646362 
	C64.355042,40.194675 64.677063,39.090572 64.999084,37.986469 
z"/>
<path fill="#485765" opacity="1.000000" stroke="none" 
	d="
M73.854370,32.690254 
	C73.636711,34.112766 73.269791,35.230492 72.957886,36.658501 
	C72.539642,36.986458 72.066368,37.004128 71.238251,37.033775 
	C70.264206,34.643597 69.645020,32.241447 69.094238,29.412903 
	C70.676796,30.119492 72.190956,31.252480 73.854370,32.690254 
z"/>
<path fill="#485765" opacity="1.000000" stroke="none" 
	d="
M70.155106,22.806030 
	C71.434601,23.546618 72.361328,24.291178 73.288063,25.035736 
	C72.114944,25.398762 70.941826,25.761786 69.449944,26.068790 
	C69.354904,24.945183 69.578629,23.877594 70.155106,22.806030 
z"/>
<path fill="#505C68" opacity="1.000000" stroke="none" 
	d="
M95.540482,54.998001 
	C96.625748,59.146679 94.103241,59.994961 90.373375,59.986732 
	C89.097946,60.396469 88.235825,60.873783 87.318336,61.190926 
	C86.030830,61.635967 84.702156,61.961922 83.391090,62.338810 
	C82.976044,60.836220 81.955757,59.158970 82.324127,57.882458 
	C82.660973,56.715195 84.416733,55.349926 85.693176,55.182076 
	C88.775650,54.776733 91.943405,55.019909 95.540482,54.998001 
z"/>
<path fill="#545E69" opacity="1.000000" stroke="none" 
	d="
M88.614380,67.997559 
	C89.413734,68.027092 89.854080,68.034340 90.623543,68.052307 
	C90.535988,69.738579 90.635681,72.182800 89.572990,72.896683 
	C88.220352,73.805344 84.934746,74.101891 84.257935,73.250648 
	C83.074089,71.761719 83.243690,69.196678 82.712151,66.369690 
	C85.239044,67.101593 86.747215,67.538429 88.614380,67.997559 
z"/>
<path fill="#325260" opacity="1.000000" stroke="none" 
	d="
M80.352524,62.694832 
	C80.108109,61.904476 80.033531,60.857250 80.018250,59.419590 
	C80.225822,60.165424 80.374092,61.301697 80.352524,62.694832 
z"/>
<path fill="#9BB6C4" opacity="1.000000" stroke="none" 
	d="
M82.472252,30.585268 
	C79.744659,32.844082 77.192291,32.493496 75.947960,29.876640 
	C75.219025,28.343676 75.631775,25.662840 76.580208,24.160984 
	C77.162209,23.239374 80.154221,22.825350 81.315178,23.490469 
	C83.898308,24.970364 84.598099,27.541636 82.472252,30.585268 
z"/>
<path fill="#445360" opacity="1.000000" stroke="none" 
	d="
M17.053177,42.050182 
	C16.779623,42.013557 16.506071,41.976936 15.820684,41.884544 
	C16.457623,40.578140 17.915651,39.473873 18.431171,38.032509 
	C18.877689,36.784073 18.255207,35.153294 17.991543,32.583504 
	C14.931224,36.111050 12.906714,38.444641 10.882205,40.778236 
	C10.451758,40.543350 10.021311,40.308460 9.590864,40.073574 
	C11.579158,35.730194 9.016645,29.733521 15.630650,27.310623 
	C16.017389,28.122934 16.026232,28.557985 15.774343,29.161894 
	C13.412519,33.000366 16.701609,31.545162 18.348478,31.970583 
	C19.118771,31.981764 19.558947,31.987556 20.139114,32.284763 
	C21.185778,34.031540 22.092451,35.486900 22.807699,37.100479 
	C21.742664,38.499756 20.869053,39.740810 19.685946,41.040161 
	C18.602026,41.415695 17.827602,41.732941 17.053177,42.050182 
z"/>
<path fill="#4F5B67" opacity="1.000000" stroke="none" 
	d="
M16.035072,28.993036 
	C16.026232,28.557985 16.017389,28.122934 16.002375,27.361694 
	C16.328808,26.961224 16.661411,26.886938 17.812084,26.884392 
	C20.113787,27.158060 21.597422,27.359993 23.140368,27.826706 
	C23.128656,28.795864 23.057634,29.500240 22.602953,30.413940 
	C21.479235,31.079962 20.739178,31.536655 19.999121,31.993349 
	C19.558947,31.987556 19.118771,31.981764 18.210495,31.703735 
	C17.173286,30.618681 16.604179,29.805859 16.035072,28.993036 
z"/>
<path fill="#455461" opacity="1.000000" stroke="none" 
	d="
M23.081059,27.561926 
	C21.597422,27.359993 20.113787,27.158060 18.066380,26.918999 
	C17.692827,26.079887 17.883047,25.277905 18.205090,24.196617 
	C19.937105,23.950140 21.537296,23.982967 23.552254,24.324345 
	C23.671700,25.609238 23.376379,26.585581 23.081059,27.561926 
z"/>
<path fill="#303E4B" opacity="1.000000" stroke="none" 
	d="
M46.869225,26.089415 
	C47.096573,25.536736 47.323917,24.984056 47.765900,24.219851 
	C48.123432,25.047235 48.266331,26.086149 48.474155,27.513910 
	C48.278408,27.918421 48.017735,27.934080 47.352928,27.665512 
	C46.922276,26.950661 46.895748,26.520037 46.869225,26.089415 
z"/>
<path fill="#8EB9C5" opacity="1.000000" stroke="none" 
	d="
M71.964340,59.009705 
	C68.669891,55.688911 69.005188,54.560005 73.733566,53.800762 
	C73.386902,55.558205 72.773521,57.124813 71.964340,59.009705 
z"/>
<path fill="#46515E" opacity="1.000000" stroke="none" 
	d="
M70.644928,83.949165 
	C67.124908,81.318840 67.414360,78.722618 71.772751,74.207855 
	C72.713303,73.594040 73.416336,73.241516 75.016685,72.439056 
	C74.700005,75.232780 74.460564,77.345131 74.200500,79.847473 
	C74.179878,80.237473 74.117874,80.177750 73.800560,80.194214 
	C73.007263,80.891357 72.531288,81.572037 72.055313,82.252716 
	C71.646706,82.764565 71.238098,83.276413 70.644928,83.949165 
z"/>
<path fill="#3E5360" opacity="1.000000" stroke="none" 
	d="
M67.977608,62.953964 
	C68.471191,63.217010 68.964775,63.480061 69.710869,63.859055 
	C69.978699,64.390343 69.994011,64.805679 70.017067,65.532181 
	C68.637764,65.896217 67.250725,65.949089 65.437637,65.699600 
	C64.999214,64.922729 64.986839,64.448204 65.227142,63.769547 
	C66.312416,63.361591 67.145012,63.157776 67.977608,62.953964 
z"/>
<path fill="#2F4452" opacity="1.000000" stroke="none" 
	d="
M72.367172,82.147041 
	C72.531288,81.572037 73.007263,80.891357 73.814674,80.153549 
	C73.657082,80.744736 73.168060,81.393051 72.367172,82.147041 
z"/>
<path fill="#425664" opacity="1.000000" stroke="none" 
	d="
M64.974464,63.973686 
	C64.986839,64.448204 64.999214,64.922729 65.024536,65.753021 
	C64.695297,67.195717 64.353119,68.282631 63.704586,69.815941 
	C62.936363,70.511070 62.474499,70.759819 61.747566,70.833755 
	C59.761070,70.917007 58.039635,71.175056 56.438454,71.103851 
	C57.942196,67.998283 59.325680,65.221970 60.709164,62.445660 
	C61.246418,62.892036 61.783676,63.338413 62.988697,63.891132 
	C64.095795,63.989548 64.535133,63.981617 64.974464,63.973686 
z"/>
<path fill="#304E5C" opacity="1.000000" stroke="none" 
	d="
M62.012630,71.008560 
	C62.474499,70.759819 62.936363,70.511070 63.637260,70.154678 
	C63.562637,72.473419 63.248981,74.899803 62.818146,77.680305 
	C62.330639,78.030289 61.960316,78.026169 61.367867,77.628914 
	C61.434704,75.160042 61.723667,73.084305 62.012630,71.008560 
z"/>
<path fill="#4A5968" opacity="1.000000" stroke="none" 
	d="
M61.747566,70.833755 
	C61.723667,73.084305 61.434704,75.160042 61.090118,77.621857 
	C60.825584,78.538887 60.616676,79.069847 60.202545,79.803436 
	C58.533302,80.572403 57.069283,81.138748 55.301010,81.852798 
	C54.614788,80.672951 54.232826,79.345383 53.747009,77.419937 
	C53.852123,76.504120 54.061089,76.186180 54.645847,75.753319 
	C55.516266,74.329376 56.010891,73.020363 56.406193,71.677124 
	C56.306870,71.642906 56.318203,71.433113 56.318203,71.433113 
	C58.039635,71.175056 59.761070,70.917007 61.747566,70.833755 
z"/>
<path fill="#535D6A" opacity="1.000000" stroke="none" 
	d="
M46.477280,26.082727 
	C46.895748,26.520037 46.922276,26.950661 46.963295,27.705847 
	C48.154137,29.544273 49.330482,31.058136 50.690601,33.139271 
	C49.226154,37.459999 47.577930,41.213455 45.593346,45.058708 
	C44.166523,47.422173 43.076057,49.693844 41.693264,52.189018 
	C39.935856,52.598587 38.470768,52.784645 37.005684,52.970707 
	C37.005684,52.970707 37.000957,53.003635 36.932159,52.696190 
	C36.243057,51.909214 35.622753,51.429680 35.002445,50.950150 
	C35.005451,48.915112 35.008457,46.880077 35.053413,44.504932 
	C35.624615,43.915840 36.153862,43.666851 36.902916,43.218426 
	C38.368988,42.230217 39.615250,41.441448 40.932854,40.312191 
	C41.678082,36.995514 42.482136,34.040981 42.982113,31.035854 
	C43.342007,28.872709 42.468861,26.132328 46.477280,26.082727 
z"/>
<path fill="#3B4953" opacity="1.000000" stroke="none" 
	d="
M37.075085,53.330894 
	C38.470768,52.784645 39.935856,52.598587 41.978706,52.009003 
	C43.680882,49.392624 44.805294,47.179771 45.929703,44.966915 
	C47.577930,41.213455 49.226154,37.459999 50.938892,33.352974 
	C52.265182,32.335396 53.526962,31.671385 54.767311,31.474884 
	C53.119473,35.575321 51.493073,39.208252 49.891285,42.863197 
	C49.915897,42.885216 49.906494,42.820164 49.657890,42.920593 
	C49.305073,43.344067 49.200855,43.667110 48.916702,44.296738 
	C46.311108,49.732147 43.885448,54.860970 41.459789,59.989792 
	C40.021355,57.890224 38.582920,55.790657 37.075085,53.330894 
z"/>
<path fill="#BDCDD9" opacity="1.000000" stroke="none" 
	d="
M49.866673,42.841183 
	C51.493073,39.208252 53.119473,35.575321 54.958599,31.682186 
	C55.933270,30.960068 56.695217,30.498158 57.785229,29.837368 
	C57.911282,31.297503 57.994930,32.266445 58.009014,33.961151 
	C57.595692,36.112465 57.251934,37.538021 56.908173,38.963577 
	C56.411629,40.130997 55.915085,41.298412 54.806519,42.731712 
	C52.751884,42.945457 51.309280,42.893318 49.866673,42.841183 
z"/>
<path fill="#505966" opacity="1.000000" stroke="none" 
	d="
M57.193420,38.973831 
	C57.251934,37.538021 57.595692,36.112465 58.055801,34.333771 
	C59.244312,33.748379 60.316467,33.516125 61.169052,33.331436 
	C62.253220,34.849228 63.306049,36.323147 64.678986,37.891769 
	C64.677063,39.090572 64.355042,40.194675 63.707951,41.547028 
	C61.573483,40.924900 61.403030,36.923244 58.049210,39.003574 
	C57.859028,38.997078 57.668850,38.990585 57.193420,38.973831 
z"/>
<path fill="#BED7E4" opacity="1.000000" stroke="none" 
	d="
M49.891285,42.863197 
	C51.309280,42.893318 52.751884,42.945457 54.627388,43.009483 
	C55.058025,43.191711 55.055767,43.362045 54.735748,43.938072 
	C54.361675,45.258209 54.305363,46.172657 54.249054,47.087105 
	C54.133774,49.043793 54.018494,51.000481 53.878830,53.371006 
	C57.303661,53.583546 60.392876,53.775261 64.165512,54.009384 
	C63.211559,56.088547 62.412472,57.830193 61.094376,59.576046 
	C56.625629,55.874104 55.921749,55.964458 51.788944,60.742077 
	C51.349316,60.883583 51.179020,60.956573 51.008724,61.029560 
	C48.333359,60.969147 45.657990,60.908733 42.540924,60.899666 
	C41.979099,60.799831 41.858967,60.648647 41.599312,60.243629 
	C43.885448,54.860970 46.311108,49.732147 49.084778,44.125999 
	C49.645920,43.404083 49.803822,43.127914 49.906494,42.820164 
	C49.906494,42.820164 49.915897,42.885216 49.891285,42.863197 
z"/>
<path fill="#B1D4E2" opacity="1.000000" stroke="none" 
	d="
M52.058281,60.673557 
	C55.921749,55.964458 56.625629,55.874104 60.837051,59.818832 
	C60.990543,60.652599 60.882355,61.247795 60.741669,62.144325 
	C59.325680,65.221970 57.942196,67.998283 56.438454,71.103851 
	C56.318203,71.433113 56.306870,71.642906 56.141426,71.878220 
	C55.407341,73.365105 54.838699,74.616669 54.270058,75.868240 
	C54.061089,76.186180 53.852123,76.504120 53.647602,77.016449 
	C52.876377,78.643227 52.100704,80.075600 50.864677,81.828812 
	C49.977089,82.084755 49.549862,82.019875 49.079414,81.546265 
	C50.093987,75.414520 51.151783,69.691513 52.209579,63.968502 
	C52.172817,63.524395 52.136055,63.080292 52.072720,61.984703 
	C52.050194,61.113331 52.054237,60.893444 52.058281,60.673557 
z"/>
<path fill="#324450" opacity="1.000000" stroke="none" 
	d="
M51.844345,63.967422 
	C51.151783,69.691513 50.093987,75.414520 48.930840,81.717850 
	C48.878120,82.894402 48.930759,83.490639 48.983398,84.086876 
	C48.986366,84.518295 48.989334,84.949707 48.989204,85.705200 
	C45.017082,82.999069 47.788715,79.263580 47.943165,74.978943 
	C48.652958,70.769318 49.335873,67.385506 50.018784,64.001686 
	C50.505562,63.989906 50.992336,63.978127 51.844345,63.967422 
z"/>
<path fill="#4D5764" opacity="1.000000" stroke="none" 
	d="
M49.684624,63.858025 
	C49.335873,67.385506 48.652958,70.769318 47.963081,74.568794 
	C47.064259,74.801292 45.402271,74.641785 45.395813,74.431427 
	C45.295547,71.166229 45.260994,67.876740 45.645432,64.644516 
	C45.699024,64.193954 48.058441,64.017632 49.684624,63.858025 
z"/>
<path fill="#324450" opacity="1.000000" stroke="none" 
	d="
M51.788944,60.742077 
	C52.054237,60.893444 52.050194,61.113331 51.984058,61.657196 
	C51.673290,61.817478 51.455784,61.619526 51.139084,61.208439 
	C51.179020,60.956573 51.349316,60.883583 51.788944,60.742077 
z"/>
<path fill="#425664" opacity="1.000000" stroke="none" 
	d="
M49.286579,84.017410 
	C48.930759,83.490639 48.878120,82.894402 48.974056,82.126579 
	C49.549862,82.019875 49.977089,82.084755 50.728439,82.146042 
	C50.564964,82.744278 50.077362,83.346107 49.286579,84.017410 
z"/>
<path fill="#B7D0DD" opacity="1.000000" stroke="none" 
	d="
M27.233265,71.997757 
	C26.787867,69.308128 26.708839,66.623695 26.722019,63.501099 
	C27.567190,63.046928 28.320156,63.030926 29.449760,63.018860 
	C29.860775,65.710495 29.895149,68.398186 29.863331,71.528702 
	C29.064638,71.982010 28.332138,71.992485 27.233265,71.997757 
z"/>
<path fill="#434F5D" opacity="1.000000" stroke="none" 
	d="
M34.360577,78.979813 
	C33.818241,78.709030 33.617508,78.476738 33.196110,78.137161 
	C33.123718,76.409416 33.237198,74.819016 33.659714,73.120193 
	C34.745720,73.670403 35.522686,74.329033 36.633812,75.011208 
	C37.176624,75.557060 37.385281,76.079369 37.797737,76.801392 
	C38.001537,77.001106 38.006565,77.008926 37.892029,77.265350 
	C37.516243,78.011444 37.254997,78.501114 36.993752,78.990768 
	C36.241489,78.989922 35.489231,78.989075 34.360577,78.979813 
z"/>
<path fill="#3B5462" opacity="1.000000" stroke="none" 
	d="
M30.349255,59.838367 
	C30.292549,59.672852 30.392090,59.369980 30.744633,59.049934 
	C30.866110,59.279457 30.702065,59.502209 30.349255,59.838367 
z"/>
<path fill="#3D4B57" opacity="1.000000" stroke="none" 
	d="
M37.243423,78.993980 
	C37.254997,78.501114 37.516243,78.011444 37.895847,77.270523 
	C38.014206,77.019272 38.500256,76.998619 38.743187,76.998367 
	C38.988865,77.442238 38.991611,77.886368 38.997444,78.663406 
	C38.832565,78.995872 38.664600,78.995430 38.244545,78.998238 
	C37.992455,79.001488 37.493092,78.997185 37.243423,78.993980 
z"/>
<path fill="#9EB8C6" opacity="1.000000" stroke="none" 
	d="
M23.140368,27.826706 
	C23.376379,26.585581 23.671700,25.609238 24.030449,24.334064 
	C29.720737,21.568695 31.916199,23.023632 31.454979,29.667685 
	C30.692226,30.738668 30.258093,31.273191 29.865299,31.837273 
	C29.906639,31.866831 29.879707,31.768822 29.498779,31.800894 
	C27.860146,31.709766 26.602436,31.586567 25.110790,31.194668 
	C24.262991,30.709723 23.649132,30.493479 23.039974,30.247614 
	C23.044680,30.217993 22.986612,30.204617 22.986612,30.204617 
	C23.057634,29.500240 23.128656,28.795864 23.140368,27.826706 
z"/>
<path fill="#535C69" opacity="1.000000" stroke="none" 
	d="
M33.046619,35.031914 
	C30.634989,36.328896 28.223356,37.625877 25.426689,38.981339 
	C25.041653,39.039822 24.995117,38.995770 24.995560,38.621132 
	C24.993555,37.497082 24.991110,36.747665 25.295921,35.845650 
	C27.028687,34.384975 28.454195,33.076897 29.879707,31.768822 
	C29.879707,31.768822 29.906639,31.866831 30.182072,31.965462 
	C31.320543,33.053364 32.183582,34.042641 33.046619,35.031914 
z"/>
<path fill="#535C69" opacity="1.000000" stroke="none" 
	d="
M16.974480,42.401337 
	C17.827602,41.732941 18.602026,41.415695 19.710175,41.377106 
	C20.694851,42.435783 21.345800,43.215813 22.015854,44.014740 
	C22.034958,44.033646 22.073996,44.070599 22.073996,44.070599 
	C20.308687,45.035351 18.543381,46.000103 16.401888,46.966080 
	C16.315729,45.562363 16.605757,44.157425 16.974480,42.401337 
z"/>
<path fill="#495662" opacity="1.000000" stroke="none" 
	d="
M33.380836,34.945862 
	C32.183582,34.042641 31.320543,33.053364 30.140732,31.935902 
	C30.258093,31.273191 30.692226,30.738668 31.342907,30.060133 
	C32.901577,30.590237 34.243706,31.264355 35.585831,31.938471 
	C34.962238,32.912251 34.338646,33.886032 33.380836,34.945862 
z"/>
<path fill="#535C69" opacity="1.000000" stroke="none" 
	d="
M25.065090,39.061668 
	C24.309465,40.681068 23.530405,42.278614 22.412670,43.973381 
	C22.073996,44.070599 22.034958,44.033646 22.079210,43.668327 
	C23.080681,41.867260 24.037899,40.431515 24.995117,38.995770 
	C24.995117,38.995770 25.041653,39.039822 25.065090,39.061668 
z"/>
<path fill="#515A68" opacity="1.000000" stroke="none" 
	d="
M22.974430,58.690201 
	C22.572098,59.665756 22.078934,60.262127 21.283478,60.920753 
	C17.801287,60.035954 14.621385,59.088898 11.167387,58.060207 
	C14.578210,53.561298 20.290245,54.026562 22.974430,58.690201 
z"/>
<path fill="#3B4953" opacity="1.000000" stroke="none" 
	d="
M32.176773,52.827145 
	C31.787380,52.707138 31.550087,52.451477 31.312794,52.195816 
	C31.522480,52.021202 31.732166,51.846588 31.941853,51.671974 
	C32.070858,52.011814 32.199863,52.351654 32.176773,52.827145 
z"/>
<path fill="#3B4953" opacity="1.000000" stroke="none" 
	d="
M35.009132,51.229275 
	C35.622753,51.429680 36.243057,51.909214 36.945202,52.685730 
	C36.356636,52.491272 35.686230,51.999836 35.009132,51.229275 
z"/>
<path fill="#565F6A" opacity="1.000000" stroke="none" 
	d="
M19.033600,68.036011 
	C19.769945,68.029831 20.506290,68.023651 21.617664,68.444138 
	C22.004835,70.592331 22.016973,72.313850 22.029114,74.035370 
	C20.260979,74.357605 18.492842,74.679832 16.359648,74.979004 
	C15.994589,74.955940 16.001127,74.479698 15.948516,73.958435 
	C15.596415,72.957794 15.296924,72.478409 14.997434,71.999031 
	C14.995252,71.554787 14.993070,71.110535 15.353722,70.327820 
	C16.822235,69.338234 17.927917,68.687119 19.033600,68.036011 
z"/>
<path fill="#4B5964" opacity="1.000000" stroke="none" 
	d="
M22.302227,73.842728 
	C22.016973,72.313850 22.004835,70.592331 21.985847,68.442230 
	C22.161253,68.005058 22.343508,67.996483 22.799809,67.971954 
	C22.907682,69.854027 22.741510,71.752052 22.302227,73.842728 
z"/>
<path fill="#4B5964" opacity="1.000000" stroke="none" 
	d="
M18.648161,68.027100 
	C17.927917,68.687119 16.822235,69.338234 15.355202,69.994637 
	C14.923816,69.386848 14.853781,68.773781 14.783747,68.160706 
	C15.943406,68.113197 17.103065,68.065689 18.648161,68.027100 
z"/>
<path fill="#4B5964" opacity="1.000000" stroke="none" 
	d="
M14.846365,72.196945 
	C15.296924,72.478409 15.596415,72.957794 15.948367,73.720291 
	C15.565652,73.467232 15.130474,72.931046 14.846365,72.196945 
z"/>
<path fill="#59616F" opacity="1.000000" stroke="none" 
	d="
M58.039810,39.419743 
	C61.403030,36.923244 61.573483,40.924900 63.693699,41.894604 
	C66.471748,44.211506 71.351585,44.369141 69.806305,49.752689 
	C68.130798,50.016281 67.059525,50.023930 65.988258,50.031578 
	C63.955364,50.018032 61.922470,50.004486 59.448715,49.592426 
	C58.672810,47.462227 58.337765,45.730537 58.002716,43.998848 
	C58.011948,42.611202 58.021175,41.223557 58.039810,39.419743 
z"/>
<path fill="#4D5967" opacity="1.000000" stroke="none" 
	d="
M65.227142,63.769547 
	C64.535133,63.981617 64.095795,63.989548 63.326633,63.999500 
	C63.894222,62.425686 64.791641,60.849846 65.689056,59.274006 
	C66.449959,60.254059 67.210861,61.234112 67.974686,62.584061 
	C67.145012,63.157776 66.312416,63.361591 65.227142,63.769547 
z"/>
<path fill="#505966" opacity="1.000000" stroke="none" 
	d="
M57.763107,44.237049 
	C58.337765,45.730537 58.672810,47.462227 59.013130,49.590439 
	C55.223522,49.043835 55.867058,46.896904 57.763107,44.237049 
z"/>
<path fill="#505966" opacity="1.000000" stroke="none" 
	d="
M66.085213,50.324131 
	C67.059525,50.023930 68.130798,50.016281 69.603722,50.013298 
	C68.730972,50.217541 67.456573,50.417114 66.085213,50.324131 
z"/>
<path fill="#BDCDD9" opacity="1.000000" stroke="none" 
	d="
M54.426376,46.818565 
	C54.305363,46.172657 54.361675,45.258209 54.650902,44.179100 
	C54.790440,44.859634 54.697067,45.704830 54.426376,46.818565 
z"/>
<path fill="#455461" opacity="1.000000" stroke="none" 
	d="
M29.498779,31.800892 
	C28.454195,33.076897 27.028687,34.384975 25.045559,35.960426 
	C23.991667,36.465954 23.495396,36.704105 22.999123,36.942261 
	C22.092451,35.486900 21.185778,34.031540 20.139114,32.284763 
	C20.739178,31.536655 21.479235,31.079962 22.602953,30.413940 
	C22.986612,30.204617 23.044680,30.217993 23.055016,30.601727 
	C23.825142,31.144764 24.584936,31.304066 25.344728,31.463369 
	C26.602436,31.586567 27.860146,31.709766 29.498779,31.800892 
z"/>
<path fill="#4F5B67" opacity="1.000000" stroke="none" 
	d="
M22.807699,37.100479 
	C23.495396,36.704105 23.991667,36.465954 24.738302,36.113022 
	C24.991110,36.747665 24.993555,37.497082 24.995560,38.621132 
	C24.037899,40.431515 23.080681,41.867260 22.060104,43.649422 
	C21.345800,43.215813 20.694851,42.435783 20.019672,41.318813 
	C20.869053,39.740810 21.742664,38.499756 22.807699,37.100479 
z"/>
<path fill="#475663" opacity="1.000000" stroke="none" 
	d="
M15.774343,29.161894 
	C16.604179,29.805859 17.173286,30.618681 17.880375,31.698349 
	C16.701609,31.545162 13.412519,33.000366 15.774343,29.161894 
z"/>
<path fill="#425664" opacity="1.000000" stroke="none" 
	d="
M54.645851,75.753319 
	C54.838699,74.616669 55.407341,73.365105 56.240749,71.912437 
	C56.010891,73.020363 55.516266,74.329376 54.645851,75.753319 
z"/>
<path fill="#435563" opacity="1.000000" stroke="none" 
	d="
M45.593349,45.058708 
	C44.805294,47.179771 43.680882,49.392624 42.271027,51.785500 
	C43.076057,49.693844 44.166523,47.422173 45.593349,45.058708 
z"/>
<path fill="#BDCDD9" opacity="1.000000" stroke="none" 
	d="
M49.657890,42.920593 
	C49.803822,43.127914 49.645920,43.404083 49.264717,43.819412 
	C49.200855,43.667110 49.305073,43.344067 49.657890,42.920593 
z"/>
<path fill="#3D4B57" opacity="1.000000" stroke="none" 
	d="
M25.110790,31.194668 
	C24.584936,31.304066 23.825142,31.144764 23.050310,30.631348 
	C23.649132,30.493479 24.262991,30.709723 25.110790,31.194668 
z"/>
</svg>